<mxfile host="Electron" modified="2023-10-22T06:19:11.216Z" agent="Mozilla/5.0 (Windows NT 10.0; Win64; x64) AppleWebKit/537.36 (KHTML, like Gecko) draw.io/22.0.3 Chrome/114.0.5735.289 Electron/25.8.4 Safari/537.36" etag="rEoxKWaH6isbriaV2HQO" version="22.0.3" type="device">
  <diagram name="Page-1" id="5d7acffa-a066-3a61-03fe-96351882024d">
    <mxGraphModel dx="5136" dy="2233" grid="1" gridSize="10" guides="1" tooltips="1" connect="1" arrows="1" fold="1" page="0" pageScale="1" pageWidth="1100" pageHeight="850" background="none" math="0" shadow="1">
      <root>
        <mxCell id="0" />
        <mxCell id="1" parent="0" />
        <mxCell id="KgeHwVZJBMbFdhlrKOKl-29" value="Arithmetic Logic Unit" style="swimlane;fontStyle=0;childLayout=stackLayout;horizontal=1;startSize=30;horizontalStack=0;resizeParent=1;resizeParentMax=0;resizeLast=0;collapsible=1;marginBottom=0;whiteSpace=wrap;html=1;rounded=1;labelBackgroundColor=none;movable=0;resizable=0;rotatable=0;deletable=0;editable=0;locked=1;connectable=0;" parent="1" vertex="1">
          <mxGeometry x="1110" y="155" width="210" height="300" as="geometry">
            <mxRectangle x="1200" y="180" width="150" height="30" as="alternateBounds" />
          </mxGeometry>
        </mxCell>
        <mxCell id="KgeHwVZJBMbFdhlrKOKl-162" value="result_as_address_Enable" style="text;strokeColor=none;fillColor=none;align=left;verticalAlign=middle;spacingLeft=4;spacingRight=4;overflow=hidden;points=[[0,0.5],[1,0.5]];portConstraint=eastwest;rotatable=0;whiteSpace=wrap;html=1;rounded=1;labelBackgroundColor=none;movable=0;resizable=0;deletable=0;editable=0;locked=1;connectable=0;" parent="KgeHwVZJBMbFdhlrKOKl-29" vertex="1">
          <mxGeometry y="30" width="210" height="30" as="geometry" />
        </mxCell>
        <mxCell id="KgeHwVZJBMbFdhlrKOKl-114" value="result_Enable" style="text;strokeColor=none;fillColor=none;align=left;verticalAlign=middle;spacingLeft=4;spacingRight=4;overflow=hidden;points=[[0,0.5],[1,0.5]];portConstraint=eastwest;rotatable=0;whiteSpace=wrap;html=1;rounded=1;labelBackgroundColor=none;movable=0;resizable=0;deletable=0;editable=0;locked=1;connectable=0;" parent="KgeHwVZJBMbFdhlrKOKl-29" vertex="1">
          <mxGeometry y="60" width="210" height="30" as="geometry" />
        </mxCell>
        <mxCell id="KgeHwVZJBMbFdhlrKOKl-30" value="funct3" style="text;strokeColor=none;fillColor=none;align=left;verticalAlign=middle;spacingLeft=4;spacingRight=4;overflow=hidden;points=[[0,0.5],[1,0.5]];portConstraint=eastwest;rotatable=0;whiteSpace=wrap;html=1;rounded=1;labelBackgroundColor=none;movable=0;resizable=0;deletable=0;editable=0;locked=1;connectable=0;" parent="KgeHwVZJBMbFdhlrKOKl-29" vertex="1">
          <mxGeometry y="90" width="210" height="30" as="geometry" />
        </mxCell>
        <mxCell id="KgeHwVZJBMbFdhlrKOKl-31" value="funct7" style="text;strokeColor=none;fillColor=none;align=left;verticalAlign=middle;spacingLeft=4;spacingRight=4;overflow=hidden;points=[[0,0.5],[1,0.5]];portConstraint=eastwest;rotatable=0;whiteSpace=wrap;html=1;rounded=1;labelBackgroundColor=none;movable=0;resizable=0;deletable=0;editable=0;locked=1;connectable=0;" parent="KgeHwVZJBMbFdhlrKOKl-29" vertex="1">
          <mxGeometry y="120" width="210" height="30" as="geometry" />
        </mxCell>
        <mxCell id="KgeHwVZJBMbFdhlrKOKl-32" value="operand1" style="text;strokeColor=none;fillColor=none;align=left;verticalAlign=middle;spacingLeft=4;spacingRight=4;overflow=hidden;points=[[0,0.5],[1,0.5]];portConstraint=eastwest;rotatable=0;whiteSpace=wrap;html=1;rounded=1;labelBackgroundColor=none;movable=0;resizable=0;deletable=0;editable=0;locked=1;connectable=0;" parent="KgeHwVZJBMbFdhlrKOKl-29" vertex="1">
          <mxGeometry y="150" width="210" height="30" as="geometry" />
        </mxCell>
        <mxCell id="KgeHwVZJBMbFdhlrKOKl-33" value="operand2" style="text;strokeColor=none;fillColor=none;align=left;verticalAlign=middle;spacingLeft=4;spacingRight=4;overflow=hidden;points=[[0,0.5],[1,0.5]];portConstraint=eastwest;rotatable=0;whiteSpace=wrap;html=1;rounded=1;labelBackgroundColor=none;movable=0;resizable=0;deletable=0;editable=0;locked=1;connectable=0;" parent="KgeHwVZJBMbFdhlrKOKl-29" vertex="1">
          <mxGeometry y="180" width="210" height="30" as="geometry" />
        </mxCell>
        <mxCell id="KgeHwVZJBMbFdhlrKOKl-34" value="result" style="text;strokeColor=none;fillColor=none;align=right;verticalAlign=middle;spacingLeft=4;spacingRight=4;overflow=hidden;points=[[0,0.5],[1,0.5]];portConstraint=eastwest;rotatable=0;whiteSpace=wrap;html=1;rounded=1;labelBackgroundColor=none;movable=0;resizable=0;deletable=0;editable=0;locked=1;connectable=0;" parent="KgeHwVZJBMbFdhlrKOKl-29" vertex="1">
          <mxGeometry y="210" width="210" height="30" as="geometry" />
        </mxCell>
        <mxCell id="KgeHwVZJBMbFdhlrKOKl-161" value="result_as_address" style="text;strokeColor=none;fillColor=none;align=right;verticalAlign=middle;spacingLeft=4;spacingRight=4;overflow=hidden;points=[[0,0.5],[1,0.5]];portConstraint=eastwest;rotatable=0;whiteSpace=wrap;html=1;rounded=1;labelBackgroundColor=none;movable=0;resizable=0;deletable=0;editable=0;locked=1;connectable=0;" parent="KgeHwVZJBMbFdhlrKOKl-29" vertex="1">
          <mxGeometry y="240" width="210" height="30" as="geometry" />
        </mxCell>
        <mxCell id="KgeHwVZJBMbFdhlrKOKl-35" value="result_logic" style="text;strokeColor=none;fillColor=none;align=right;verticalAlign=middle;spacingLeft=4;spacingRight=4;overflow=hidden;points=[[0,0.5],[1,0.5]];portConstraint=eastwest;rotatable=0;whiteSpace=wrap;html=1;rounded=1;labelBackgroundColor=none;movable=0;resizable=0;deletable=0;editable=0;locked=1;connectable=0;" parent="KgeHwVZJBMbFdhlrKOKl-29" vertex="1">
          <mxGeometry y="270" width="210" height="30" as="geometry" />
        </mxCell>
        <mxCell id="KgeHwVZJBMbFdhlrKOKl-43" value="General Register" style="swimlane;fontStyle=0;childLayout=stackLayout;horizontal=1;startSize=30;horizontalStack=0;resizeParent=1;resizeParentMax=0;resizeLast=0;collapsible=1;marginBottom=0;whiteSpace=wrap;html=1;rounded=1;labelBackgroundColor=none;movable=0;resizable=0;rotatable=0;deletable=0;editable=0;locked=1;connectable=0;" parent="1" vertex="1">
          <mxGeometry x="680" y="170" width="190" height="300" as="geometry" />
        </mxCell>
        <mxCell id="KgeHwVZJBMbFdhlrKOKl-44" value="Read_Address_1" style="text;strokeColor=none;fillColor=none;align=left;verticalAlign=middle;spacingLeft=4;spacingRight=4;overflow=hidden;points=[[0,0.5],[1,0.5]];portConstraint=eastwest;rotatable=0;whiteSpace=wrap;html=1;rounded=1;labelBackgroundColor=none;movable=0;resizable=0;deletable=0;editable=0;locked=1;connectable=0;" parent="KgeHwVZJBMbFdhlrKOKl-43" vertex="1">
          <mxGeometry y="30" width="190" height="30" as="geometry" />
        </mxCell>
        <mxCell id="KgeHwVZJBMbFdhlrKOKl-45" value="Read_Data_1" style="text;strokeColor=none;fillColor=none;align=right;verticalAlign=middle;spacingLeft=4;spacingRight=4;overflow=hidden;points=[[0,0.5],[1,0.5]];portConstraint=eastwest;rotatable=0;whiteSpace=wrap;html=1;rounded=1;labelBackgroundColor=none;movable=0;resizable=0;deletable=0;editable=0;locked=1;connectable=0;" parent="KgeHwVZJBMbFdhlrKOKl-43" vertex="1">
          <mxGeometry y="60" width="190" height="30" as="geometry" />
        </mxCell>
        <mxCell id="KgeHwVZJBMbFdhlrKOKl-46" value="Read_Address_2" style="text;strokeColor=none;fillColor=none;align=left;verticalAlign=middle;spacingLeft=4;spacingRight=4;overflow=hidden;points=[[0,0.5],[1,0.5]];portConstraint=eastwest;rotatable=0;whiteSpace=wrap;html=1;rounded=1;labelBackgroundColor=none;movable=0;resizable=0;deletable=0;editable=0;locked=1;connectable=0;" parent="KgeHwVZJBMbFdhlrKOKl-43" vertex="1">
          <mxGeometry y="90" width="190" height="30" as="geometry" />
        </mxCell>
        <mxCell id="KgeHwVZJBMbFdhlrKOKl-47" value="Read_Data_2" style="text;strokeColor=none;fillColor=none;align=right;verticalAlign=middle;spacingLeft=4;spacingRight=4;overflow=hidden;points=[[0,0.5],[1,0.5]];portConstraint=eastwest;rotatable=0;whiteSpace=wrap;html=1;rounded=1;labelBackgroundColor=none;movable=0;resizable=0;deletable=0;editable=0;locked=1;connectable=0;" parent="KgeHwVZJBMbFdhlrKOKl-43" vertex="1">
          <mxGeometry y="120" width="190" height="30" as="geometry" />
        </mxCell>
        <mxCell id="i2NthTAIH1iRgAQdDC14-1" value="Read_Data_2_to_Bus_Enable" style="text;strokeColor=none;fillColor=none;align=left;verticalAlign=middle;spacingLeft=4;spacingRight=4;overflow=hidden;points=[[0,0.5],[1,0.5]];portConstraint=eastwest;rotatable=0;whiteSpace=wrap;html=1;rounded=1;labelBackgroundColor=none;movable=0;resizable=0;deletable=0;editable=0;locked=1;connectable=0;" parent="KgeHwVZJBMbFdhlrKOKl-43" vertex="1">
          <mxGeometry y="150" width="190" height="30" as="geometry" />
        </mxCell>
        <mxCell id="KgeHwVZJBMbFdhlrKOKl-147" value="Read_Data_2_to_Bus" style="text;strokeColor=none;fillColor=none;align=right;verticalAlign=middle;spacingLeft=4;spacingRight=4;overflow=hidden;points=[[0,0.5],[1,0.5]];portConstraint=eastwest;rotatable=0;whiteSpace=wrap;html=1;rounded=1;labelBackgroundColor=none;movable=0;resizable=0;deletable=0;editable=0;locked=1;connectable=0;" parent="KgeHwVZJBMbFdhlrKOKl-43" vertex="1">
          <mxGeometry y="180" width="190" height="30" as="geometry" />
        </mxCell>
        <mxCell id="KgeHwVZJBMbFdhlrKOKl-48" value="Write_Address" style="text;strokeColor=none;fillColor=none;align=left;verticalAlign=middle;spacingLeft=4;spacingRight=4;overflow=hidden;points=[[0,0.5],[1,0.5]];portConstraint=eastwest;rotatable=0;whiteSpace=wrap;html=1;rounded=1;labelBackgroundColor=none;movable=0;resizable=0;deletable=0;editable=0;locked=1;connectable=0;" parent="KgeHwVZJBMbFdhlrKOKl-43" vertex="1">
          <mxGeometry y="210" width="190" height="30" as="geometry" />
        </mxCell>
        <mxCell id="KgeHwVZJBMbFdhlrKOKl-49" value="Write_Data" style="text;strokeColor=none;fillColor=none;align=left;verticalAlign=middle;spacingLeft=4;spacingRight=4;overflow=hidden;points=[[0,0.5],[1,0.5]];portConstraint=eastwest;rotatable=0;whiteSpace=wrap;html=1;rounded=1;labelBackgroundColor=none;movable=0;resizable=0;deletable=0;editable=0;locked=1;connectable=0;" parent="KgeHwVZJBMbFdhlrKOKl-43" vertex="1">
          <mxGeometry y="240" width="190" height="30" as="geometry" />
        </mxCell>
        <mxCell id="KgeHwVZJBMbFdhlrKOKl-50" value="Register_Write" style="text;strokeColor=none;fillColor=none;align=left;verticalAlign=middle;spacingLeft=4;spacingRight=4;overflow=hidden;points=[[0,0.5],[1,0.5]];portConstraint=eastwest;rotatable=0;whiteSpace=wrap;html=1;rounded=1;labelBackgroundColor=none;movable=0;resizable=0;deletable=0;editable=0;locked=1;connectable=0;" parent="KgeHwVZJBMbFdhlrKOKl-43" vertex="1">
          <mxGeometry y="270" width="190" height="30" as="geometry" />
        </mxCell>
        <mxCell id="KgeHwVZJBMbFdhlrKOKl-64" style="edgeStyle=orthogonalEdgeStyle;rounded=1;orthogonalLoop=1;jettySize=auto;html=1;exitX=0.5;exitY=0;exitDx=0;exitDy=0;exitPerimeter=0;entryX=0;entryY=0.5;entryDx=0;entryDy=0;labelBackgroundColor=none;fontColor=default;movable=0;resizable=0;rotatable=0;deletable=0;editable=0;locked=1;connectable=0;" parent="1" source="KgeHwVZJBMbFdhlrKOKl-51" target="KgeHwVZJBMbFdhlrKOKl-33" edge="1">
          <mxGeometry relative="1" as="geometry" />
        </mxCell>
        <mxCell id="KgeHwVZJBMbFdhlrKOKl-51" value="MUX" style="shape=trapezoid;perimeter=trapezoidPerimeter;whiteSpace=wrap;html=1;fixedSize=1;direction=south;points=[[0.12,0.5,0,0,0],[0.33,1,0,0,0],[0.5,0,0,0,0],[0.66,1,0,0,0],[0.88,0.5,0,0,0]];movable=0;resizable=0;rotatable=0;deletable=0;editable=0;locked=1;connectable=0;noLabel=0;fixDash=0;snapToPoint=0;rounded=1;labelBackgroundColor=none;" parent="1" vertex="1">
          <mxGeometry x="1000" y="425" width="40" height="80" as="geometry" />
        </mxCell>
        <mxCell id="KgeHwVZJBMbFdhlrKOKl-52" style="edgeStyle=orthogonalEdgeStyle;rounded=1;orthogonalLoop=1;jettySize=auto;html=1;exitX=1;exitY=0.5;exitDx=0;exitDy=0;entryX=0.33;entryY=1;entryDx=0;entryDy=0;entryPerimeter=0;labelBackgroundColor=none;fontColor=default;movable=0;resizable=0;rotatable=0;deletable=0;editable=0;locked=1;connectable=0;" parent="1" source="KgeHwVZJBMbFdhlrKOKl-47" target="KgeHwVZJBMbFdhlrKOKl-51" edge="1">
          <mxGeometry relative="1" as="geometry">
            <Array as="points">
              <mxPoint x="920" y="305" />
              <mxPoint x="920" y="451" />
            </Array>
          </mxGeometry>
        </mxCell>
        <mxCell id="KgeHwVZJBMbFdhlrKOKl-91" value="0" style="edgeLabel;html=1;align=center;verticalAlign=middle;resizable=0;points=[];rounded=1;labelBackgroundColor=none;movable=0;rotatable=0;deletable=0;editable=0;locked=1;connectable=0;" parent="KgeHwVZJBMbFdhlrKOKl-52" vertex="1" connectable="0">
          <mxGeometry relative="1" as="geometry">
            <mxPoint x="60" y="67" as="offset" />
          </mxGeometry>
        </mxCell>
        <mxCell id="KgeHwVZJBMbFdhlrKOKl-66" value="Immediate Number Generater" style="swimlane;fontStyle=0;childLayout=stackLayout;horizontal=1;startSize=30;horizontalStack=0;resizeParent=1;resizeParentMax=0;resizeLast=0;collapsible=1;marginBottom=0;whiteSpace=wrap;html=1;rounded=1;labelBackgroundColor=none;movable=0;resizable=0;rotatable=0;deletable=0;editable=0;locked=1;connectable=0;" parent="1" vertex="1">
          <mxGeometry x="590" y="560" width="270" height="150" as="geometry" />
        </mxCell>
        <mxCell id="hyGkmQSomK8qtLZX06fx-15" value="Instruction" style="text;strokeColor=none;fillColor=none;align=left;verticalAlign=middle;spacingLeft=4;spacingRight=4;overflow=hidden;points=[[0,0.5],[1,0.5]];portConstraint=eastwest;rotatable=0;whiteSpace=wrap;html=1;rounded=1;labelBackgroundColor=none;movable=0;resizable=0;deletable=0;editable=0;locked=1;connectable=0;" parent="KgeHwVZJBMbFdhlrKOKl-66" vertex="1">
          <mxGeometry y="30" width="270" height="30" as="geometry" />
        </mxCell>
        <mxCell id="KgeHwVZJBMbFdhlrKOKl-67" value="Immdiate_Number_to_Bus_Enable" style="text;strokeColor=none;fillColor=none;align=left;verticalAlign=middle;spacingLeft=4;spacingRight=4;overflow=hidden;points=[[0,0.5],[1,0.5]];portConstraint=eastwest;rotatable=0;whiteSpace=wrap;html=1;rounded=1;labelBackgroundColor=none;movable=0;resizable=0;deletable=0;editable=0;locked=1;connectable=0;" parent="KgeHwVZJBMbFdhlrKOKl-66" vertex="1">
          <mxGeometry y="60" width="270" height="30" as="geometry" />
        </mxCell>
        <mxCell id="hyGkmQSomK8qtLZX06fx-16" value="Immdiate_Number_to_Bus" style="text;strokeColor=none;fillColor=none;align=right;verticalAlign=middle;spacingLeft=4;spacingRight=4;overflow=hidden;points=[[0,0.5],[1,0.5]];portConstraint=eastwest;rotatable=0;whiteSpace=wrap;html=1;rounded=1;labelBackgroundColor=none;movable=0;resizable=0;deletable=0;editable=0;locked=1;connectable=0;" parent="KgeHwVZJBMbFdhlrKOKl-66" vertex="1">
          <mxGeometry y="90" width="270" height="30" as="geometry" />
        </mxCell>
        <mxCell id="KgeHwVZJBMbFdhlrKOKl-68" value="Immediate_Number" style="text;strokeColor=none;fillColor=none;align=right;verticalAlign=middle;spacingLeft=4;spacingRight=4;overflow=hidden;points=[[0,0.5],[1,0.5]];portConstraint=eastwest;rotatable=0;whiteSpace=wrap;html=1;rounded=1;labelBackgroundColor=none;movable=0;resizable=0;deletable=0;editable=0;locked=1;connectable=0;" parent="KgeHwVZJBMbFdhlrKOKl-66" vertex="1">
          <mxGeometry y="120" width="270" height="30" as="geometry" />
        </mxCell>
        <mxCell id="KgeHwVZJBMbFdhlrKOKl-70" value="Instruction_Register" style="swimlane;fontStyle=0;childLayout=stackLayout;horizontal=1;startSize=30;horizontalStack=0;resizeParent=1;resizeParentMax=0;resizeLast=0;collapsible=1;marginBottom=0;whiteSpace=wrap;html=1;rounded=1;labelBackgroundColor=none;movable=0;resizable=0;rotatable=0;deletable=0;editable=0;locked=1;connectable=0;" parent="1" vertex="1">
          <mxGeometry x="290" y="350" width="170" height="120" as="geometry" />
        </mxCell>
        <mxCell id="KgeHwVZJBMbFdhlrKOKl-71" value="Write_Enable" style="text;strokeColor=none;fillColor=none;align=left;verticalAlign=middle;spacingLeft=4;spacingRight=4;overflow=hidden;points=[[0,0.5],[1,0.5]];portConstraint=eastwest;rotatable=0;whiteSpace=wrap;html=1;rounded=1;labelBackgroundColor=none;movable=0;resizable=0;deletable=0;editable=0;locked=1;connectable=0;" parent="KgeHwVZJBMbFdhlrKOKl-70" vertex="1">
          <mxGeometry y="30" width="170" height="30" as="geometry" />
        </mxCell>
        <mxCell id="KgeHwVZJBMbFdhlrKOKl-72" value="In_Instruction" style="text;strokeColor=none;fillColor=none;align=left;verticalAlign=middle;spacingLeft=4;spacingRight=4;overflow=hidden;points=[[0,0.5],[1,0.5]];portConstraint=eastwest;rotatable=0;whiteSpace=wrap;html=1;rounded=1;labelBackgroundColor=none;movable=0;resizable=0;deletable=0;editable=0;locked=1;connectable=0;" parent="KgeHwVZJBMbFdhlrKOKl-70" vertex="1">
          <mxGeometry y="60" width="170" height="30" as="geometry" />
        </mxCell>
        <mxCell id="KgeHwVZJBMbFdhlrKOKl-73" value="Out_Instruction" style="text;strokeColor=none;fillColor=none;align=right;verticalAlign=middle;spacingLeft=4;spacingRight=4;overflow=hidden;points=[[0,0.5],[1,0.5]];portConstraint=eastwest;rotatable=0;whiteSpace=wrap;html=1;rounded=1;labelBackgroundColor=none;movable=0;resizable=0;deletable=0;editable=0;locked=1;connectable=0;" parent="KgeHwVZJBMbFdhlrKOKl-70" vertex="1">
          <mxGeometry y="90" width="170" height="30" as="geometry" />
        </mxCell>
        <mxCell id="KgeHwVZJBMbFdhlrKOKl-75" value="Program Counter" style="swimlane;fontStyle=0;childLayout=stackLayout;horizontal=1;startSize=30;horizontalStack=0;resizeParent=1;resizeParentMax=0;resizeLast=0;collapsible=1;marginBottom=0;whiteSpace=wrap;html=1;rounded=1;labelBackgroundColor=none;movable=0;resizable=0;rotatable=0;deletable=0;editable=0;locked=1;connectable=0;" parent="1" vertex="1">
          <mxGeometry x="-150" y="230" width="300" height="270" as="geometry" />
        </mxCell>
        <mxCell id="KgeHwVZJBMbFdhlrKOKl-76" value="rst" style="text;strokeColor=none;fillColor=none;align=left;verticalAlign=middle;spacingLeft=4;spacingRight=4;overflow=hidden;points=[[0,0.5],[1,0.5]];portConstraint=eastwest;rotatable=0;whiteSpace=wrap;html=1;rounded=1;labelBackgroundColor=none;movable=0;resizable=0;deletable=0;editable=0;locked=1;connectable=0;" parent="KgeHwVZJBMbFdhlrKOKl-75" vertex="1">
          <mxGeometry y="30" width="300" height="30" as="geometry" />
        </mxCell>
        <mxCell id="KgeHwVZJBMbFdhlrKOKl-77" value="Instruction_Address_to_Bus_Enable" style="text;strokeColor=none;fillColor=none;align=left;verticalAlign=middle;spacingLeft=4;spacingRight=4;overflow=hidden;points=[[0,0.5],[1,0.5]];portConstraint=eastwest;rotatable=0;whiteSpace=wrap;html=1;rounded=1;labelBackgroundColor=none;movable=0;resizable=0;deletable=0;editable=0;locked=1;connectable=0;" parent="KgeHwVZJBMbFdhlrKOKl-75" vertex="1">
          <mxGeometry y="60" width="300" height="30" as="geometry" />
        </mxCell>
        <mxCell id="KgeHwVZJBMbFdhlrKOKl-78" value="Next_Instruction" style="text;strokeColor=none;fillColor=none;align=left;verticalAlign=middle;spacingLeft=4;spacingRight=4;overflow=hidden;points=[[0,0.5],[1,0.5]];portConstraint=eastwest;rotatable=0;whiteSpace=wrap;html=1;rounded=1;labelBackgroundColor=none;movable=0;resizable=0;deletable=0;editable=0;locked=1;connectable=0;" parent="KgeHwVZJBMbFdhlrKOKl-75" vertex="1">
          <mxGeometry y="90" width="300" height="30" as="geometry" />
        </mxCell>
        <mxCell id="KgeHwVZJBMbFdhlrKOKl-79" value="Jump_Enable" style="text;strokeColor=none;fillColor=none;align=left;verticalAlign=middle;spacingLeft=4;spacingRight=4;overflow=hidden;points=[[0,0.5],[1,0.5]];portConstraint=eastwest;rotatable=0;whiteSpace=wrap;html=1;rounded=1;labelBackgroundColor=none;movable=0;resizable=0;deletable=0;editable=0;locked=1;connectable=0;" parent="KgeHwVZJBMbFdhlrKOKl-75" vertex="1">
          <mxGeometry y="120" width="300" height="30" as="geometry" />
        </mxCell>
        <mxCell id="KgeHwVZJBMbFdhlrKOKl-80" value="Branch_Enable" style="text;strokeColor=none;fillColor=none;align=left;verticalAlign=middle;spacingLeft=4;spacingRight=4;overflow=hidden;points=[[0,0.5],[1,0.5]];portConstraint=eastwest;rotatable=0;whiteSpace=wrap;html=1;rounded=1;labelBackgroundColor=none;movable=0;resizable=0;deletable=0;editable=0;locked=1;connectable=0;" parent="KgeHwVZJBMbFdhlrKOKl-75" vertex="1">
          <mxGeometry y="150" width="300" height="30" as="geometry" />
        </mxCell>
        <mxCell id="i2NthTAIH1iRgAQdDC14-22" value="In_Address" style="text;strokeColor=none;fillColor=none;align=left;verticalAlign=middle;spacingLeft=4;spacingRight=4;overflow=hidden;points=[[0,0.5],[1,0.5]];portConstraint=eastwest;rotatable=0;whiteSpace=wrap;html=1;rounded=1;labelBackgroundColor=none;movable=0;resizable=0;deletable=0;editable=0;locked=1;connectable=0;" parent="KgeHwVZJBMbFdhlrKOKl-75" vertex="1">
          <mxGeometry y="180" width="300" height="30" as="geometry" />
        </mxCell>
        <mxCell id="KgeHwVZJBMbFdhlrKOKl-81" value="Instruction_Address_to_Bus" style="text;strokeColor=none;fillColor=none;align=right;verticalAlign=middle;spacingLeft=4;spacingRight=4;overflow=hidden;points=[[0,0.5],[1,0.5]];portConstraint=eastwest;rotatable=0;whiteSpace=wrap;html=1;rounded=1;labelBackgroundColor=none;movable=0;resizable=0;deletable=0;editable=0;locked=1;connectable=0;" parent="KgeHwVZJBMbFdhlrKOKl-75" vertex="1">
          <mxGeometry y="210" width="300" height="30" as="geometry" />
        </mxCell>
        <mxCell id="KgeHwVZJBMbFdhlrKOKl-166" value="Instruction_Address" style="text;strokeColor=none;fillColor=none;align=right;verticalAlign=middle;spacingLeft=4;spacingRight=4;overflow=hidden;points=[[0,0.5],[1,0.5]];portConstraint=eastwest;rotatable=0;whiteSpace=wrap;html=1;rounded=1;labelBackgroundColor=none;movable=0;resizable=0;deletable=0;editable=0;locked=1;connectable=0;" parent="KgeHwVZJBMbFdhlrKOKl-75" vertex="1">
          <mxGeometry y="240" width="300" height="30" as="geometry" />
        </mxCell>
        <mxCell id="KgeHwVZJBMbFdhlrKOKl-82" value="Control Unit" style="swimlane;fontStyle=0;childLayout=stackLayout;horizontal=1;startSize=30;horizontalStack=0;resizeParent=1;resizeParentMax=0;resizeLast=0;collapsible=1;marginBottom=0;whiteSpace=wrap;html=1;rounded=1;labelBackgroundColor=none;movable=0;resizable=0;rotatable=0;deletable=0;editable=0;locked=1;connectable=0;" parent="1" vertex="1">
          <mxGeometry x="-220" y="-500.25" width="375" height="690" as="geometry" />
        </mxCell>
        <mxCell id="KgeHwVZJBMbFdhlrKOKl-83" value="CLK" style="text;strokeColor=none;fillColor=none;align=left;verticalAlign=middle;spacingLeft=4;spacingRight=4;overflow=hidden;points=[[0,0.5],[1,0.5]];portConstraint=eastwest;rotatable=0;whiteSpace=wrap;html=1;rounded=1;labelBackgroundColor=none;movable=0;resizable=0;deletable=0;editable=0;locked=1;connectable=0;" parent="KgeHwVZJBMbFdhlrKOKl-82" vertex="1">
          <mxGeometry y="30" width="375" height="30" as="geometry" />
        </mxCell>
        <mxCell id="KgeHwVZJBMbFdhlrKOKl-84" value="RST" style="text;strokeColor=none;fillColor=none;align=left;verticalAlign=middle;spacingLeft=4;spacingRight=4;overflow=hidden;points=[[0,0.5],[1,0.5]];portConstraint=eastwest;rotatable=0;whiteSpace=wrap;html=1;rounded=1;labelBackgroundColor=none;movable=0;resizable=0;deletable=0;editable=0;locked=1;connectable=0;" parent="KgeHwVZJBMbFdhlrKOKl-82" vertex="1">
          <mxGeometry y="60" width="375" height="30" as="geometry" />
        </mxCell>
        <mxCell id="OfWz-LO3dDgRt9f-FgG2-1" value="Mode_Signal" style="text;strokeColor=none;fillColor=none;align=left;verticalAlign=middle;spacingLeft=4;spacingRight=4;overflow=hidden;points=[[0,0.5],[1,0.5]];portConstraint=eastwest;rotatable=0;whiteSpace=wrap;html=1;rounded=1;labelBackgroundColor=none;movable=0;resizable=0;deletable=0;editable=0;locked=1;connectable=0;" parent="KgeHwVZJBMbFdhlrKOKl-82" vertex="1">
          <mxGeometry y="90" width="375" height="30" as="geometry" />
        </mxCell>
        <mxCell id="hyGkmQSomK8qtLZX06fx-18" value="Immdiate_Number_to_Bus_Enable" style="text;strokeColor=none;fillColor=none;align=right;verticalAlign=middle;spacingLeft=4;spacingRight=4;overflow=hidden;points=[[0,0.5],[1,0.5]];portConstraint=eastwest;rotatable=0;whiteSpace=wrap;html=1;rounded=1;labelBackgroundColor=none;movable=0;resizable=0;deletable=0;editable=0;locked=1;connectable=0;" parent="KgeHwVZJBMbFdhlrKOKl-82" vertex="1">
          <mxGeometry y="120" width="375" height="30" as="geometry" />
        </mxCell>
        <mxCell id="KgeHwVZJBMbFdhlrKOKl-192" value="Program_Counter_Instruction_Address_to_Bus_Enable" style="text;strokeColor=none;fillColor=none;align=right;verticalAlign=middle;spacingLeft=4;spacingRight=4;overflow=hidden;points=[[0,0.5],[1,0.5]];portConstraint=eastwest;rotatable=0;whiteSpace=wrap;html=1;rounded=1;labelBackgroundColor=none;movable=0;resizable=0;deletable=0;editable=0;locked=1;connectable=0;" parent="KgeHwVZJBMbFdhlrKOKl-82" vertex="1">
          <mxGeometry y="150" width="375" height="30" as="geometry" />
        </mxCell>
        <mxCell id="KgeHwVZJBMbFdhlrKOKl-191" value="Program_Counter_Next_Instruction" style="text;strokeColor=none;fillColor=none;align=right;verticalAlign=middle;spacingLeft=4;spacingRight=4;overflow=hidden;points=[[0,0.5],[1,0.5]];portConstraint=eastwest;rotatable=0;whiteSpace=wrap;html=1;rounded=1;labelBackgroundColor=none;movable=0;resizable=0;deletable=0;editable=0;locked=1;connectable=0;" parent="KgeHwVZJBMbFdhlrKOKl-82" vertex="1">
          <mxGeometry y="180" width="375" height="30" as="geometry" />
        </mxCell>
        <mxCell id="KgeHwVZJBMbFdhlrKOKl-142" value="Program_Counter_Jump_Enable" style="text;strokeColor=none;fillColor=none;align=right;verticalAlign=middle;spacingLeft=4;spacingRight=4;overflow=hidden;points=[[0,0.5],[1,0.5]];portConstraint=eastwest;rotatable=0;whiteSpace=wrap;html=1;rounded=1;labelBackgroundColor=none;movable=0;resizable=0;deletable=0;editable=0;locked=1;connectable=0;" parent="KgeHwVZJBMbFdhlrKOKl-82" vertex="1">
          <mxGeometry y="210" width="375" height="30" as="geometry" />
        </mxCell>
        <mxCell id="KgeHwVZJBMbFdhlrKOKl-141" value="Program_Counter_Branch_Enable" style="text;strokeColor=none;fillColor=none;align=right;verticalAlign=middle;spacingLeft=4;spacingRight=4;overflow=hidden;points=[[0,0.5],[1,0.5]];portConstraint=eastwest;rotatable=0;whiteSpace=wrap;html=1;rounded=1;labelBackgroundColor=none;movable=0;resizable=0;deletable=0;editable=0;locked=1;connectable=0;" parent="KgeHwVZJBMbFdhlrKOKl-82" vertex="1">
          <mxGeometry y="240" width="375" height="30" as="geometry" />
        </mxCell>
        <mxCell id="hyGkmQSomK8qtLZX06fx-31" value="Arithmetic_Logic_Unit_funct3" style="text;strokeColor=none;fillColor=none;align=right;verticalAlign=middle;spacingLeft=4;spacingRight=4;overflow=hidden;points=[[0,0.5],[1,0.5]];portConstraint=eastwest;rotatable=0;whiteSpace=wrap;html=1;rounded=1;labelBackgroundColor=none;movable=0;resizable=0;deletable=0;editable=0;locked=1;connectable=0;" parent="KgeHwVZJBMbFdhlrKOKl-82" vertex="1">
          <mxGeometry y="270" width="375" height="30" as="geometry" />
        </mxCell>
        <mxCell id="hyGkmQSomK8qtLZX06fx-30" value="Arithmetic_Logic_Unit_funct7" style="text;strokeColor=none;fillColor=none;align=right;verticalAlign=middle;spacingLeft=4;spacingRight=4;overflow=hidden;points=[[0,0.5],[1,0.5]];portConstraint=eastwest;rotatable=0;whiteSpace=wrap;html=1;rounded=1;labelBackgroundColor=none;movable=0;resizable=0;deletable=0;editable=0;locked=1;connectable=0;" parent="KgeHwVZJBMbFdhlrKOKl-82" vertex="1">
          <mxGeometry y="300" width="375" height="30" as="geometry" />
        </mxCell>
        <mxCell id="KgeHwVZJBMbFdhlrKOKl-123" value="Arithmetic_Logic_Unit_result_as_address_Enable" style="text;strokeColor=none;fillColor=none;align=right;verticalAlign=middle;spacingLeft=4;spacingRight=4;overflow=hidden;points=[[0,0.5],[1,0.5]];portConstraint=eastwest;rotatable=0;whiteSpace=wrap;html=1;rounded=1;labelBackgroundColor=none;movable=0;resizable=0;deletable=0;editable=0;locked=1;connectable=0;" parent="KgeHwVZJBMbFdhlrKOKl-82" vertex="1">
          <mxGeometry y="330" width="375" height="30" as="geometry" />
        </mxCell>
        <mxCell id="KgeHwVZJBMbFdhlrKOKl-164" value="Arithmetic_Logic_Unit_result_Enable" style="text;strokeColor=none;fillColor=none;align=right;verticalAlign=middle;spacingLeft=4;spacingRight=4;overflow=hidden;points=[[0,0.5],[1,0.5]];portConstraint=eastwest;rotatable=0;whiteSpace=wrap;html=1;rounded=1;labelBackgroundColor=none;movable=0;resizable=0;deletable=0;editable=0;locked=1;connectable=0;" parent="KgeHwVZJBMbFdhlrKOKl-82" vertex="1">
          <mxGeometry y="360" width="375" height="30" as="geometry" />
        </mxCell>
        <mxCell id="KgeHwVZJBMbFdhlrKOKl-158" value="Arithmetic_Logic_Unit_operand1_Instruction_Address" style="text;strokeColor=none;fillColor=none;align=right;verticalAlign=middle;spacingLeft=4;spacingRight=4;overflow=hidden;points=[[0,0.5],[1,0.5]];portConstraint=eastwest;rotatable=0;whiteSpace=wrap;html=1;rounded=1;labelBackgroundColor=none;movable=0;resizable=0;deletable=0;editable=0;locked=1;connectable=0;" parent="KgeHwVZJBMbFdhlrKOKl-82" vertex="1">
          <mxGeometry y="390" width="375" height="30" as="geometry" />
        </mxCell>
        <mxCell id="KgeHwVZJBMbFdhlrKOKl-132" value="Arithmetic_Logic_Unit_operand2_Immediate_number" style="text;strokeColor=none;fillColor=none;align=right;verticalAlign=middle;spacingLeft=4;spacingRight=4;overflow=hidden;points=[[0,0.5],[1,0.5]];portConstraint=eastwest;rotatable=0;whiteSpace=wrap;html=1;rounded=1;labelBackgroundColor=none;movable=0;resizable=0;deletable=0;editable=0;locked=1;connectable=0;" parent="KgeHwVZJBMbFdhlrKOKl-82" vertex="1">
          <mxGeometry y="420" width="375" height="30" as="geometry" />
        </mxCell>
        <mxCell id="i2NthTAIH1iRgAQdDC14-2" value="General_Register_Read_Data_2_to_Bus_Enable" style="text;strokeColor=none;fillColor=none;align=right;verticalAlign=middle;spacingLeft=4;spacingRight=4;overflow=hidden;points=[[0,0.5],[1,0.5]];portConstraint=eastwest;rotatable=0;whiteSpace=wrap;html=1;rounded=1;labelBackgroundColor=none;movable=0;resizable=0;deletable=0;editable=0;locked=1;connectable=0;" parent="KgeHwVZJBMbFdhlrKOKl-82" vertex="1">
          <mxGeometry y="450" width="375" height="30" as="geometry" />
        </mxCell>
        <mxCell id="KgeHwVZJBMbFdhlrKOKl-121" value="General_Register_Write" style="text;strokeColor=none;fillColor=none;align=right;verticalAlign=middle;spacingLeft=4;spacingRight=4;overflow=hidden;points=[[0,0.5],[1,0.5]];portConstraint=eastwest;rotatable=0;whiteSpace=wrap;html=1;rounded=1;labelBackgroundColor=none;movable=0;resizable=0;deletable=0;editable=0;locked=1;connectable=0;" parent="KgeHwVZJBMbFdhlrKOKl-82" vertex="1">
          <mxGeometry y="480" width="375" height="30" as="geometry" />
        </mxCell>
        <mxCell id="hyGkmQSomK8qtLZX06fx-43" value="General_Register_Store_Address" style="text;strokeColor=none;fillColor=none;align=right;verticalAlign=middle;spacingLeft=4;spacingRight=4;overflow=hidden;points=[[0,0.5],[1,0.5]];portConstraint=eastwest;rotatable=0;whiteSpace=wrap;html=1;rounded=1;labelBackgroundColor=none;movable=0;resizable=0;deletable=0;editable=0;locked=1;connectable=0;" parent="KgeHwVZJBMbFdhlrKOKl-82" vertex="1">
          <mxGeometry y="510" width="375" height="30" as="geometry" />
        </mxCell>
        <mxCell id="hyGkmQSomK8qtLZX06fx-47" value="General_Register_Store_Pop_Temp" style="text;strokeColor=none;fillColor=none;align=right;verticalAlign=middle;spacingLeft=4;spacingRight=4;overflow=hidden;points=[[0,0.5],[1,0.5]];portConstraint=eastwest;rotatable=0;whiteSpace=wrap;html=1;rounded=1;labelBackgroundColor=none;movable=0;resizable=0;deletable=0;editable=0;locked=1;connectable=0;" parent="KgeHwVZJBMbFdhlrKOKl-82" vertex="1">
          <mxGeometry y="540" width="375" height="30" as="geometry" />
        </mxCell>
        <mxCell id="KgeHwVZJBMbFdhlrKOKl-134" value="Instruction_Register_Write_Enable" style="text;strokeColor=none;fillColor=none;align=right;verticalAlign=middle;spacingLeft=4;spacingRight=4;overflow=hidden;points=[[0,0.5],[1,0.5]];portConstraint=eastwest;rotatable=0;whiteSpace=wrap;html=1;rounded=1;labelBackgroundColor=none;movable=0;resizable=0;deletable=0;editable=0;locked=1;connectable=0;" parent="KgeHwVZJBMbFdhlrKOKl-82" vertex="1">
          <mxGeometry y="570" width="375" height="30" as="geometry" />
        </mxCell>
        <mxCell id="KgeHwVZJBMbFdhlrKOKl-118" value="Program_Counter_rst" style="text;strokeColor=none;fillColor=none;align=right;verticalAlign=middle;spacingLeft=4;spacingRight=4;overflow=hidden;points=[[0,0.5],[1,0.5]];portConstraint=eastwest;rotatable=0;whiteSpace=wrap;html=1;rounded=1;labelBackgroundColor=none;movable=0;resizable=0;deletable=0;editable=0;locked=1;connectable=0;" parent="KgeHwVZJBMbFdhlrKOKl-82" vertex="1">
          <mxGeometry y="600" width="375" height="30" as="geometry" />
        </mxCell>
        <mxCell id="KgeHwVZJBMbFdhlrKOKl-185" value="Return_Address_Stack_pop_Enable" style="text;strokeColor=none;fillColor=none;align=right;verticalAlign=middle;spacingLeft=4;spacingRight=4;overflow=hidden;points=[[0,0.5],[1,0.5]];portConstraint=eastwest;rotatable=0;whiteSpace=wrap;html=1;rounded=1;labelBackgroundColor=none;movable=0;resizable=0;deletable=0;editable=0;locked=1;connectable=0;" parent="KgeHwVZJBMbFdhlrKOKl-82" vertex="1">
          <mxGeometry y="630" width="375" height="30" as="geometry" />
        </mxCell>
        <mxCell id="KgeHwVZJBMbFdhlrKOKl-186" value="Return_Address_Stack_push_Enable" style="text;strokeColor=none;fillColor=none;align=right;verticalAlign=middle;spacingLeft=4;spacingRight=4;overflow=hidden;points=[[0,0.5],[1,0.5]];portConstraint=eastwest;rotatable=0;whiteSpace=wrap;html=1;rounded=1;labelBackgroundColor=none;movable=0;resizable=0;deletable=0;editable=0;locked=1;connectable=0;" parent="KgeHwVZJBMbFdhlrKOKl-82" vertex="1">
          <mxGeometry y="660" width="375" height="30" as="geometry" />
        </mxCell>
        <mxCell id="KgeHwVZJBMbFdhlrKOKl-86" style="edgeStyle=orthogonalEdgeStyle;rounded=1;orthogonalLoop=1;jettySize=auto;html=1;exitX=1;exitY=0.5;exitDx=0;exitDy=0;entryX=0.66;entryY=1;entryDx=0;entryDy=0;entryPerimeter=0;labelBackgroundColor=none;fontColor=default;movable=0;resizable=0;rotatable=0;deletable=0;editable=0;locked=1;connectable=0;" parent="1" source="KgeHwVZJBMbFdhlrKOKl-68" target="KgeHwVZJBMbFdhlrKOKl-51" edge="1">
          <mxGeometry relative="1" as="geometry">
            <mxPoint x="1470" y="380" as="targetPoint" />
            <Array as="points">
              <mxPoint x="920" y="695" />
              <mxPoint x="920" y="478" />
            </Array>
          </mxGeometry>
        </mxCell>
        <mxCell id="KgeHwVZJBMbFdhlrKOKl-90" value="1" style="edgeLabel;html=1;align=center;verticalAlign=middle;resizable=0;points=[];rounded=1;labelBackgroundColor=none;movable=0;rotatable=0;deletable=0;editable=0;locked=1;connectable=0;" parent="KgeHwVZJBMbFdhlrKOKl-86" vertex="1" connectable="0">
          <mxGeometry x="0.8496" y="1" relative="1" as="geometry">
            <mxPoint x="5" y="3" as="offset" />
          </mxGeometry>
        </mxCell>
        <mxCell id="KgeHwVZJBMbFdhlrKOKl-106" style="edgeStyle=orthogonalEdgeStyle;rounded=1;orthogonalLoop=1;jettySize=auto;html=1;exitX=1;exitY=0.5;exitDx=0;exitDy=0;labelBackgroundColor=none;fontColor=default;entryX=0.33;entryY=1;entryDx=0;entryDy=0;entryPerimeter=0;movable=0;resizable=0;rotatable=0;deletable=0;editable=0;locked=1;connectable=0;" parent="1" source="KgeHwVZJBMbFdhlrKOKl-73" target="KgeHwVZJBMbFdhlrKOKl-175" edge="1">
          <mxGeometry relative="1" as="geometry">
            <mxPoint x="590" y="320" as="targetPoint" />
            <Array as="points">
              <mxPoint x="540" y="455" />
              <mxPoint x="540" y="336" />
              <mxPoint x="600" y="336" />
            </Array>
          </mxGeometry>
        </mxCell>
        <mxCell id="KgeHwVZJBMbFdhlrKOKl-113" value="[11:7]" style="edgeLabel;html=1;align=center;verticalAlign=middle;resizable=0;points=[];labelBackgroundColor=none;rounded=1;movable=0;rotatable=0;deletable=0;editable=0;locked=1;connectable=0;" parent="KgeHwVZJBMbFdhlrKOKl-106" vertex="1" connectable="0">
          <mxGeometry x="0.8098" y="-1" relative="1" as="geometry">
            <mxPoint x="-15" y="-2" as="offset" />
          </mxGeometry>
        </mxCell>
        <mxCell id="i2NthTAIH1iRgAQdDC14-6" value="0" style="edgeLabel;html=1;align=center;verticalAlign=middle;resizable=0;points=[];movable=0;rotatable=0;deletable=0;editable=0;locked=1;connectable=0;rounded=1;labelBackgroundColor=none;" parent="KgeHwVZJBMbFdhlrKOKl-106" vertex="1" connectable="0">
          <mxGeometry x="0.8847" relative="1" as="geometry">
            <mxPoint as="offset" />
          </mxGeometry>
        </mxCell>
        <mxCell id="KgeHwVZJBMbFdhlrKOKl-108" style="edgeStyle=orthogonalEdgeStyle;rounded=1;orthogonalLoop=1;jettySize=auto;html=1;exitX=1;exitY=0.5;exitDx=0;exitDy=0;labelBackgroundColor=none;fontColor=default;entryX=0;entryY=0.5;entryDx=0;entryDy=0;movable=0;resizable=0;rotatable=0;deletable=0;editable=0;locked=1;connectable=0;" parent="1" source="KgeHwVZJBMbFdhlrKOKl-73" target="hyGkmQSomK8qtLZX06fx-15" edge="1">
          <mxGeometry relative="1" as="geometry">
            <Array as="points">
              <mxPoint x="540" y="455" />
              <mxPoint x="540" y="605" />
            </Array>
          </mxGeometry>
        </mxCell>
        <mxCell id="KgeHwVZJBMbFdhlrKOKl-109" style="edgeStyle=orthogonalEdgeStyle;rounded=1;orthogonalLoop=1;jettySize=auto;html=1;exitX=1;exitY=0.5;exitDx=0;exitDy=0;labelBackgroundColor=none;fontColor=default;movable=0;resizable=0;rotatable=0;deletable=0;editable=0;locked=1;connectable=0;" parent="1" source="KgeHwVZJBMbFdhlrKOKl-73" target="KgeHwVZJBMbFdhlrKOKl-46" edge="1">
          <mxGeometry relative="1" as="geometry">
            <Array as="points">
              <mxPoint x="540" y="455" />
              <mxPoint x="540" y="275" />
            </Array>
          </mxGeometry>
        </mxCell>
        <mxCell id="KgeHwVZJBMbFdhlrKOKl-112" value="[24:20]" style="edgeLabel;html=1;align=center;verticalAlign=middle;resizable=0;points=[];labelBackgroundColor=none;rounded=1;movable=0;rotatable=0;deletable=0;editable=0;locked=1;connectable=0;" parent="KgeHwVZJBMbFdhlrKOKl-109" vertex="1" connectable="0">
          <mxGeometry x="0.8729" y="-1" relative="1" as="geometry">
            <mxPoint x="-6" y="-1" as="offset" />
          </mxGeometry>
        </mxCell>
        <mxCell id="KgeHwVZJBMbFdhlrKOKl-110" style="edgeStyle=orthogonalEdgeStyle;rounded=1;orthogonalLoop=1;jettySize=auto;html=1;exitX=1;exitY=0.5;exitDx=0;exitDy=0;labelBackgroundColor=none;fontColor=default;movable=0;resizable=0;rotatable=0;deletable=0;editable=0;locked=1;connectable=0;" parent="1" source="KgeHwVZJBMbFdhlrKOKl-73" target="KgeHwVZJBMbFdhlrKOKl-44" edge="1">
          <mxGeometry relative="1" as="geometry">
            <Array as="points">
              <mxPoint x="540" y="455" />
              <mxPoint x="540" y="215" />
            </Array>
          </mxGeometry>
        </mxCell>
        <mxCell id="KgeHwVZJBMbFdhlrKOKl-111" value="[19:15]" style="edgeLabel;html=1;align=center;verticalAlign=middle;resizable=0;points=[];labelBackgroundColor=none;rounded=1;movable=0;rotatable=0;deletable=0;editable=0;locked=1;connectable=0;" parent="KgeHwVZJBMbFdhlrKOKl-110" vertex="1" connectable="0">
          <mxGeometry x="0.8877" y="-1" relative="1" as="geometry">
            <mxPoint x="-5" y="-1" as="offset" />
          </mxGeometry>
        </mxCell>
        <mxCell id="KgeHwVZJBMbFdhlrKOKl-115" style="edgeStyle=orthogonalEdgeStyle;rounded=1;orthogonalLoop=1;jettySize=auto;html=1;exitX=1;exitY=0.5;exitDx=0;exitDy=0;labelBackgroundColor=none;fontColor=default;movable=0;resizable=0;rotatable=0;deletable=0;editable=0;locked=1;connectable=0;entryX=0.725;entryY=0.848;entryDx=0;entryDy=0;entryPerimeter=0;" parent="1" source="KgeHwVZJBMbFdhlrKOKl-34" target="KgeHwVZJBMbFdhlrKOKl-24" edge="1">
          <mxGeometry relative="1" as="geometry">
            <mxPoint x="1390" y="710" as="targetPoint" />
            <Array as="points">
              <mxPoint x="1339" y="380" />
              <mxPoint x="1339" y="710" />
              <mxPoint x="1338" y="710" />
            </Array>
          </mxGeometry>
        </mxCell>
        <mxCell id="KgeHwVZJBMbFdhlrKOKl-120" style="edgeStyle=orthogonalEdgeStyle;rounded=1;orthogonalLoop=1;jettySize=auto;html=1;exitX=1;exitY=0.5;exitDx=0;exitDy=0;entryX=0;entryY=0.5;entryDx=0;entryDy=0;labelBackgroundColor=none;fontColor=default;movable=0;resizable=0;rotatable=0;deletable=0;editable=0;locked=1;connectable=0;" parent="1" source="KgeHwVZJBMbFdhlrKOKl-118" target="KgeHwVZJBMbFdhlrKOKl-76" edge="1">
          <mxGeometry relative="1" as="geometry">
            <Array as="points">
              <mxPoint x="170" y="115" />
              <mxPoint x="170" y="220" />
              <mxPoint x="-180" y="220" />
              <mxPoint x="-180" y="275" />
            </Array>
          </mxGeometry>
        </mxCell>
        <mxCell id="KgeHwVZJBMbFdhlrKOKl-122" style="edgeStyle=orthogonalEdgeStyle;rounded=1;orthogonalLoop=1;jettySize=auto;html=1;exitX=1;exitY=0.5;exitDx=0;exitDy=0;labelBackgroundColor=none;fontColor=default;entryX=0;entryY=0.5;entryDx=0;entryDy=0;movable=0;resizable=0;rotatable=0;deletable=0;editable=0;locked=1;connectable=0;" parent="1" source="KgeHwVZJBMbFdhlrKOKl-121" target="KgeHwVZJBMbFdhlrKOKl-50" edge="1">
          <mxGeometry relative="1" as="geometry">
            <mxPoint x="650" y="390" as="targetPoint" />
            <Array as="points">
              <mxPoint x="520" y="-5" />
              <mxPoint x="520" y="550" />
              <mxPoint x="660" y="550" />
              <mxPoint x="660" y="455" />
            </Array>
          </mxGeometry>
        </mxCell>
        <mxCell id="KgeHwVZJBMbFdhlrKOKl-125" style="edgeStyle=orthogonalEdgeStyle;rounded=1;orthogonalLoop=1;jettySize=auto;html=1;entryX=0;entryY=0.5;entryDx=0;entryDy=0;labelBackgroundColor=none;fontColor=default;exitX=1;exitY=0.5;exitDx=0;exitDy=0;movable=0;resizable=0;rotatable=0;deletable=0;editable=0;locked=1;connectable=0;" parent="1" source="KgeHwVZJBMbFdhlrKOKl-164" target="KgeHwVZJBMbFdhlrKOKl-114" edge="1">
          <mxGeometry relative="1" as="geometry">
            <mxPoint x="200" y="-150" as="sourcePoint" />
            <Array as="points">
              <mxPoint x="1060" y="-125" />
              <mxPoint x="1060" y="230" />
            </Array>
          </mxGeometry>
        </mxCell>
        <mxCell id="KgeHwVZJBMbFdhlrKOKl-133" style="edgeStyle=orthogonalEdgeStyle;rounded=1;orthogonalLoop=1;jettySize=auto;html=1;exitX=1;exitY=0.5;exitDx=0;exitDy=0;entryX=0.88;entryY=0.5;entryDx=0;entryDy=0;entryPerimeter=0;labelBackgroundColor=none;fontColor=default;movable=0;resizable=0;rotatable=0;deletable=0;editable=0;locked=1;connectable=0;" parent="1" source="KgeHwVZJBMbFdhlrKOKl-132" target="KgeHwVZJBMbFdhlrKOKl-51" edge="1">
          <mxGeometry relative="1" as="geometry">
            <Array as="points">
              <mxPoint x="970" y="-65" />
              <mxPoint x="970" y="520" />
              <mxPoint x="1020" y="520" />
            </Array>
          </mxGeometry>
        </mxCell>
        <mxCell id="KgeHwVZJBMbFdhlrKOKl-135" style="edgeStyle=orthogonalEdgeStyle;rounded=1;orthogonalLoop=1;jettySize=auto;html=1;exitX=1;exitY=0.5;exitDx=0;exitDy=0;entryX=0;entryY=0.5;entryDx=0;entryDy=0;labelBackgroundColor=none;fontColor=default;movable=0;resizable=0;rotatable=0;deletable=0;editable=0;locked=1;connectable=0;" parent="1" source="KgeHwVZJBMbFdhlrKOKl-134" target="KgeHwVZJBMbFdhlrKOKl-71" edge="1">
          <mxGeometry relative="1" as="geometry">
            <Array as="points">
              <mxPoint x="210" y="85" />
              <mxPoint x="210" y="395" />
            </Array>
          </mxGeometry>
        </mxCell>
        <mxCell id="KgeHwVZJBMbFdhlrKOKl-145" style="edgeStyle=orthogonalEdgeStyle;rounded=1;orthogonalLoop=1;jettySize=auto;html=1;exitX=1;exitY=0.5;exitDx=0;exitDy=0;exitPerimeter=0;fontFamily=Helvetica;fontSize=11;fontColor=default;entryX=0;entryY=0.5;entryDx=0;entryDy=0;movable=0;resizable=0;rotatable=0;deletable=0;editable=0;locked=1;connectable=0;labelBackgroundColor=none;" parent="1" source="KgeHwVZJBMbFdhlrKOKl-139" target="KgeHwVZJBMbFdhlrKOKl-80" edge="1">
          <mxGeometry relative="1" as="geometry">
            <mxPoint x="120" y="-350" as="targetPoint" />
            <Array as="points">
              <mxPoint x="1530" y="-230" />
              <mxPoint x="1530" y="-620" />
              <mxPoint x="-310" y="-620" />
              <mxPoint x="-310" y="395" />
            </Array>
          </mxGeometry>
        </mxCell>
        <mxCell id="KgeHwVZJBMbFdhlrKOKl-139" value="" style="verticalLabelPosition=bottom;shadow=0;dashed=0;align=center;html=1;verticalAlign=top;shape=mxgraph.electrical.logic_gates.logic_gate;operation=and;rounded=1;labelBackgroundColor=none;fontFamily=Helvetica;fontSize=11;fillColor=none;movable=0;resizable=0;rotatable=0;deletable=0;editable=0;locked=1;connectable=0;" parent="1" vertex="1">
          <mxGeometry x="1410" y="-260.25" width="100" height="60" as="geometry" />
        </mxCell>
        <mxCell id="KgeHwVZJBMbFdhlrKOKl-143" style="edgeStyle=orthogonalEdgeStyle;rounded=1;orthogonalLoop=1;jettySize=auto;html=1;exitX=1;exitY=0.5;exitDx=0;exitDy=0;fontFamily=Helvetica;fontSize=11;fontColor=default;entryX=0;entryY=0.25;entryDx=0;entryDy=0;entryPerimeter=0;movable=0;resizable=0;rotatable=0;deletable=0;editable=0;locked=1;connectable=0;labelBackgroundColor=none;" parent="1" source="KgeHwVZJBMbFdhlrKOKl-141" target="KgeHwVZJBMbFdhlrKOKl-139" edge="1">
          <mxGeometry relative="1" as="geometry">
            <mxPoint x="820" y="-140" as="targetPoint" />
            <Array as="points">
              <mxPoint x="1410" y="-245" />
            </Array>
          </mxGeometry>
        </mxCell>
        <mxCell id="KgeHwVZJBMbFdhlrKOKl-144" style="edgeStyle=orthogonalEdgeStyle;rounded=1;orthogonalLoop=1;jettySize=auto;html=1;exitX=1;exitY=0.5;exitDx=0;exitDy=0;entryX=0;entryY=0.75;entryDx=0;entryDy=0;entryPerimeter=0;fontFamily=Helvetica;fontSize=11;fontColor=default;movable=0;resizable=0;rotatable=0;deletable=0;editable=0;locked=1;connectable=0;labelBackgroundColor=none;" parent="1" source="KgeHwVZJBMbFdhlrKOKl-35" target="KgeHwVZJBMbFdhlrKOKl-139" edge="1">
          <mxGeometry relative="1" as="geometry" />
        </mxCell>
        <mxCell id="KgeHwVZJBMbFdhlrKOKl-146" style="edgeStyle=orthogonalEdgeStyle;rounded=1;orthogonalLoop=1;jettySize=auto;html=1;exitX=1;exitY=0.5;exitDx=0;exitDy=0;entryX=0;entryY=0.5;entryDx=0;entryDy=0;fontFamily=Helvetica;fontSize=11;fontColor=default;movable=0;resizable=0;rotatable=0;deletable=0;editable=0;locked=1;connectable=0;labelBackgroundColor=none;" parent="1" source="KgeHwVZJBMbFdhlrKOKl-142" target="KgeHwVZJBMbFdhlrKOKl-79" edge="1">
          <mxGeometry relative="1" as="geometry">
            <Array as="points">
              <mxPoint x="190" y="-275" />
              <mxPoint x="190" y="210" />
              <mxPoint x="-220" y="210" />
              <mxPoint x="-220" y="365" />
            </Array>
          </mxGeometry>
        </mxCell>
        <mxCell id="KgeHwVZJBMbFdhlrKOKl-149" style="edgeStyle=orthogonalEdgeStyle;shape=connector;rounded=1;orthogonalLoop=1;jettySize=auto;html=1;exitX=1;exitY=0.5;exitDx=0;exitDy=0;labelBackgroundColor=none;align=center;verticalAlign=middle;fontFamily=Helvetica;fontSize=11;fontColor=default;endArrow=classic;movable=0;resizable=0;rotatable=0;deletable=0;editable=0;locked=1;connectable=0;entryX=0.834;entryY=0.62;entryDx=0;entryDy=0;entryPerimeter=0;" parent="1" source="KgeHwVZJBMbFdhlrKOKl-147" target="KgeHwVZJBMbFdhlrKOKl-24" edge="1">
          <mxGeometry relative="1" as="geometry">
            <mxPoint x="870" y="720" as="targetPoint" />
            <Array as="points">
              <mxPoint x="880" y="365" />
            </Array>
          </mxGeometry>
        </mxCell>
        <mxCell id="KgeHwVZJBMbFdhlrKOKl-152" style="edgeStyle=orthogonalEdgeStyle;shape=connector;rounded=1;orthogonalLoop=1;jettySize=auto;html=1;exitX=0.5;exitY=0;exitDx=0;exitDy=0;exitPerimeter=0;entryX=0;entryY=0.5;entryDx=0;entryDy=0;labelBackgroundColor=none;align=center;verticalAlign=middle;fontFamily=Helvetica;fontSize=11;fontColor=default;endArrow=classic;movable=0;resizable=0;rotatable=0;deletable=0;editable=0;locked=1;connectable=0;" parent="1" source="KgeHwVZJBMbFdhlrKOKl-150" target="KgeHwVZJBMbFdhlrKOKl-32" edge="1">
          <mxGeometry relative="1" as="geometry" />
        </mxCell>
        <mxCell id="KgeHwVZJBMbFdhlrKOKl-150" value="MUX" style="shape=trapezoid;perimeter=trapezoidPerimeter;whiteSpace=wrap;html=1;fixedSize=1;direction=south;points=[[0.12,0.5,0,0,0],[0.33,1,0,0,0],[0.5,0,0,0,0],[0.66,1,0,0,0],[0.88,0.5,0,0,0]];movable=0;resizable=0;rotatable=0;deletable=0;editable=0;locked=1;connectable=0;noLabel=0;fixDash=0;snapToPoint=0;rounded=1;labelBackgroundColor=none;" parent="1" vertex="1">
          <mxGeometry x="1000" y="295" width="40" height="80" as="geometry" />
        </mxCell>
        <mxCell id="KgeHwVZJBMbFdhlrKOKl-153" style="edgeStyle=orthogonalEdgeStyle;shape=connector;rounded=1;orthogonalLoop=1;jettySize=auto;html=1;exitX=1;exitY=0.5;exitDx=0;exitDy=0;entryX=0.33;entryY=1;entryDx=0;entryDy=0;entryPerimeter=0;labelBackgroundColor=none;align=center;verticalAlign=middle;fontFamily=Helvetica;fontSize=11;fontColor=default;endArrow=classic;movable=0;resizable=0;rotatable=0;deletable=0;editable=0;locked=1;connectable=0;" parent="1" source="KgeHwVZJBMbFdhlrKOKl-45" target="KgeHwVZJBMbFdhlrKOKl-150" edge="1">
          <mxGeometry relative="1" as="geometry">
            <Array as="points">
              <mxPoint x="940" y="245" />
              <mxPoint x="940" y="321" />
            </Array>
          </mxGeometry>
        </mxCell>
        <mxCell id="KgeHwVZJBMbFdhlrKOKl-157" value="0" style="edgeLabel;html=1;align=center;verticalAlign=middle;resizable=0;points=[];fontSize=11;fontFamily=Helvetica;rounded=1;movable=0;rotatable=0;deletable=0;editable=0;locked=1;connectable=0;labelBackgroundColor=none;" parent="KgeHwVZJBMbFdhlrKOKl-153" vertex="1" connectable="0">
          <mxGeometry x="0.8624" y="1" relative="1" as="geometry">
            <mxPoint x="-4" as="offset" />
          </mxGeometry>
        </mxCell>
        <mxCell id="KgeHwVZJBMbFdhlrKOKl-155" style="edgeStyle=orthogonalEdgeStyle;shape=connector;rounded=1;orthogonalLoop=1;jettySize=auto;html=1;exitX=1;exitY=0.5;exitDx=0;exitDy=0;labelBackgroundColor=none;align=center;verticalAlign=middle;fontFamily=Helvetica;fontSize=11;fontColor=default;endArrow=classic;entryX=0.66;entryY=1;entryDx=0;entryDy=0;entryPerimeter=0;movable=0;resizable=0;rotatable=0;deletable=0;editable=0;locked=1;connectable=0;" parent="1" source="KgeHwVZJBMbFdhlrKOKl-166" target="KgeHwVZJBMbFdhlrKOKl-150" edge="1">
          <mxGeometry relative="1" as="geometry">
            <mxPoint x="220" y="580" as="targetPoint" />
            <Array as="points">
              <mxPoint x="180" y="485" />
              <mxPoint x="180" y="730" />
              <mxPoint x="940" y="730" />
              <mxPoint x="940" y="348" />
            </Array>
          </mxGeometry>
        </mxCell>
        <mxCell id="KgeHwVZJBMbFdhlrKOKl-156" value="1" style="edgeLabel;html=1;align=center;verticalAlign=middle;resizable=0;points=[];fontSize=11;fontFamily=Helvetica;rounded=1;movable=0;rotatable=0;deletable=0;editable=0;locked=1;connectable=0;labelBackgroundColor=none;" parent="KgeHwVZJBMbFdhlrKOKl-155" vertex="1" connectable="0">
          <mxGeometry x="0.9734" relative="1" as="geometry">
            <mxPoint x="-3" y="2" as="offset" />
          </mxGeometry>
        </mxCell>
        <mxCell id="KgeHwVZJBMbFdhlrKOKl-159" style="edgeStyle=orthogonalEdgeStyle;shape=connector;rounded=1;orthogonalLoop=1;jettySize=auto;html=1;exitX=1;exitY=0.5;exitDx=0;exitDy=0;labelBackgroundColor=none;align=center;verticalAlign=middle;fontFamily=Helvetica;fontSize=11;fontColor=default;endArrow=classic;entryX=0.88;entryY=0.5;entryDx=0;entryDy=0;entryPerimeter=0;movable=0;resizable=0;rotatable=0;deletable=0;editable=0;locked=1;connectable=0;" parent="1" source="KgeHwVZJBMbFdhlrKOKl-158" target="KgeHwVZJBMbFdhlrKOKl-150" edge="1">
          <mxGeometry relative="1" as="geometry">
            <mxPoint x="1150" y="-95" as="targetPoint" />
            <Array as="points">
              <mxPoint x="900" y="-95" />
              <mxPoint x="900" y="400" />
              <mxPoint x="1020" y="400" />
            </Array>
          </mxGeometry>
        </mxCell>
        <mxCell id="KgeHwVZJBMbFdhlrKOKl-160" style="edgeStyle=orthogonalEdgeStyle;shape=connector;rounded=1;orthogonalLoop=1;jettySize=auto;html=1;exitX=1;exitY=0.5;exitDx=0;exitDy=0;labelBackgroundColor=none;align=center;verticalAlign=middle;fontFamily=Helvetica;fontSize=11;fontColor=default;endArrow=classic;entryX=0.173;entryY=0.29;entryDx=0;entryDy=0;entryPerimeter=0;movable=0;resizable=0;rotatable=0;deletable=0;editable=0;locked=1;connectable=0;" parent="1" source="KgeHwVZJBMbFdhlrKOKl-81" target="KgeHwVZJBMbFdhlrKOKl-19" edge="1">
          <mxGeometry relative="1" as="geometry">
            <mxPoint x="250" y="-400" as="targetPoint" />
            <Array as="points">
              <mxPoint x="250" y="455" />
            </Array>
          </mxGeometry>
        </mxCell>
        <mxCell id="KgeHwVZJBMbFdhlrKOKl-163" style="edgeStyle=orthogonalEdgeStyle;shape=connector;rounded=1;orthogonalLoop=1;jettySize=auto;html=1;exitX=1;exitY=0.5;exitDx=0;exitDy=0;labelBackgroundColor=none;align=center;verticalAlign=middle;fontFamily=Helvetica;fontSize=11;fontColor=default;endArrow=classic;entryX=0.156;entryY=0.945;entryDx=0;entryDy=0;entryPerimeter=0;movable=0;resizable=0;rotatable=0;deletable=0;editable=0;locked=1;connectable=0;" parent="1" source="KgeHwVZJBMbFdhlrKOKl-161" target="KgeHwVZJBMbFdhlrKOKl-19" edge="1">
          <mxGeometry relative="1" as="geometry">
            <mxPoint x="1640" y="-360" as="targetPoint" />
            <Array as="points">
              <mxPoint x="1638" y="410" />
            </Array>
          </mxGeometry>
        </mxCell>
        <mxCell id="KgeHwVZJBMbFdhlrKOKl-165" style="edgeStyle=orthogonalEdgeStyle;shape=connector;rounded=1;orthogonalLoop=1;jettySize=auto;html=1;exitX=1;exitY=0.5;exitDx=0;exitDy=0;labelBackgroundColor=none;align=center;verticalAlign=middle;fontFamily=Helvetica;fontSize=11;fontColor=default;endArrow=classic;entryX=0;entryY=0.5;entryDx=0;entryDy=0;movable=0;resizable=0;rotatable=0;deletable=0;editable=0;locked=1;connectable=0;" parent="1" source="KgeHwVZJBMbFdhlrKOKl-123" target="KgeHwVZJBMbFdhlrKOKl-162" edge="1">
          <mxGeometry relative="1" as="geometry">
            <mxPoint x="1110" y="-155" as="targetPoint" />
            <Array as="points">
              <mxPoint x="1090" y="-155" />
              <mxPoint x="1090" y="200" />
            </Array>
          </mxGeometry>
        </mxCell>
        <mxCell id="KgeHwVZJBMbFdhlrKOKl-167" value="Return Address Stack" style="swimlane;fontStyle=0;childLayout=stackLayout;horizontal=1;startSize=30;horizontalStack=0;resizeParent=1;resizeParentMax=0;resizeLast=0;collapsible=1;marginBottom=0;whiteSpace=wrap;html=1;rounded=1;movable=0;resizable=0;rotatable=0;deletable=0;editable=0;locked=1;connectable=0;labelBackgroundColor=none;" parent="1" vertex="1">
          <mxGeometry x="300" y="130" width="150" height="180" as="geometry" />
        </mxCell>
        <mxCell id="i2NthTAIH1iRgAQdDC14-19" value="CLK" style="text;strokeColor=none;fillColor=none;align=left;verticalAlign=middle;spacingLeft=4;spacingRight=4;overflow=hidden;points=[[0,0.5],[1,0.5]];portConstraint=eastwest;rotatable=0;whiteSpace=wrap;html=1;rounded=1;movable=0;resizable=0;deletable=0;editable=0;locked=1;connectable=0;labelBackgroundColor=none;" parent="KgeHwVZJBMbFdhlrKOKl-167" vertex="1">
          <mxGeometry y="30" width="150" height="30" as="geometry" />
        </mxCell>
        <mxCell id="KgeHwVZJBMbFdhlrKOKl-168" value="pop_Enable" style="text;strokeColor=none;fillColor=none;align=left;verticalAlign=middle;spacingLeft=4;spacingRight=4;overflow=hidden;points=[[0,0.5],[1,0.5]];portConstraint=eastwest;rotatable=0;whiteSpace=wrap;html=1;rounded=1;movable=0;resizable=0;deletable=0;editable=0;locked=1;connectable=0;labelBackgroundColor=none;" parent="KgeHwVZJBMbFdhlrKOKl-167" vertex="1">
          <mxGeometry y="60" width="150" height="30" as="geometry" />
        </mxCell>
        <mxCell id="KgeHwVZJBMbFdhlrKOKl-169" value="push_Enable" style="text;strokeColor=none;fillColor=none;align=left;verticalAlign=middle;spacingLeft=4;spacingRight=4;overflow=hidden;points=[[0,0.5],[1,0.5]];portConstraint=eastwest;rotatable=0;whiteSpace=wrap;html=1;rounded=1;movable=0;resizable=0;deletable=0;editable=0;locked=1;connectable=0;labelBackgroundColor=none;" parent="KgeHwVZJBMbFdhlrKOKl-167" vertex="1">
          <mxGeometry y="90" width="150" height="30" as="geometry" />
        </mxCell>
        <mxCell id="KgeHwVZJBMbFdhlrKOKl-170" value="In_Address" style="text;strokeColor=none;fillColor=none;align=left;verticalAlign=middle;spacingLeft=4;spacingRight=4;overflow=hidden;points=[[0,0.5],[1,0.5]];portConstraint=eastwest;rotatable=0;whiteSpace=wrap;html=1;rounded=1;movable=0;resizable=0;deletable=0;editable=0;locked=1;connectable=0;labelBackgroundColor=none;" parent="KgeHwVZJBMbFdhlrKOKl-167" vertex="1">
          <mxGeometry y="120" width="150" height="30" as="geometry" />
        </mxCell>
        <mxCell id="KgeHwVZJBMbFdhlrKOKl-171" value="Out_Address" style="text;strokeColor=none;fillColor=none;align=right;verticalAlign=middle;spacingLeft=4;spacingRight=4;overflow=hidden;points=[[0,0.5],[1,0.5]];portConstraint=eastwest;rotatable=0;whiteSpace=wrap;html=1;rounded=1;movable=0;resizable=0;deletable=0;editable=0;locked=1;connectable=0;labelBackgroundColor=none;" parent="KgeHwVZJBMbFdhlrKOKl-167" vertex="1">
          <mxGeometry y="150" width="150" height="30" as="geometry" />
        </mxCell>
        <mxCell id="KgeHwVZJBMbFdhlrKOKl-177" style="edgeStyle=orthogonalEdgeStyle;rounded=1;orthogonalLoop=1;jettySize=auto;html=1;exitX=0.5;exitY=0;exitDx=0;exitDy=0;exitPerimeter=0;entryX=0;entryY=0.5;entryDx=0;entryDy=0;movable=0;resizable=0;rotatable=0;deletable=0;editable=0;locked=1;connectable=0;labelBackgroundColor=none;fontColor=default;" parent="1" source="KgeHwVZJBMbFdhlrKOKl-175" target="KgeHwVZJBMbFdhlrKOKl-48" edge="1">
          <mxGeometry relative="1" as="geometry" />
        </mxCell>
        <mxCell id="KgeHwVZJBMbFdhlrKOKl-175" value="MUX" style="shape=trapezoid;perimeter=trapezoidPerimeter;whiteSpace=wrap;html=1;fixedSize=1;direction=south;points=[[0.12,0.5,0,0,0],[0.33,1,0,0,0],[0.5,0,0,0,0],[0.66,1,0,0,0],[0.88,0.5,0,0,0]];movable=0;resizable=0;rotatable=0;deletable=0;editable=0;locked=1;connectable=0;noLabel=0;fixDash=0;snapToPoint=0;rounded=1;labelBackgroundColor=none;" parent="1" vertex="1">
          <mxGeometry x="600" y="310" width="40" height="80" as="geometry" />
        </mxCell>
        <mxCell id="KgeHwVZJBMbFdhlrKOKl-178" style="edgeStyle=orthogonalEdgeStyle;rounded=1;orthogonalLoop=1;jettySize=auto;html=1;exitX=0.5;exitY=0;exitDx=0;exitDy=0;exitPerimeter=0;entryX=0;entryY=0.5;entryDx=0;entryDy=0;movable=0;resizable=0;rotatable=0;deletable=0;editable=0;locked=1;connectable=0;labelBackgroundColor=none;fontColor=default;" parent="1" source="KgeHwVZJBMbFdhlrKOKl-176" target="KgeHwVZJBMbFdhlrKOKl-49" edge="1">
          <mxGeometry relative="1" as="geometry">
            <Array as="points">
              <mxPoint x="650" y="470" />
              <mxPoint x="650" y="425" />
            </Array>
          </mxGeometry>
        </mxCell>
        <mxCell id="KgeHwVZJBMbFdhlrKOKl-179" style="edgeStyle=orthogonalEdgeStyle;rounded=1;orthogonalLoop=1;jettySize=auto;html=1;entryX=0.33;entryY=1;entryDx=0;entryDy=0;entryPerimeter=0;exitX=0.768;exitY=0.466;exitDx=0;exitDy=0;exitPerimeter=0;movable=0;resizable=0;rotatable=0;deletable=0;editable=0;locked=1;connectable=0;labelBackgroundColor=none;fontColor=default;" parent="1" source="KgeHwVZJBMbFdhlrKOKl-24" target="KgeHwVZJBMbFdhlrKOKl-176" edge="1">
          <mxGeometry relative="1" as="geometry">
            <mxPoint x="460" y="653.6" as="targetPoint" />
            <mxPoint x="570" y="760" as="sourcePoint" />
            <Array as="points">
              <mxPoint x="570" y="456" />
            </Array>
          </mxGeometry>
        </mxCell>
        <mxCell id="i2NthTAIH1iRgAQdDC14-4" value="0" style="edgeLabel;html=1;align=center;verticalAlign=middle;resizable=0;points=[];movable=0;rotatable=0;deletable=0;editable=0;locked=1;connectable=0;rounded=1;labelBackgroundColor=none;" parent="KgeHwVZJBMbFdhlrKOKl-179" vertex="1" connectable="0">
          <mxGeometry x="0.9126" relative="1" as="geometry">
            <mxPoint as="offset" />
          </mxGeometry>
        </mxCell>
        <mxCell id="KgeHwVZJBMbFdhlrKOKl-176" value="MUX" style="shape=trapezoid;perimeter=trapezoidPerimeter;whiteSpace=wrap;html=1;fixedSize=1;direction=south;points=[[0.12,0.5,0,0,0],[0.33,1,0,0,0],[0.5,0,0,0,0],[0.66,1,0,0,0],[0.88,0.5,0,0,0]];movable=0;resizable=0;rotatable=0;deletable=0;editable=0;locked=1;connectable=0;noLabel=0;fixDash=0;snapToPoint=0;rounded=1;labelBackgroundColor=none;" parent="1" vertex="1">
          <mxGeometry x="600" y="430" width="40" height="80" as="geometry" />
        </mxCell>
        <mxCell id="KgeHwVZJBMbFdhlrKOKl-183" style="edgeStyle=orthogonalEdgeStyle;rounded=1;orthogonalLoop=1;jettySize=auto;html=1;exitX=1;exitY=0.5;exitDx=0;exitDy=0;labelBackgroundColor=none;fontColor=default;entryX=0.66;entryY=1;entryDx=0;entryDy=0;entryPerimeter=0;movable=0;resizable=0;rotatable=0;deletable=0;editable=0;locked=1;connectable=0;" parent="1" source="KgeHwVZJBMbFdhlrKOKl-73" target="KgeHwVZJBMbFdhlrKOKl-175" edge="1">
          <mxGeometry relative="1" as="geometry">
            <mxPoint x="550" y="520" as="sourcePoint" />
            <mxPoint x="770" y="280" as="targetPoint" />
            <Array as="points">
              <mxPoint x="540" y="455" />
              <mxPoint x="540" y="363" />
            </Array>
          </mxGeometry>
        </mxCell>
        <mxCell id="KgeHwVZJBMbFdhlrKOKl-184" value="[19:15]" style="edgeLabel;html=1;align=center;verticalAlign=middle;resizable=0;points=[];labelBackgroundColor=none;rounded=1;movable=0;rotatable=0;deletable=0;editable=0;locked=1;connectable=0;" parent="KgeHwVZJBMbFdhlrKOKl-183" vertex="1" connectable="0">
          <mxGeometry x="0.8877" y="-1" relative="1" as="geometry">
            <mxPoint x="-27" y="-4" as="offset" />
          </mxGeometry>
        </mxCell>
        <mxCell id="i2NthTAIH1iRgAQdDC14-7" value="1" style="edgeLabel;html=1;align=center;verticalAlign=middle;resizable=0;points=[];movable=0;rotatable=0;deletable=0;editable=0;locked=1;connectable=0;rounded=1;labelBackgroundColor=none;" parent="KgeHwVZJBMbFdhlrKOKl-183" vertex="1" connectable="0">
          <mxGeometry x="0.8809" y="1" relative="1" as="geometry">
            <mxPoint as="offset" />
          </mxGeometry>
        </mxCell>
        <mxCell id="KgeHwVZJBMbFdhlrKOKl-187" style="edgeStyle=orthogonalEdgeStyle;rounded=1;orthogonalLoop=1;jettySize=auto;html=1;exitX=1;exitY=0.5;exitDx=0;exitDy=0;entryX=0;entryY=0.5;entryDx=0;entryDy=0;movable=0;resizable=0;rotatable=0;deletable=0;editable=0;locked=1;connectable=0;labelBackgroundColor=none;fontColor=default;" parent="1" source="KgeHwVZJBMbFdhlrKOKl-185" target="KgeHwVZJBMbFdhlrKOKl-168" edge="1">
          <mxGeometry relative="1" as="geometry">
            <Array as="points">
              <mxPoint x="270" y="145" />
              <mxPoint x="270" y="205" />
            </Array>
          </mxGeometry>
        </mxCell>
        <mxCell id="KgeHwVZJBMbFdhlrKOKl-188" style="edgeStyle=orthogonalEdgeStyle;rounded=1;orthogonalLoop=1;jettySize=auto;html=1;exitX=1;exitY=0.5;exitDx=0;exitDy=0;entryX=0;entryY=0.5;entryDx=0;entryDy=0;movable=0;resizable=0;rotatable=0;deletable=0;editable=0;locked=1;connectable=0;labelBackgroundColor=none;fontColor=default;" parent="1" source="KgeHwVZJBMbFdhlrKOKl-186" target="KgeHwVZJBMbFdhlrKOKl-169" edge="1">
          <mxGeometry relative="1" as="geometry">
            <Array as="points">
              <mxPoint x="230" y="175" />
              <mxPoint x="230" y="235" />
            </Array>
          </mxGeometry>
        </mxCell>
        <mxCell id="KgeHwVZJBMbFdhlrKOKl-193" style="edgeStyle=orthogonalEdgeStyle;rounded=1;orthogonalLoop=1;jettySize=auto;html=1;entryX=0;entryY=0.5;entryDx=0;entryDy=0;movable=0;resizable=0;rotatable=0;deletable=0;editable=0;locked=1;connectable=0;exitX=0.802;exitY=0.311;exitDx=0;exitDy=0;exitPerimeter=0;labelBackgroundColor=none;fontColor=default;" parent="1" source="KgeHwVZJBMbFdhlrKOKl-24" target="KgeHwVZJBMbFdhlrKOKl-72" edge="1">
          <mxGeometry relative="1" as="geometry">
            <mxPoint x="289.94" y="655" as="targetPoint" />
            <mxPoint x="270" y="750" as="sourcePoint" />
            <Array as="points">
              <mxPoint x="259" y="750" />
              <mxPoint x="258" y="750" />
              <mxPoint x="258" y="425" />
            </Array>
          </mxGeometry>
        </mxCell>
        <mxCell id="KgeHwVZJBMbFdhlrKOKl-195" style="edgeStyle=orthogonalEdgeStyle;rounded=1;orthogonalLoop=1;jettySize=auto;html=1;exitX=1;exitY=0.5;exitDx=0;exitDy=0;entryX=0;entryY=0.5;entryDx=0;entryDy=0;movable=0;resizable=0;rotatable=0;deletable=0;editable=0;locked=1;connectable=0;labelBackgroundColor=none;fontColor=default;" parent="1" source="KgeHwVZJBMbFdhlrKOKl-192" target="KgeHwVZJBMbFdhlrKOKl-77" edge="1">
          <mxGeometry relative="1" as="geometry">
            <mxPoint x="-370" y="-300" as="targetPoint" />
            <Array as="points">
              <mxPoint x="210" y="-335" />
              <mxPoint x="210" y="-560" />
              <mxPoint x="-250" y="-560" />
              <mxPoint x="-250" y="305" />
            </Array>
          </mxGeometry>
        </mxCell>
        <mxCell id="KgeHwVZJBMbFdhlrKOKl-196" style="edgeStyle=orthogonalEdgeStyle;rounded=1;orthogonalLoop=1;jettySize=auto;html=1;exitX=1;exitY=0.5;exitDx=0;exitDy=0;entryX=0;entryY=0.5;entryDx=0;entryDy=0;movable=0;resizable=0;rotatable=0;deletable=0;editable=0;locked=1;connectable=0;labelBackgroundColor=none;fontColor=default;" parent="1" source="KgeHwVZJBMbFdhlrKOKl-191" target="KgeHwVZJBMbFdhlrKOKl-78" edge="1">
          <mxGeometry relative="1" as="geometry">
            <mxPoint x="-300" y="80" as="targetPoint" />
            <Array as="points">
              <mxPoint x="230" y="-305" />
              <mxPoint x="230" y="-590" />
              <mxPoint x="-280" y="-590" />
              <mxPoint x="-280" y="335" />
            </Array>
          </mxGeometry>
        </mxCell>
        <mxCell id="KgeHwVZJBMbFdhlrKOKl-197" style="edgeStyle=orthogonalEdgeStyle;rounded=1;orthogonalLoop=1;jettySize=auto;html=1;exitX=0.5;exitY=1;exitDx=0;exitDy=0;movable=0;resizable=0;rotatable=0;deletable=0;editable=0;locked=1;connectable=0;labelBackgroundColor=none;fontColor=default;entryX=0;entryY=0.5;entryDx=0;entryDy=0;" parent="1" source="KgeHwVZJBMbFdhlrKOKl-200" target="hyGkmQSomK8qtLZX06fx-50" edge="1">
          <mxGeometry relative="1" as="geometry">
            <mxPoint x="-600" y="-890" as="sourcePoint" />
            <Array as="points">
              <mxPoint x="-570" y="-880" />
              <mxPoint x="-570" y="-522" />
              <mxPoint x="-490" y="-522" />
            </Array>
            <mxPoint x="-490" y="-530" as="targetPoint" />
          </mxGeometry>
        </mxCell>
        <mxCell id="PifeLRHPDAEhEscJ9Me1-3" style="edgeStyle=orthogonalEdgeStyle;rounded=1;orthogonalLoop=1;jettySize=auto;html=1;entryX=0;entryY=0.5;entryDx=0;entryDy=0;movable=0;resizable=0;rotatable=0;deletable=0;editable=0;locked=1;connectable=0;labelBackgroundColor=none;fontColor=default;" parent="1" edge="1">
          <mxGeometry relative="1" as="geometry">
            <mxPoint x="-870" y="-54.25" as="targetPoint" />
            <Array as="points">
              <mxPoint x="-640" y="-880" />
              <mxPoint x="-570" y="-880" />
              <mxPoint x="-570" y="-460" />
              <mxPoint x="-900" y="-460" />
              <mxPoint x="-900" y="-54" />
            </Array>
            <mxPoint x="-640" y="-880" as="sourcePoint" />
          </mxGeometry>
        </mxCell>
        <mxCell id="4y1hLskT0BKTg-PHN_sV-21" style="edgeStyle=orthogonalEdgeStyle;rounded=1;orthogonalLoop=1;jettySize=auto;html=1;exitX=0.5;exitY=1;exitDx=0;exitDy=0;entryX=0;entryY=0.5;entryDx=0;entryDy=0;movable=0;resizable=0;rotatable=0;deletable=0;editable=0;locked=1;connectable=0;labelBackgroundColor=none;fontColor=default;" parent="1" source="KgeHwVZJBMbFdhlrKOKl-200" target="4y1hLskT0BKTg-PHN_sV-13" edge="1">
          <mxGeometry relative="1" as="geometry">
            <mxPoint x="-720" y="-570" as="targetPoint" />
            <Array as="points">
              <mxPoint x="-570" y="-880" />
              <mxPoint x="-570" y="-460" />
              <mxPoint x="-1330" y="-460" />
              <mxPoint x="-1330" y="-45" />
            </Array>
          </mxGeometry>
        </mxCell>
        <mxCell id="KgeHwVZJBMbFdhlrKOKl-200" value="External_Clock" style="shape=offPageConnector;whiteSpace=wrap;html=1;rounded=1;direction=north;movable=0;resizable=0;rotatable=0;deletable=0;editable=0;locked=1;connectable=0;labelBackgroundColor=none;" parent="1" vertex="1">
          <mxGeometry x="-760" y="-900" width="120" height="40" as="geometry" />
        </mxCell>
        <mxCell id="KgeHwVZJBMbFdhlrKOKl-202" style="edgeStyle=orthogonalEdgeStyle;rounded=1;orthogonalLoop=1;jettySize=auto;html=1;exitX=0.5;exitY=1;exitDx=0;exitDy=0;entryX=0;entryY=0.5;entryDx=0;entryDy=0;movable=0;resizable=0;rotatable=0;deletable=0;editable=0;locked=1;connectable=0;labelBackgroundColor=none;fontColor=default;" parent="1" source="KgeHwVZJBMbFdhlrKOKl-201" target="KgeHwVZJBMbFdhlrKOKl-84" edge="1">
          <mxGeometry relative="1" as="geometry">
            <Array as="points">
              <mxPoint x="-530" y="-830" />
              <mxPoint x="-530" y="-425" />
            </Array>
          </mxGeometry>
        </mxCell>
        <mxCell id="KgeHwVZJBMbFdhlrKOKl-201" value="External_Reset" style="shape=offPageConnector;whiteSpace=wrap;html=1;rounded=1;direction=north;movable=0;resizable=0;rotatable=0;deletable=0;editable=0;locked=1;connectable=0;labelBackgroundColor=none;" parent="1" vertex="1">
          <mxGeometry x="-760" y="-850" width="120" height="40" as="geometry" />
        </mxCell>
        <mxCell id="KgeHwVZJBMbFdhlrKOKl-204" value="" style="group;movable=0;resizable=0;rotatable=0;deletable=0;editable=0;locked=1;connectable=0;rounded=1;labelBackgroundColor=none;" parent="1" vertex="1" connectable="0">
          <mxGeometry x="-420" y="752.5" width="2117.5" height="57.5" as="geometry" />
        </mxCell>
        <mxCell id="KgeHwVZJBMbFdhlrKOKl-24" value="" style="verticalLabelPosition=bottom;shadow=0;dashed=0;align=center;html=1;verticalAlign=top;shape=mxgraph.electrical.transmission.straightBus;rotation=-90;rounded=1;labelBackgroundColor=none;movable=0;resizable=0;rotatable=0;deletable=0;editable=0;locked=1;connectable=0;" parent="KgeHwVZJBMbFdhlrKOKl-204" vertex="1">
          <mxGeometry x="1042.9477611940297" y="-989.999999999998" width="31.604477611940297" height="2009.999999999996" as="geometry" />
        </mxCell>
        <mxCell id="KgeHwVZJBMbFdhlrKOKl-203" value="&lt;font style=&quot;font-size: 25px;&quot;&gt;Internal Data Bus&lt;/font&gt;" style="text;html=1;align=center;verticalAlign=middle;resizable=0;points=[];autosize=1;strokeColor=none;fillColor=none;movable=0;rotatable=0;deletable=0;editable=0;locked=1;connectable=0;rounded=1;labelBackgroundColor=none;" parent="KgeHwVZJBMbFdhlrKOKl-204" vertex="1">
          <mxGeometry x="912.5" y="17.500000000000114" width="220" height="40" as="geometry" />
        </mxCell>
        <mxCell id="KgeHwVZJBMbFdhlrKOKl-260" value="" style="verticalLabelPosition=bottom;shadow=0;dashed=0;align=center;html=1;verticalAlign=top;shape=mxgraph.electrical.transmission.straightBus;rotation=-90;rounded=1;labelBackgroundColor=none;movable=0;resizable=0;rotatable=0;deletable=0;editable=0;locked=1;connectable=0;" parent="1" vertex="1">
          <mxGeometry x="-377.05" y="-1090" width="31.6" height="4010" as="geometry" />
        </mxCell>
        <mxCell id="KgeHwVZJBMbFdhlrKOKl-261" value="&lt;font style=&quot;font-size: 25px;&quot;&gt;Control Bus&lt;/font&gt;" style="text;html=1;align=center;verticalAlign=middle;resizable=0;points=[];autosize=1;strokeColor=none;fillColor=none;movable=0;rotatable=0;deletable=0;editable=0;locked=1;connectable=0;rounded=1;labelBackgroundColor=none;" parent="1" vertex="1">
          <mxGeometry x="-436.25" y="930.0000000000001" width="150" height="40" as="geometry" />
        </mxCell>
        <mxCell id="hyGkmQSomK8qtLZX06fx-8" style="edgeStyle=orthogonalEdgeStyle;rounded=1;orthogonalLoop=1;jettySize=auto;html=1;exitX=1;exitY=0.5;exitDx=0;exitDy=0;entryX=0.887;entryY=0.61;entryDx=0;entryDy=0;entryPerimeter=0;movable=0;resizable=0;rotatable=0;deletable=0;editable=0;locked=1;connectable=0;labelBackgroundColor=none;fontColor=default;" parent="1" source="KgeHwVZJBMbFdhlrKOKl-262" target="KgeHwVZJBMbFdhlrKOKl-260" edge="1">
          <mxGeometry relative="1" as="geometry">
            <mxPoint x="80.00000000000045" y="840" as="targetPoint" />
            <Array as="points">
              <mxPoint x="80" y="665" />
            </Array>
          </mxGeometry>
        </mxCell>
        <mxCell id="hyGkmQSomK8qtLZX06fx-9" value="[1]" style="edgeLabel;html=1;align=center;verticalAlign=middle;resizable=0;points=[];movable=0;rotatable=0;deletable=0;editable=0;locked=1;connectable=0;rounded=1;labelBackgroundColor=none;" parent="hyGkmQSomK8qtLZX06fx-8" vertex="1" connectable="0">
          <mxGeometry x="0.8843" y="1" relative="1" as="geometry">
            <mxPoint as="offset" />
          </mxGeometry>
        </mxCell>
        <mxCell id="KgeHwVZJBMbFdhlrKOKl-262" value="Control Unit" style="swimlane;fontStyle=0;childLayout=stackLayout;horizontal=1;startSize=30;horizontalStack=0;resizeParent=1;resizeParentMax=0;resizeLast=0;collapsible=1;marginBottom=0;whiteSpace=wrap;html=1;rounded=1;movable=0;resizable=0;rotatable=0;deletable=0;editable=0;locked=1;connectable=0;labelBackgroundColor=none;" parent="1" vertex="1">
          <mxGeometry x="-220" y="590" width="200" height="150" as="geometry" />
        </mxCell>
        <mxCell id="KgeHwVZJBMbFdhlrKOKl-263" value="External_Read_Enable" style="text;strokeColor=none;fillColor=none;align=right;verticalAlign=middle;spacingLeft=4;spacingRight=4;overflow=hidden;points=[[0,0.5],[1,0.5]];portConstraint=eastwest;rotatable=0;whiteSpace=wrap;html=1;rounded=1;movable=0;resizable=0;deletable=0;editable=0;locked=1;connectable=0;labelBackgroundColor=none;" parent="KgeHwVZJBMbFdhlrKOKl-262" vertex="1">
          <mxGeometry y="30" width="200" height="30" as="geometry" />
        </mxCell>
        <mxCell id="hyGkmQSomK8qtLZX06fx-7" value="External_Read_Unsigned" style="text;strokeColor=none;fillColor=none;align=right;verticalAlign=middle;spacingLeft=4;spacingRight=4;overflow=hidden;points=[[0,0.5],[1,0.5]];portConstraint=eastwest;rotatable=0;whiteSpace=wrap;html=1;rounded=1;movable=0;resizable=0;deletable=0;editable=0;locked=1;connectable=0;labelBackgroundColor=none;" parent="KgeHwVZJBMbFdhlrKOKl-262" vertex="1">
          <mxGeometry y="60" width="200" height="30" as="geometry" />
        </mxCell>
        <mxCell id="KgeHwVZJBMbFdhlrKOKl-264" value="External_Write_Enable" style="text;strokeColor=none;fillColor=none;align=right;verticalAlign=middle;spacingLeft=4;spacingRight=4;overflow=hidden;points=[[0,0.5],[1,0.5]];portConstraint=eastwest;rotatable=0;whiteSpace=wrap;html=1;rounded=1;movable=0;resizable=0;deletable=0;editable=0;locked=1;connectable=0;labelBackgroundColor=none;" parent="KgeHwVZJBMbFdhlrKOKl-262" vertex="1">
          <mxGeometry y="90" width="200" height="30" as="geometry" />
        </mxCell>
        <mxCell id="PifeLRHPDAEhEscJ9Me1-6" value="External_Data_Width" style="text;strokeColor=none;fillColor=none;align=right;verticalAlign=middle;spacingLeft=4;spacingRight=4;overflow=hidden;points=[[0,0.5],[1,0.5]];portConstraint=eastwest;rotatable=0;whiteSpace=wrap;html=1;rounded=1;movable=0;resizable=0;deletable=0;editable=0;locked=1;connectable=0;labelBackgroundColor=none;" parent="KgeHwVZJBMbFdhlrKOKl-262" vertex="1">
          <mxGeometry y="120" width="200" height="30" as="geometry" />
        </mxCell>
        <mxCell id="KgeHwVZJBMbFdhlrKOKl-266" value="" style="shape=flexArrow;endArrow=classic;startArrow=classic;html=1;rounded=1;entryX=0;entryY=0.5;entryDx=0;entryDy=0;exitX=0;exitY=0.5;exitDx=0;exitDy=0;movable=0;resizable=0;rotatable=0;deletable=0;editable=0;locked=1;connectable=0;labelBackgroundColor=none;fontColor=default;" parent="1" source="KgeHwVZJBMbFdhlrKOKl-263" target="KgeHwVZJBMbFdhlrKOKl-186" edge="1">
          <mxGeometry width="100" height="100" relative="1" as="geometry">
            <mxPoint x="-260" y="480" as="sourcePoint" />
            <mxPoint x="-340" y="80" as="targetPoint" />
            <Array as="points">
              <mxPoint x="-340" y="635" />
              <mxPoint x="-340" y="175" />
            </Array>
          </mxGeometry>
        </mxCell>
        <mxCell id="KgeHwVZJBMbFdhlrKOKl-267" value="&lt;font color=&quot;#ffff33&quot;&gt;The Same Module&lt;/font&gt;" style="edgeLabel;html=1;align=center;verticalAlign=middle;resizable=0;points=[];rounded=1;movable=0;rotatable=0;deletable=0;editable=0;locked=1;connectable=0;labelBackgroundColor=none;" parent="KgeHwVZJBMbFdhlrKOKl-266" vertex="1" connectable="0">
          <mxGeometry x="-0.7445" y="-4" relative="1" as="geometry">
            <mxPoint x="21" y="-11" as="offset" />
          </mxGeometry>
        </mxCell>
        <mxCell id="KgeHwVZJBMbFdhlrKOKl-269" style="edgeStyle=orthogonalEdgeStyle;rounded=1;orthogonalLoop=1;jettySize=auto;html=1;exitX=1;exitY=0.5;exitDx=0;exitDy=0;movable=0;resizable=0;rotatable=0;deletable=0;editable=0;locked=1;connectable=0;entryX=0.857;entryY=0.62;entryDx=0;entryDy=0;entryPerimeter=0;labelBackgroundColor=none;fontColor=default;" parent="1" source="KgeHwVZJBMbFdhlrKOKl-263" target="KgeHwVZJBMbFdhlrKOKl-260" edge="1">
          <mxGeometry relative="1" as="geometry">
            <Array as="points">
              <mxPoint x="120" y="635" />
            </Array>
            <mxPoint x="130" y="870" as="targetPoint" />
          </mxGeometry>
        </mxCell>
        <mxCell id="KgeHwVZJBMbFdhlrKOKl-271" value="[0]" style="edgeLabel;html=1;align=center;verticalAlign=middle;resizable=0;points=[];rounded=1;movable=0;rotatable=0;deletable=0;editable=0;locked=1;connectable=0;labelBackgroundColor=none;" parent="KgeHwVZJBMbFdhlrKOKl-269" vertex="1" connectable="0">
          <mxGeometry x="0.8826" relative="1" as="geometry">
            <mxPoint y="2" as="offset" />
          </mxGeometry>
        </mxCell>
        <mxCell id="KgeHwVZJBMbFdhlrKOKl-270" style="edgeStyle=orthogonalEdgeStyle;rounded=1;orthogonalLoop=1;jettySize=auto;html=1;exitX=1;exitY=0.5;exitDx=0;exitDy=0;entryX=0.815;entryY=0.6;entryDx=0;entryDy=0;entryPerimeter=0;movable=0;resizable=0;rotatable=0;deletable=0;editable=0;locked=1;connectable=0;labelBackgroundColor=none;fontColor=default;" parent="1" source="KgeHwVZJBMbFdhlrKOKl-264" target="KgeHwVZJBMbFdhlrKOKl-260" edge="1">
          <mxGeometry relative="1" as="geometry">
            <mxPoint x="40" y="900" as="targetPoint" />
            <Array as="points">
              <mxPoint x="40" y="695" />
            </Array>
          </mxGeometry>
        </mxCell>
        <mxCell id="KgeHwVZJBMbFdhlrKOKl-272" value="[2]" style="edgeLabel;html=1;align=center;verticalAlign=middle;resizable=0;points=[];rounded=1;movable=0;rotatable=0;deletable=0;editable=0;locked=1;connectable=0;labelBackgroundColor=none;" parent="KgeHwVZJBMbFdhlrKOKl-270" vertex="1" connectable="0">
          <mxGeometry x="0.8708" relative="1" as="geometry">
            <mxPoint as="offset" />
          </mxGeometry>
        </mxCell>
        <mxCell id="KgeHwVZJBMbFdhlrKOKl-223" value="" style="verticalLabelPosition=bottom;shadow=0;dashed=0;align=center;html=1;verticalAlign=top;shape=mxgraph.electrical.transmission.straightBus;rotation=-90;rounded=1;labelBackgroundColor=none;movable=0;resizable=0;rotatable=0;deletable=0;editable=0;locked=1;connectable=0;direction=west;" parent="1" vertex="1">
          <mxGeometry x="-1432.75" y="-1720.5" width="30" height="2015.5" as="geometry" />
        </mxCell>
        <mxCell id="KgeHwVZJBMbFdhlrKOKl-224" value="&lt;font style=&quot;font-size: 25px;&quot;&gt;External Address Bus&lt;/font&gt;" style="text;html=1;align=center;verticalAlign=middle;resizable=0;points=[];autosize=1;strokeColor=none;fillColor=none;movable=0;rotatable=0;deletable=0;editable=0;locked=1;connectable=0;rounded=1;labelBackgroundColor=none;" parent="1" vertex="1">
          <mxGeometry x="-1620" y="-770" width="260" height="40" as="geometry" />
        </mxCell>
        <mxCell id="KgeHwVZJBMbFdhlrKOKl-5" value="General RAM" style="swimlane;fontStyle=0;childLayout=stackLayout;horizontal=1;startSize=30;horizontalStack=0;resizeParent=1;resizeParentMax=0;resizeLast=0;collapsible=1;marginBottom=0;whiteSpace=wrap;html=1;rounded=1;labelBackgroundColor=none;movable=0;resizable=0;rotatable=0;deletable=0;editable=0;locked=1;connectable=0;" parent="1" vertex="1">
          <mxGeometry x="-870" y="-90" width="140" height="270" as="geometry">
            <mxRectangle x="340" y="425" width="60" height="30" as="alternateBounds" />
          </mxGeometry>
        </mxCell>
        <mxCell id="KgeHwVZJBMbFdhlrKOKl-6" value="CLK" style="text;strokeColor=none;fillColor=none;align=left;verticalAlign=middle;spacingLeft=4;spacingRight=4;overflow=hidden;points=[[0,0.5],[1,0.5]];portConstraint=eastwest;rotatable=0;whiteSpace=wrap;html=1;rounded=1;labelBackgroundColor=none;movable=0;resizable=0;deletable=0;editable=0;locked=1;connectable=0;" parent="KgeHwVZJBMbFdhlrKOKl-5" vertex="1">
          <mxGeometry y="30" width="140" height="30" as="geometry" />
        </mxCell>
        <mxCell id="KgeHwVZJBMbFdhlrKOKl-13" value="Read_Enable" style="text;strokeColor=none;fillColor=none;align=left;verticalAlign=middle;spacingLeft=4;spacingRight=4;overflow=hidden;points=[[0,0.5],[1,0.5]];portConstraint=eastwest;rotatable=0;whiteSpace=wrap;html=1;rounded=1;labelBackgroundColor=none;movable=0;resizable=0;deletable=0;editable=0;locked=1;connectable=0;" parent="KgeHwVZJBMbFdhlrKOKl-5" vertex="1">
          <mxGeometry y="60" width="140" height="30" as="geometry" />
        </mxCell>
        <mxCell id="hyGkmQSomK8qtLZX06fx-10" value="Read_Unsigned" style="text;strokeColor=none;fillColor=none;align=left;verticalAlign=middle;spacingLeft=4;spacingRight=4;overflow=hidden;points=[[0,0.5],[1,0.5]];portConstraint=eastwest;rotatable=0;whiteSpace=wrap;html=1;rounded=1;labelBackgroundColor=none;movable=0;resizable=0;deletable=0;editable=0;locked=1;connectable=0;" parent="KgeHwVZJBMbFdhlrKOKl-5" vertex="1">
          <mxGeometry y="90" width="140" height="30" as="geometry" />
        </mxCell>
        <mxCell id="KgeHwVZJBMbFdhlrKOKl-15" value="Write_Enable" style="text;strokeColor=none;fillColor=none;align=left;verticalAlign=middle;spacingLeft=4;spacingRight=4;overflow=hidden;points=[[0,0.5],[1,0.5]];portConstraint=eastwest;rotatable=0;whiteSpace=wrap;html=1;rounded=1;labelBackgroundColor=none;movable=0;resizable=0;deletable=0;editable=0;locked=1;connectable=0;" parent="KgeHwVZJBMbFdhlrKOKl-5" vertex="1">
          <mxGeometry y="120" width="140" height="30" as="geometry" />
        </mxCell>
        <mxCell id="KgeHwVZJBMbFdhlrKOKl-9" value="Data_Width" style="text;strokeColor=none;fillColor=none;align=left;verticalAlign=middle;spacingLeft=4;spacingRight=4;overflow=hidden;points=[[0,0.5],[1,0.5]];portConstraint=eastwest;rotatable=0;whiteSpace=wrap;html=1;rounded=1;labelBackgroundColor=none;movable=0;resizable=0;deletable=0;editable=0;locked=1;connectable=0;" parent="KgeHwVZJBMbFdhlrKOKl-5" vertex="1">
          <mxGeometry y="150" width="140" height="30" as="geometry" />
        </mxCell>
        <mxCell id="KgeHwVZJBMbFdhlrKOKl-8" value="Address" style="text;strokeColor=none;fillColor=none;align=left;verticalAlign=middle;spacingLeft=4;spacingRight=4;overflow=hidden;points=[[0,0.5],[1,0.5]];portConstraint=eastwest;rotatable=0;whiteSpace=wrap;html=1;rounded=1;labelBackgroundColor=none;movable=0;resizable=0;deletable=0;editable=0;locked=1;connectable=0;" parent="KgeHwVZJBMbFdhlrKOKl-5" vertex="1">
          <mxGeometry y="180" width="140" height="30" as="geometry" />
        </mxCell>
        <mxCell id="KgeHwVZJBMbFdhlrKOKl-14" value="In_Data" style="text;strokeColor=none;fillColor=none;align=left;verticalAlign=middle;spacingLeft=4;spacingRight=4;overflow=hidden;points=[[0,0.5],[1,0.5]];portConstraint=eastwest;rotatable=0;whiteSpace=wrap;html=1;rounded=1;labelBackgroundColor=none;movable=0;resizable=0;deletable=0;editable=0;locked=1;connectable=0;" parent="KgeHwVZJBMbFdhlrKOKl-5" vertex="1">
          <mxGeometry y="210" width="140" height="30" as="geometry" />
        </mxCell>
        <mxCell id="KgeHwVZJBMbFdhlrKOKl-16" value="Out_Data" style="text;strokeColor=none;fillColor=none;align=right;verticalAlign=middle;spacingLeft=4;spacingRight=4;overflow=hidden;points=[[0,0.5],[1,0.5]];portConstraint=eastwest;rotatable=0;whiteSpace=wrap;html=1;rounded=1;labelBackgroundColor=none;movable=0;resizable=0;deletable=0;editable=0;locked=1;connectable=0;" parent="KgeHwVZJBMbFdhlrKOKl-5" vertex="1">
          <mxGeometry y="240" width="140" height="30" as="geometry" />
        </mxCell>
        <mxCell id="KgeHwVZJBMbFdhlrKOKl-227" value="" style="verticalLabelPosition=bottom;shadow=0;dashed=0;align=center;html=1;verticalAlign=top;shape=mxgraph.electrical.transmission.straightBus;rotation=-90;rounded=1;labelBackgroundColor=none;movable=0;resizable=0;rotatable=0;deletable=0;editable=0;locked=1;connectable=0;direction=west;" parent="1" vertex="1">
          <mxGeometry x="-1400" y="-237.5" width="30" height="2010" as="geometry" />
        </mxCell>
        <mxCell id="KgeHwVZJBMbFdhlrKOKl-228" value="&lt;font style=&quot;font-size: 25px;&quot;&gt;External Data Bus&lt;/font&gt;" style="text;html=1;align=center;verticalAlign=middle;resizable=0;points=[];autosize=1;strokeColor=none;fillColor=none;movable=0;rotatable=0;deletable=0;editable=0;locked=1;connectable=0;rounded=1;labelBackgroundColor=none;" parent="1" vertex="1">
          <mxGeometry x="-1482.5" y="770" width="230" height="40" as="geometry" />
        </mxCell>
        <mxCell id="PifeLRHPDAEhEscJ9Me1-7" style="edgeStyle=orthogonalEdgeStyle;rounded=1;orthogonalLoop=1;jettySize=auto;html=1;exitX=1;exitY=0.5;exitDx=0;exitDy=0;entryX=0.816;entryY=0.59;entryDx=0;entryDy=0;entryPerimeter=0;movable=0;resizable=0;rotatable=0;deletable=0;editable=0;locked=1;connectable=0;labelBackgroundColor=none;fontColor=default;" parent="1" source="PifeLRHPDAEhEscJ9Me1-6" target="KgeHwVZJBMbFdhlrKOKl-260" edge="1">
          <mxGeometry relative="1" as="geometry" />
        </mxCell>
        <mxCell id="PifeLRHPDAEhEscJ9Me1-8" value="[4:3]" style="edgeLabel;html=1;align=center;verticalAlign=middle;resizable=0;points=[];rounded=1;movable=0;rotatable=0;deletable=0;editable=0;locked=1;connectable=0;labelBackgroundColor=none;" parent="PifeLRHPDAEhEscJ9Me1-7" vertex="1" connectable="0">
          <mxGeometry x="0.8642" y="-2" relative="1" as="geometry">
            <mxPoint x="2" y="-3" as="offset" />
          </mxGeometry>
        </mxCell>
        <mxCell id="4y1hLskT0BKTg-PHN_sV-1" style="edgeStyle=orthogonalEdgeStyle;rounded=1;orthogonalLoop=1;jettySize=auto;html=1;entryX=0;entryY=0.5;entryDx=0;entryDy=0;exitX=0.178;exitY=0.265;exitDx=0;exitDy=0;exitPerimeter=0;movable=0;resizable=0;rotatable=0;deletable=0;editable=0;locked=1;connectable=0;labelBackgroundColor=none;fontColor=default;" parent="1" source="KgeHwVZJBMbFdhlrKOKl-227" target="KgeHwVZJBMbFdhlrKOKl-14" edge="1">
          <mxGeometry relative="1" as="geometry">
            <mxPoint x="-980" y="614.9999999999995" as="targetPoint" />
            <mxPoint x="-920" y="640" as="sourcePoint" />
            <Array as="points">
              <mxPoint x="-913" y="135" />
            </Array>
          </mxGeometry>
        </mxCell>
        <mxCell id="4y1hLskT0BKTg-PHN_sV-2" style="edgeStyle=orthogonalEdgeStyle;rounded=1;orthogonalLoop=1;jettySize=auto;html=1;exitX=1;exitY=0.5;exitDx=0;exitDy=0;entryX=0.25;entryY=0.154;entryDx=0;entryDy=0;entryPerimeter=0;movable=0;resizable=0;rotatable=0;deletable=0;editable=0;locked=1;connectable=0;labelBackgroundColor=none;fontColor=default;" parent="1" source="KgeHwVZJBMbFdhlrKOKl-16" target="KgeHwVZJBMbFdhlrKOKl-227" edge="1">
          <mxGeometry relative="1" as="geometry">
            <mxPoint x="-690" y="420" as="targetPoint" />
            <Array as="points">
              <mxPoint x="-689" y="165" />
            </Array>
          </mxGeometry>
        </mxCell>
        <mxCell id="4y1hLskT0BKTg-PHN_sV-3" style="edgeStyle=orthogonalEdgeStyle;rounded=1;orthogonalLoop=1;jettySize=auto;html=1;entryX=0;entryY=0.5;entryDx=0;entryDy=0;exitX=0.797;exitY=0.258;exitDx=0;exitDy=0;exitPerimeter=0;movable=0;resizable=0;rotatable=0;deletable=0;editable=0;locked=1;connectable=0;labelBackgroundColor=none;fontColor=default;" parent="1" source="KgeHwVZJBMbFdhlrKOKl-223" target="KgeHwVZJBMbFdhlrKOKl-8" edge="1">
          <mxGeometry relative="1" as="geometry">
            <mxPoint x="-1200" y="-280" as="targetPoint" />
            <mxPoint x="-930" y="-520" as="sourcePoint" />
            <Array as="points">
              <mxPoint x="-930" y="105" />
            </Array>
          </mxGeometry>
        </mxCell>
        <mxCell id="4y1hLskT0BKTg-PHN_sV-5" style="edgeStyle=orthogonalEdgeStyle;rounded=1;orthogonalLoop=1;jettySize=auto;html=1;entryX=0;entryY=0.5;entryDx=0;entryDy=0;exitX=0.772;exitY=0.35;exitDx=0;exitDy=0;exitPerimeter=0;movable=0;resizable=0;rotatable=0;deletable=0;editable=0;locked=1;connectable=0;labelBackgroundColor=none;fontColor=default;" parent="1" source="KgeHwVZJBMbFdhlrKOKl-260" target="KgeHwVZJBMbFdhlrKOKl-9" edge="1">
          <mxGeometry relative="1" as="geometry">
            <mxPoint x="-1210" y="44.5" as="targetPoint" />
            <mxPoint x="-1050" y="630" as="sourcePoint" />
            <Array as="points">
              <mxPoint x="-963" y="75" />
            </Array>
          </mxGeometry>
        </mxCell>
        <mxCell id="4y1hLskT0BKTg-PHN_sV-6" value="[4:3]" style="edgeLabel;html=1;align=center;verticalAlign=middle;resizable=0;points=[];rounded=1;movable=0;rotatable=0;deletable=0;editable=0;locked=1;connectable=0;labelBackgroundColor=none;" parent="4y1hLskT0BKTg-PHN_sV-5" vertex="1" connectable="0">
          <mxGeometry x="-0.9393" y="-2" relative="1" as="geometry">
            <mxPoint y="12" as="offset" />
          </mxGeometry>
        </mxCell>
        <mxCell id="4y1hLskT0BKTg-PHN_sV-7" style="edgeStyle=orthogonalEdgeStyle;rounded=1;orthogonalLoop=1;jettySize=auto;html=1;entryX=0;entryY=0.5;entryDx=0;entryDy=0;exitX=0.867;exitY=0.338;exitDx=0;exitDy=0;exitPerimeter=0;movable=0;resizable=0;rotatable=0;deletable=0;editable=0;locked=1;connectable=0;labelBackgroundColor=none;fontColor=default;" parent="1" source="KgeHwVZJBMbFdhlrKOKl-260" target="KgeHwVZJBMbFdhlrKOKl-15" edge="1">
          <mxGeometry relative="1" as="geometry">
            <mxPoint x="-1130" y="50" as="targetPoint" />
            <mxPoint x="-1010" y="690" as="sourcePoint" />
            <Array as="points">
              <mxPoint x="-1011" y="330" />
              <mxPoint x="-1010" y="45" />
            </Array>
          </mxGeometry>
        </mxCell>
        <mxCell id="4y1hLskT0BKTg-PHN_sV-9" value="[2]" style="edgeLabel;html=1;align=center;verticalAlign=middle;resizable=0;points=[];rounded=1;movable=0;rotatable=0;deletable=0;editable=0;locked=1;connectable=0;labelBackgroundColor=none;" parent="4y1hLskT0BKTg-PHN_sV-7" vertex="1" connectable="0">
          <mxGeometry x="-0.9665" relative="1" as="geometry">
            <mxPoint y="4" as="offset" />
          </mxGeometry>
        </mxCell>
        <mxCell id="4y1hLskT0BKTg-PHN_sV-10" style="edgeStyle=orthogonalEdgeStyle;rounded=1;orthogonalLoop=1;jettySize=auto;html=1;entryX=0;entryY=0.5;entryDx=0;entryDy=0;movable=0;resizable=0;rotatable=0;deletable=0;editable=0;locked=1;connectable=0;exitX=0.772;exitY=0.321;exitDx=0;exitDy=0;exitPerimeter=0;labelBackgroundColor=none;fontColor=default;" parent="1" source="KgeHwVZJBMbFdhlrKOKl-260" target="KgeHwVZJBMbFdhlrKOKl-13" edge="1">
          <mxGeometry relative="1" as="geometry">
            <mxPoint x="-1190" y="395" as="targetPoint" />
            <mxPoint x="-1080" y="900" as="sourcePoint" />
            <Array as="points">
              <mxPoint x="-1080" y="906" />
              <mxPoint x="-1080" y="-15" />
            </Array>
          </mxGeometry>
        </mxCell>
        <mxCell id="4y1hLskT0BKTg-PHN_sV-11" value="[0]" style="edgeLabel;html=1;align=center;verticalAlign=middle;resizable=0;points=[];rounded=1;movable=0;rotatable=0;deletable=0;editable=0;locked=1;connectable=0;labelBackgroundColor=none;" parent="4y1hLskT0BKTg-PHN_sV-10" vertex="1" connectable="0">
          <mxGeometry x="-0.9676" y="1" relative="1" as="geometry">
            <mxPoint as="offset" />
          </mxGeometry>
        </mxCell>
        <mxCell id="4y1hLskT0BKTg-PHN_sV-12" value="Firmware ROM" style="swimlane;fontStyle=0;childLayout=stackLayout;horizontal=1;startSize=30;horizontalStack=0;resizeParent=1;resizeParentMax=0;resizeLast=0;collapsible=1;marginBottom=0;whiteSpace=wrap;html=1;rounded=1;movable=0;resizable=0;rotatable=0;deletable=0;editable=0;locked=1;connectable=0;labelBackgroundColor=none;" parent="1" vertex="1">
          <mxGeometry x="-1300" y="-90" width="140" height="210" as="geometry" />
        </mxCell>
        <mxCell id="4y1hLskT0BKTg-PHN_sV-13" value="CLK" style="text;strokeColor=none;fillColor=none;align=left;verticalAlign=middle;spacingLeft=4;spacingRight=4;overflow=hidden;points=[[0,0.5],[1,0.5]];portConstraint=eastwest;rotatable=0;whiteSpace=wrap;html=1;movable=0;resizable=0;deletable=0;editable=0;locked=1;connectable=0;rounded=1;labelBackgroundColor=none;" parent="4y1hLskT0BKTg-PHN_sV-12" vertex="1">
          <mxGeometry y="30" width="140" height="30" as="geometry" />
        </mxCell>
        <mxCell id="4y1hLskT0BKTg-PHN_sV-14" value="Read_Enable" style="text;strokeColor=none;fillColor=none;align=left;verticalAlign=middle;spacingLeft=4;spacingRight=4;overflow=hidden;points=[[0,0.5],[1,0.5]];portConstraint=eastwest;rotatable=0;whiteSpace=wrap;html=1;movable=0;resizable=0;deletable=0;editable=0;locked=1;connectable=0;rounded=1;labelBackgroundColor=none;" parent="4y1hLskT0BKTg-PHN_sV-12" vertex="1">
          <mxGeometry y="60" width="140" height="30" as="geometry" />
        </mxCell>
        <mxCell id="wvbiDA6VCalBJLXo1PWG-3" value="Read_Unsigned" style="text;strokeColor=none;fillColor=none;align=left;verticalAlign=middle;spacingLeft=4;spacingRight=4;overflow=hidden;points=[[0,0.5],[1,0.5]];portConstraint=eastwest;rotatable=0;whiteSpace=wrap;html=1;movable=0;resizable=0;deletable=0;editable=0;locked=1;connectable=0;rounded=1;labelBackgroundColor=none;" vertex="1" parent="4y1hLskT0BKTg-PHN_sV-12">
          <mxGeometry y="90" width="140" height="30" as="geometry" />
        </mxCell>
        <mxCell id="wvbiDA6VCalBJLXo1PWG-2" value="Data_Width" style="text;strokeColor=none;fillColor=none;align=left;verticalAlign=middle;spacingLeft=4;spacingRight=4;overflow=hidden;points=[[0,0.5],[1,0.5]];portConstraint=eastwest;rotatable=0;whiteSpace=wrap;html=1;movable=0;resizable=0;deletable=0;editable=0;locked=1;connectable=0;rounded=1;labelBackgroundColor=none;" vertex="1" parent="4y1hLskT0BKTg-PHN_sV-12">
          <mxGeometry y="120" width="140" height="30" as="geometry" />
        </mxCell>
        <mxCell id="4y1hLskT0BKTg-PHN_sV-15" value="Address" style="text;strokeColor=none;fillColor=none;align=left;verticalAlign=middle;spacingLeft=4;spacingRight=4;overflow=hidden;points=[[0,0.5],[1,0.5]];portConstraint=eastwest;rotatable=0;whiteSpace=wrap;html=1;movable=0;resizable=0;deletable=0;editable=0;locked=1;connectable=0;rounded=1;labelBackgroundColor=none;" parent="4y1hLskT0BKTg-PHN_sV-12" vertex="1">
          <mxGeometry y="150" width="140" height="30" as="geometry" />
        </mxCell>
        <mxCell id="4y1hLskT0BKTg-PHN_sV-16" value="Out_Data" style="text;strokeColor=none;fillColor=none;align=right;verticalAlign=middle;spacingLeft=4;spacingRight=4;overflow=hidden;points=[[0,0.5],[1,0.5]];portConstraint=eastwest;rotatable=0;whiteSpace=wrap;html=1;movable=0;resizable=0;deletable=0;editable=0;locked=1;connectable=0;rounded=1;labelBackgroundColor=none;" parent="4y1hLskT0BKTg-PHN_sV-12" vertex="1">
          <mxGeometry y="180" width="140" height="30" as="geometry" />
        </mxCell>
        <mxCell id="4y1hLskT0BKTg-PHN_sV-17" style="edgeStyle=orthogonalEdgeStyle;rounded=1;orthogonalLoop=1;jettySize=auto;html=1;exitX=1;exitY=0.5;exitDx=0;exitDy=0;entryX=0.098;entryY=0.378;entryDx=0;entryDy=0;entryPerimeter=0;movable=0;resizable=0;rotatable=0;deletable=0;editable=0;locked=1;connectable=0;labelBackgroundColor=none;fontColor=default;" parent="1" source="4y1hLskT0BKTg-PHN_sV-16" target="KgeHwVZJBMbFdhlrKOKl-227" edge="1">
          <mxGeometry relative="1" as="geometry" />
        </mxCell>
        <mxCell id="4y1hLskT0BKTg-PHN_sV-18" style="edgeStyle=orthogonalEdgeStyle;rounded=1;orthogonalLoop=1;jettySize=auto;html=1;entryX=0;entryY=0.5;entryDx=0;entryDy=0;exitX=0.831;exitY=0.471;exitDx=0;exitDy=0;exitPerimeter=0;movable=0;resizable=0;rotatable=0;deletable=0;editable=0;locked=1;connectable=0;labelBackgroundColor=none;fontColor=default;" parent="1" source="KgeHwVZJBMbFdhlrKOKl-223" target="4y1hLskT0BKTg-PHN_sV-15" edge="1">
          <mxGeometry relative="1" as="geometry">
            <mxPoint x="-1420" y="100" as="targetPoint" />
            <mxPoint x="-1380" y="470" as="sourcePoint" />
            <Array as="points">
              <mxPoint x="-1359" y="75" />
            </Array>
          </mxGeometry>
        </mxCell>
        <mxCell id="4y1hLskT0BKTg-PHN_sV-22" style="edgeStyle=orthogonalEdgeStyle;rounded=1;orthogonalLoop=1;jettySize=auto;html=1;entryX=0;entryY=0.5;entryDx=0;entryDy=0;exitX=0.865;exitY=0.241;exitDx=0;exitDy=0;exitPerimeter=0;movable=0;resizable=0;rotatable=0;deletable=0;editable=0;locked=1;connectable=0;labelBackgroundColor=none;fontColor=default;" parent="1" source="KgeHwVZJBMbFdhlrKOKl-260" target="4y1hLskT0BKTg-PHN_sV-14" edge="1">
          <mxGeometry relative="1" as="geometry">
            <mxPoint x="-1520" y="325" as="targetPoint" />
            <mxPoint x="-1400" y="520" as="sourcePoint" />
            <Array as="points">
              <mxPoint x="-1400" y="-15" />
            </Array>
          </mxGeometry>
        </mxCell>
        <mxCell id="4y1hLskT0BKTg-PHN_sV-23" value="[0]" style="edgeLabel;html=1;align=center;verticalAlign=middle;resizable=0;points=[];movable=0;rotatable=0;deletable=0;editable=0;locked=1;connectable=0;rounded=1;labelBackgroundColor=none;" parent="4y1hLskT0BKTg-PHN_sV-22" vertex="1" connectable="0">
          <mxGeometry x="-0.9783" relative="1" as="geometry">
            <mxPoint as="offset" />
          </mxGeometry>
        </mxCell>
        <mxCell id="whuLmdMLX3CjX6OAiulU-153" value="Address Space Map" style="shape=table;startSize=30;container=1;collapsible=0;childLayout=tableLayout;movable=0;resizable=0;rotatable=0;deletable=0;editable=0;locked=1;connectable=0;rounded=1;labelBackgroundColor=none;" parent="1" vertex="1">
          <mxGeometry x="-2380" y="-470" width="180" height="140" as="geometry" />
        </mxCell>
        <mxCell id="whuLmdMLX3CjX6OAiulU-154" value="" style="shape=tableRow;horizontal=0;startSize=0;swimlaneHead=0;swimlaneBody=0;top=0;left=0;bottom=0;right=0;collapsible=0;dropTarget=0;fillColor=none;points=[[0,0.5],[1,0.5]];portConstraint=eastwest;movable=0;resizable=0;rotatable=0;deletable=0;editable=0;locked=1;connectable=0;rounded=1;labelBackgroundColor=none;" parent="whuLmdMLX3CjX6OAiulU-153" vertex="1">
          <mxGeometry y="30" width="180" height="55" as="geometry" />
        </mxCell>
        <mxCell id="whuLmdMLX3CjX6OAiulU-155" value="0x0001 FFFF&lt;br&gt;-&lt;br&gt;0x0001 0000" style="shape=partialRectangle;html=1;whiteSpace=wrap;connectable=0;overflow=hidden;fillColor=none;top=0;left=0;bottom=0;right=0;pointerEvents=1;movable=0;resizable=0;rotatable=0;deletable=0;editable=0;locked=1;rounded=1;labelBackgroundColor=none;" parent="whuLmdMLX3CjX6OAiulU-154" vertex="1">
          <mxGeometry width="90" height="55" as="geometry">
            <mxRectangle width="90" height="55" as="alternateBounds" />
          </mxGeometry>
        </mxCell>
        <mxCell id="whuLmdMLX3CjX6OAiulU-156" value="General RAM" style="shape=partialRectangle;html=1;whiteSpace=wrap;connectable=0;overflow=hidden;fillColor=none;top=0;left=0;bottom=0;right=0;pointerEvents=1;movable=0;resizable=0;rotatable=0;deletable=0;editable=0;locked=1;rounded=1;labelBackgroundColor=none;" parent="whuLmdMLX3CjX6OAiulU-154" vertex="1">
          <mxGeometry x="90" width="90" height="55" as="geometry">
            <mxRectangle width="90" height="55" as="alternateBounds" />
          </mxGeometry>
        </mxCell>
        <mxCell id="whuLmdMLX3CjX6OAiulU-157" value="" style="shape=tableRow;horizontal=0;startSize=0;swimlaneHead=0;swimlaneBody=0;top=0;left=0;bottom=0;right=0;collapsible=0;dropTarget=0;fillColor=none;points=[[0,0.5],[1,0.5]];portConstraint=eastwest;movable=0;resizable=0;rotatable=0;deletable=0;editable=0;locked=1;connectable=0;rounded=1;labelBackgroundColor=none;" parent="whuLmdMLX3CjX6OAiulU-153" vertex="1">
          <mxGeometry y="85" width="180" height="55" as="geometry" />
        </mxCell>
        <mxCell id="whuLmdMLX3CjX6OAiulU-158" value="0x0000 FFFF&lt;br&gt;-&lt;br&gt;0x0000 0000" style="shape=partialRectangle;html=1;whiteSpace=wrap;connectable=0;overflow=hidden;fillColor=none;top=0;left=0;bottom=0;right=0;pointerEvents=1;movable=0;resizable=0;rotatable=0;deletable=0;editable=0;locked=1;rounded=1;labelBackgroundColor=none;" parent="whuLmdMLX3CjX6OAiulU-157" vertex="1">
          <mxGeometry width="90" height="55" as="geometry">
            <mxRectangle width="90" height="55" as="alternateBounds" />
          </mxGeometry>
        </mxCell>
        <mxCell id="whuLmdMLX3CjX6OAiulU-159" value="Firmware ROM" style="shape=partialRectangle;html=1;whiteSpace=wrap;connectable=0;overflow=hidden;fillColor=none;top=0;left=0;bottom=0;right=0;pointerEvents=1;movable=0;resizable=0;rotatable=0;deletable=0;editable=0;locked=1;rounded=1;labelBackgroundColor=none;" parent="whuLmdMLX3CjX6OAiulU-157" vertex="1">
          <mxGeometry x="90" width="90" height="55" as="geometry">
            <mxRectangle width="90" height="55" as="alternateBounds" />
          </mxGeometry>
        </mxCell>
        <mxCell id="i2NthTAIH1iRgAQdDC14-3" style="edgeStyle=orthogonalEdgeStyle;rounded=1;orthogonalLoop=1;jettySize=auto;html=1;exitX=1;exitY=0.5;exitDx=0;exitDy=0;entryX=0;entryY=0.5;entryDx=0;entryDy=0;movable=0;resizable=0;rotatable=0;deletable=0;editable=0;locked=1;connectable=0;labelBackgroundColor=none;fontColor=default;" parent="1" source="i2NthTAIH1iRgAQdDC14-2" target="i2NthTAIH1iRgAQdDC14-1" edge="1">
          <mxGeometry relative="1" as="geometry">
            <mxPoint x="730" y="-34.666666666666515" as="targetPoint" />
            <Array as="points">
              <mxPoint x="560" y="-35" />
              <mxPoint x="560" y="300" />
              <mxPoint x="650" y="300" />
              <mxPoint x="650" y="335" />
            </Array>
          </mxGeometry>
        </mxCell>
        <mxCell id="i2NthTAIH1iRgAQdDC14-13" style="edgeStyle=orthogonalEdgeStyle;rounded=1;orthogonalLoop=1;jettySize=auto;html=1;entryX=0;entryY=0.5;entryDx=0;entryDy=0;movable=0;resizable=0;rotatable=0;deletable=0;editable=0;locked=1;connectable=0;exitX=0.741;exitY=0.038;exitDx=0;exitDy=0;exitPerimeter=0;labelBackgroundColor=none;fontColor=default;" parent="1" source="KgeHwVZJBMbFdhlrKOKl-24" target="i2NthTAIH1iRgAQdDC14-22" edge="1">
          <mxGeometry relative="1" as="geometry">
            <mxPoint x="-230" y="462.7999999999997" as="targetPoint" />
            <mxPoint x="-360" y="680" as="sourcePoint" />
            <Array as="points">
              <mxPoint x="-290" y="425" />
            </Array>
          </mxGeometry>
        </mxCell>
        <mxCell id="i2NthTAIH1iRgAQdDC14-30" style="edgeStyle=orthogonalEdgeStyle;rounded=1;orthogonalLoop=1;jettySize=auto;html=1;exitX=0.5;exitY=0;exitDx=0;exitDy=0;entryX=0;entryY=0.5;entryDx=0;entryDy=0;movable=0;resizable=0;rotatable=0;deletable=0;editable=0;locked=1;connectable=0;labelBackgroundColor=none;fontColor=default;" parent="1" source="i2NthTAIH1iRgAQdDC14-28" target="KgeHwVZJBMbFdhlrKOKl-170" edge="1">
          <mxGeometry relative="1" as="geometry" />
        </mxCell>
        <mxCell id="i2NthTAIH1iRgAQdDC14-28" value="+4" style="ellipse;whiteSpace=wrap;html=1;aspect=fixed;rounded=1;movable=0;resizable=0;rotatable=0;deletable=0;editable=0;locked=1;connectable=0;labelBackgroundColor=none;" parent="1" vertex="1">
          <mxGeometry x="160" y="335" width="40" height="40" as="geometry" />
        </mxCell>
        <mxCell id="i2NthTAIH1iRgAQdDC14-29" style="edgeStyle=orthogonalEdgeStyle;rounded=1;orthogonalLoop=1;jettySize=auto;html=1;exitX=1;exitY=0.5;exitDx=0;exitDy=0;entryX=0.5;entryY=1;entryDx=0;entryDy=0;movable=0;resizable=0;rotatable=0;deletable=0;editable=0;locked=1;connectable=0;labelBackgroundColor=none;fontColor=default;" parent="1" source="KgeHwVZJBMbFdhlrKOKl-166" target="i2NthTAIH1iRgAQdDC14-28" edge="1">
          <mxGeometry relative="1" as="geometry" />
        </mxCell>
        <mxCell id="OfWz-LO3dDgRt9f-FgG2-2" style="edgeStyle=orthogonalEdgeStyle;rounded=1;orthogonalLoop=1;jettySize=auto;html=1;exitX=1;exitY=0.5;exitDx=0;exitDy=0;movable=0;resizable=0;rotatable=0;deletable=0;editable=0;locked=1;connectable=0;entryX=0;entryY=0.5;entryDx=0;entryDy=0;labelBackgroundColor=none;fontColor=default;" parent="1" source="KgeHwVZJBMbFdhlrKOKl-73" target="hyGkmQSomK8qtLZX06fx-2" edge="1">
          <mxGeometry relative="1" as="geometry">
            <mxPoint x="-520" y="-40" as="targetPoint" />
            <Array as="points">
              <mxPoint x="540" y="455" />
              <mxPoint x="540" y="570" />
              <mxPoint x="-550" y="570" />
              <mxPoint x="-550" y="-235" />
            </Array>
          </mxGeometry>
        </mxCell>
        <mxCell id="OfWz-LO3dDgRt9f-FgG2-5" value="" style="edgeStyle=orthogonalEdgeStyle;rounded=1;orthogonalLoop=1;jettySize=auto;html=1;entryX=0;entryY=0.5;entryDx=0;entryDy=0;exitX=0.5;exitY=1;exitDx=0;exitDy=0;movable=0;resizable=0;rotatable=0;deletable=0;editable=0;locked=1;connectable=0;labelBackgroundColor=none;fontColor=default;" parent="1" source="OfWz-LO3dDgRt9f-FgG2-3" target="OfWz-LO3dDgRt9f-FgG2-4" edge="1">
          <mxGeometry relative="1" as="geometry" />
        </mxCell>
        <mxCell id="OfWz-LO3dDgRt9f-FgG2-6" style="edgeStyle=orthogonalEdgeStyle;rounded=1;orthogonalLoop=1;jettySize=auto;html=1;exitX=0.5;exitY=1;exitDx=0;exitDy=0;entryX=0;entryY=0.5;entryDx=0;entryDy=0;movable=0;resizable=0;rotatable=0;deletable=0;editable=0;locked=1;connectable=0;labelBackgroundColor=none;fontColor=default;" parent="1" source="OfWz-LO3dDgRt9f-FgG2-3" target="OfWz-LO3dDgRt9f-FgG2-8" edge="1">
          <mxGeometry relative="1" as="geometry">
            <mxPoint x="-2980" y="-139.25" as="targetPoint" />
          </mxGeometry>
        </mxCell>
        <mxCell id="hyGkmQSomK8qtLZX06fx-23" style="edgeStyle=orthogonalEdgeStyle;rounded=1;orthogonalLoop=1;jettySize=auto;html=1;exitX=0.5;exitY=1;exitDx=0;exitDy=0;entryX=0;entryY=0.5;entryDx=0;entryDy=0;movable=0;resizable=0;rotatable=0;deletable=0;editable=0;locked=1;connectable=0;labelBackgroundColor=none;fontColor=default;" parent="1" source="OfWz-LO3dDgRt9f-FgG2-3" target="hyGkmQSomK8qtLZX06fx-20" edge="1">
          <mxGeometry relative="1" as="geometry" />
        </mxCell>
        <mxCell id="OfWz-LO3dDgRt9f-FgG2-3" value="Fetch Instruction" style="rounded=1;whiteSpace=wrap;html=1;movable=0;resizable=0;rotatable=0;deletable=0;editable=0;locked=1;connectable=0;labelBackgroundColor=none;" parent="1" vertex="1">
          <mxGeometry x="-3170" y="-389.25" width="120" height="60" as="geometry" />
        </mxCell>
        <mxCell id="OfWz-LO3dDgRt9f-FgG2-14" value="" style="edgeStyle=orthogonalEdgeStyle;rounded=1;orthogonalLoop=1;jettySize=auto;html=1;movable=0;resizable=0;rotatable=0;deletable=0;editable=0;locked=1;connectable=0;labelBackgroundColor=none;fontColor=default;entryX=0;entryY=0.5;entryDx=0;entryDy=0;" parent="1" source="OfWz-LO3dDgRt9f-FgG2-4" target="hyGkmQSomK8qtLZX06fx-45" edge="1">
          <mxGeometry relative="1" as="geometry">
            <mxPoint x="-2850" y="-239.25000000000023" as="targetPoint" />
          </mxGeometry>
        </mxCell>
        <mxCell id="OfWz-LO3dDgRt9f-FgG2-16" style="edgeStyle=orthogonalEdgeStyle;rounded=1;orthogonalLoop=1;jettySize=auto;html=1;exitX=0.5;exitY=0;exitDx=0;exitDy=0;entryX=0;entryY=0.5;entryDx=0;entryDy=0;movable=0;resizable=0;rotatable=0;deletable=0;editable=0;locked=1;connectable=0;labelBackgroundColor=none;fontColor=default;" parent="1" source="OfWz-LO3dDgRt9f-FgG2-4" target="OfWz-LO3dDgRt9f-FgG2-17" edge="1">
          <mxGeometry relative="1" as="geometry">
            <mxPoint x="-2920" y="-349.25" as="targetPoint" />
          </mxGeometry>
        </mxCell>
        <mxCell id="OfWz-LO3dDgRt9f-FgG2-24" style="edgeStyle=orthogonalEdgeStyle;rounded=1;orthogonalLoop=1;jettySize=auto;html=1;exitX=0.5;exitY=0;exitDx=0;exitDy=0;entryX=0;entryY=0.5;entryDx=0;entryDy=0;movable=0;resizable=0;rotatable=0;deletable=0;editable=0;locked=1;connectable=0;labelBackgroundColor=none;fontColor=default;" parent="1" source="OfWz-LO3dDgRt9f-FgG2-4" target="OfWz-LO3dDgRt9f-FgG2-22" edge="1">
          <mxGeometry relative="1" as="geometry" />
        </mxCell>
        <mxCell id="OfWz-LO3dDgRt9f-FgG2-4" value="ALU Operate" style="whiteSpace=wrap;html=1;rounded=1;movable=0;resizable=0;rotatable=0;deletable=0;editable=0;locked=1;connectable=0;labelBackgroundColor=none;" parent="1" vertex="1">
          <mxGeometry x="-3040" y="-269.25" width="120" height="60" as="geometry" />
        </mxCell>
        <mxCell id="OfWz-LO3dDgRt9f-FgG2-10" value="" style="edgeStyle=orthogonalEdgeStyle;rounded=1;orthogonalLoop=1;jettySize=auto;html=1;exitX=1;exitY=0.5;exitDx=0;exitDy=0;entryX=0;entryY=0.5;entryDx=0;entryDy=0;movable=0;resizable=0;rotatable=0;deletable=0;editable=0;locked=1;connectable=0;labelBackgroundColor=none;fontColor=default;" parent="1" source="OfWz-LO3dDgRt9f-FgG2-8" target="OfWz-LO3dDgRt9f-FgG2-9" edge="1">
          <mxGeometry relative="1" as="geometry">
            <mxPoint x="-2850" y="-129.25" as="sourcePoint" />
            <mxPoint x="-2790" y="-129.25" as="targetPoint" />
          </mxGeometry>
        </mxCell>
        <mxCell id="OfWz-LO3dDgRt9f-FgG2-8" value="RAS Pop to Temp" style="ellipse;whiteSpace=wrap;html=1;rounded=1;movable=0;resizable=0;rotatable=0;deletable=0;editable=0;locked=1;connectable=0;labelBackgroundColor=none;" parent="1" vertex="1">
          <mxGeometry x="-2980" y="-109.25" width="120" height="55" as="geometry" />
        </mxCell>
        <mxCell id="OfWz-LO3dDgRt9f-FgG2-12" value="" style="edgeStyle=orthogonalEdgeStyle;rounded=1;orthogonalLoop=1;jettySize=auto;html=1;exitX=1;exitY=0.5;exitDx=0;exitDy=0;entryX=0.5;entryY=1;entryDx=0;entryDy=0;movable=0;resizable=0;rotatable=0;deletable=0;editable=0;locked=1;connectable=0;labelBackgroundColor=none;fontColor=default;" parent="1" source="OfWz-LO3dDgRt9f-FgG2-9" target="OfWz-LO3dDgRt9f-FgG2-11" edge="1">
          <mxGeometry relative="1" as="geometry">
            <mxPoint x="-2600" y="-179.25" as="targetPoint" />
          </mxGeometry>
        </mxCell>
        <mxCell id="OfWz-LO3dDgRt9f-FgG2-9" value="RAS Push PC+4" style="ellipse;whiteSpace=wrap;html=1;rounded=1;movable=0;resizable=0;rotatable=0;deletable=0;editable=0;locked=1;connectable=0;labelBackgroundColor=none;" parent="1" vertex="1">
          <mxGeometry x="-2780" y="-109.25" width="120" height="55" as="geometry" />
        </mxCell>
        <mxCell id="OfWz-LO3dDgRt9f-FgG2-25" style="edgeStyle=orthogonalEdgeStyle;rounded=1;orthogonalLoop=1;jettySize=auto;html=1;exitX=1;exitY=0.5;exitDx=0;exitDy=0;entryX=1;entryY=0.5;entryDx=0;entryDy=0;movable=0;resizable=0;rotatable=0;deletable=0;editable=0;locked=1;connectable=0;labelBackgroundColor=none;fontColor=default;" parent="1" source="OfWz-LO3dDgRt9f-FgG2-11" target="OfWz-LO3dDgRt9f-FgG2-26" edge="1">
          <mxGeometry relative="1" as="geometry">
            <mxPoint x="-2770" y="-519.25" as="targetPoint" />
            <Array as="points">
              <mxPoint x="-2530" y="-239.25" />
              <mxPoint x="-2530" y="-521.25" />
              <mxPoint x="-2800" y="-521.25" />
            </Array>
          </mxGeometry>
        </mxCell>
        <mxCell id="OfWz-LO3dDgRt9f-FgG2-11" value="PC Next" style="whiteSpace=wrap;html=1;rounded=1;movable=0;resizable=0;rotatable=0;deletable=0;editable=0;locked=1;connectable=0;labelBackgroundColor=none;" parent="1" vertex="1">
          <mxGeometry x="-2670" y="-269.25" width="120" height="60" as="geometry" />
        </mxCell>
        <mxCell id="OfWz-LO3dDgRt9f-FgG2-15" style="edgeStyle=orthogonalEdgeStyle;rounded=1;orthogonalLoop=1;jettySize=auto;html=1;entryX=0;entryY=0.5;entryDx=0;entryDy=0;movable=0;resizable=0;rotatable=0;deletable=0;editable=0;locked=1;connectable=0;labelBackgroundColor=none;fontColor=default;exitX=1;exitY=0.5;exitDx=0;exitDy=0;" parent="1" source="hyGkmQSomK8qtLZX06fx-45" target="OfWz-LO3dDgRt9f-FgG2-11" edge="1">
          <mxGeometry relative="1" as="geometry">
            <mxPoint x="-2730" y="-239.25000000000023" as="sourcePoint" />
          </mxGeometry>
        </mxCell>
        <mxCell id="OfWz-LO3dDgRt9f-FgG2-18" style="edgeStyle=orthogonalEdgeStyle;rounded=1;orthogonalLoop=1;jettySize=auto;html=1;exitX=1;exitY=0.5;exitDx=0;exitDy=0;entryX=0;entryY=0.5;entryDx=0;entryDy=0;movable=0;resizable=0;rotatable=0;deletable=0;editable=0;locked=1;connectable=0;labelBackgroundColor=none;fontColor=default;" parent="1" source="OfWz-LO3dDgRt9f-FgG2-17" target="OfWz-LO3dDgRt9f-FgG2-19" edge="1">
          <mxGeometry relative="1" as="geometry">
            <mxPoint x="-2770" y="-329.25" as="targetPoint" />
            <mxPoint x="-2800" y="-329.25" as="sourcePoint" />
          </mxGeometry>
        </mxCell>
        <mxCell id="OfWz-LO3dDgRt9f-FgG2-17" value="Register to dBus" style="whiteSpace=wrap;html=1;rounded=1;movable=0;resizable=0;rotatable=0;deletable=0;editable=0;locked=1;connectable=0;labelBackgroundColor=none;" parent="1" vertex="1">
          <mxGeometry x="-2930" y="-469.25" width="120" height="60" as="geometry" />
        </mxCell>
        <mxCell id="OfWz-LO3dDgRt9f-FgG2-21" style="edgeStyle=orthogonalEdgeStyle;rounded=1;orthogonalLoop=1;jettySize=auto;html=1;exitX=1;exitY=0.5;exitDx=0;exitDy=0;movable=0;resizable=0;rotatable=0;deletable=0;editable=0;locked=1;connectable=0;labelBackgroundColor=none;fontColor=default;" parent="1" source="OfWz-LO3dDgRt9f-FgG2-19" target="OfWz-LO3dDgRt9f-FgG2-11" edge="1">
          <mxGeometry relative="1" as="geometry" />
        </mxCell>
        <mxCell id="OfWz-LO3dDgRt9f-FgG2-19" value="External Write" style="whiteSpace=wrap;html=1;rounded=1;movable=0;resizable=0;rotatable=0;deletable=0;editable=0;locked=1;connectable=0;labelBackgroundColor=none;" parent="1" vertex="1">
          <mxGeometry x="-2770" y="-469.25" width="120" height="60" as="geometry" />
        </mxCell>
        <mxCell id="OfWz-LO3dDgRt9f-FgG2-23" style="edgeStyle=orthogonalEdgeStyle;rounded=1;orthogonalLoop=1;jettySize=auto;html=1;entryX=0.5;entryY=0;entryDx=0;entryDy=0;exitX=1;exitY=0.5;exitDx=0;exitDy=0;movable=0;resizable=0;rotatable=0;deletable=0;editable=0;locked=1;connectable=0;labelBackgroundColor=none;fontColor=default;" parent="1" source="OfWz-LO3dDgRt9f-FgG2-22" target="hyGkmQSomK8qtLZX06fx-45" edge="1">
          <mxGeometry relative="1" as="geometry">
            <mxPoint x="-2790" y="-269.2500000000002" as="targetPoint" />
          </mxGeometry>
        </mxCell>
        <mxCell id="OfWz-LO3dDgRt9f-FgG2-22" value="External Read" style="whiteSpace=wrap;html=1;rounded=1;movable=0;resizable=0;rotatable=0;deletable=0;editable=0;locked=1;connectable=0;labelBackgroundColor=none;" parent="1" vertex="1">
          <mxGeometry x="-2940" y="-369.25" width="120" height="60" as="geometry" />
        </mxCell>
        <mxCell id="OfWz-LO3dDgRt9f-FgG2-27" style="edgeStyle=orthogonalEdgeStyle;rounded=1;orthogonalLoop=1;jettySize=auto;html=1;exitX=0;exitY=0.5;exitDx=0;exitDy=0;movable=0;resizable=0;rotatable=0;deletable=0;editable=0;locked=1;connectable=0;labelBackgroundColor=none;fontColor=default;" parent="1" source="OfWz-LO3dDgRt9f-FgG2-26" target="OfWz-LO3dDgRt9f-FgG2-3" edge="1">
          <mxGeometry relative="1" as="geometry" />
        </mxCell>
        <mxCell id="OfWz-LO3dDgRt9f-FgG2-26" value="Reg store pop temp" style="ellipse;whiteSpace=wrap;html=1;rounded=1;movable=0;resizable=0;rotatable=0;deletable=0;editable=0;locked=1;connectable=0;labelBackgroundColor=none;" parent="1" vertex="1">
          <mxGeometry x="-2950" y="-549.25" width="150" height="55" as="geometry" />
        </mxCell>
        <mxCell id="OfWz-LO3dDgRt9f-FgG2-43" value="" style="shape=table;startSize=0;container=1;collapsible=0;childLayout=tableLayout;rounded=1;movable=0;resizable=0;rotatable=0;deletable=0;editable=0;locked=1;connectable=0;labelBackgroundColor=none;" parent="1" vertex="1">
          <mxGeometry x="-3090" y="30" width="540" height="520" as="geometry" />
        </mxCell>
        <mxCell id="OfWz-LO3dDgRt9f-FgG2-44" value="" style="shape=tableRow;horizontal=0;startSize=0;swimlaneHead=0;swimlaneBody=0;top=0;left=0;bottom=0;right=0;collapsible=0;dropTarget=0;fillColor=none;points=[[0,0.5],[1,0.5]];portConstraint=eastwest;rounded=1;movable=0;resizable=0;rotatable=0;deletable=0;editable=0;locked=1;connectable=0;labelBackgroundColor=none;" parent="OfWz-LO3dDgRt9f-FgG2-43" vertex="1">
          <mxGeometry width="540" height="40" as="geometry" />
        </mxCell>
        <mxCell id="OfWz-LO3dDgRt9f-FgG2-45" value="State Code" style="shape=partialRectangle;html=1;whiteSpace=wrap;connectable=0;overflow=hidden;fillColor=none;top=0;left=0;bottom=0;right=0;pointerEvents=1;rounded=1;movable=0;resizable=0;rotatable=0;deletable=0;editable=0;locked=1;labelBackgroundColor=none;" parent="OfWz-LO3dDgRt9f-FgG2-44" vertex="1">
          <mxGeometry width="70" height="40" as="geometry">
            <mxRectangle width="70" height="40" as="alternateBounds" />
          </mxGeometry>
        </mxCell>
        <mxCell id="OfWz-LO3dDgRt9f-FgG2-46" value="State Name" style="shape=partialRectangle;html=1;whiteSpace=wrap;connectable=0;overflow=hidden;fillColor=none;top=0;left=0;bottom=0;right=0;pointerEvents=1;rounded=1;movable=0;resizable=0;rotatable=0;deletable=0;editable=0;locked=1;labelBackgroundColor=none;" parent="OfWz-LO3dDgRt9f-FgG2-44" vertex="1">
          <mxGeometry x="70" width="140" height="40" as="geometry">
            <mxRectangle width="140" height="40" as="alternateBounds" />
          </mxGeometry>
        </mxCell>
        <mxCell id="OfWz-LO3dDgRt9f-FgG2-55" value="Clock Phase" style="shape=partialRectangle;html=1;whiteSpace=wrap;connectable=0;overflow=hidden;fillColor=none;top=0;left=0;bottom=0;right=0;pointerEvents=1;rounded=1;movable=0;resizable=0;rotatable=0;deletable=0;editable=0;locked=1;labelBackgroundColor=none;" parent="OfWz-LO3dDgRt9f-FgG2-44" vertex="1">
          <mxGeometry x="210" width="50" height="40" as="geometry">
            <mxRectangle width="50" height="40" as="alternateBounds" />
          </mxGeometry>
        </mxCell>
        <mxCell id="OfWz-LO3dDgRt9f-FgG2-47" value="Description" style="shape=partialRectangle;html=1;whiteSpace=wrap;connectable=0;overflow=hidden;fillColor=none;top=0;left=0;bottom=0;right=0;pointerEvents=1;rounded=1;movable=0;resizable=0;rotatable=0;deletable=0;editable=0;locked=1;labelBackgroundColor=none;" parent="OfWz-LO3dDgRt9f-FgG2-44" vertex="1">
          <mxGeometry x="260" width="280" height="40" as="geometry">
            <mxRectangle width="280" height="40" as="alternateBounds" />
          </mxGeometry>
        </mxCell>
        <mxCell id="OfWz-LO3dDgRt9f-FgG2-48" value="" style="shape=tableRow;horizontal=0;startSize=0;swimlaneHead=0;swimlaneBody=0;top=0;left=0;bottom=0;right=0;collapsible=0;dropTarget=0;fillColor=none;points=[[0,0.5],[1,0.5]];portConstraint=eastwest;rounded=1;movable=0;resizable=0;rotatable=0;deletable=0;editable=0;locked=1;connectable=0;labelBackgroundColor=none;" parent="OfWz-LO3dDgRt9f-FgG2-43" vertex="1">
          <mxGeometry y="40" width="540" height="40" as="geometry" />
        </mxCell>
        <mxCell id="OfWz-LO3dDgRt9f-FgG2-49" value="000" style="shape=partialRectangle;html=1;whiteSpace=wrap;connectable=0;overflow=hidden;fillColor=none;top=0;left=0;bottom=0;right=0;pointerEvents=1;rounded=1;movable=0;resizable=0;rotatable=0;deletable=0;editable=0;locked=1;labelBackgroundColor=none;" parent="OfWz-LO3dDgRt9f-FgG2-48" vertex="1">
          <mxGeometry width="70" height="40" as="geometry">
            <mxRectangle width="70" height="40" as="alternateBounds" />
          </mxGeometry>
        </mxCell>
        <mxCell id="OfWz-LO3dDgRt9f-FgG2-50" value="Fetch Instruction" style="shape=partialRectangle;html=1;whiteSpace=wrap;connectable=0;overflow=hidden;fillColor=none;top=0;left=0;bottom=0;right=0;pointerEvents=1;rounded=1;movable=0;resizable=0;rotatable=0;deletable=0;editable=0;locked=1;labelBackgroundColor=none;" parent="OfWz-LO3dDgRt9f-FgG2-48" vertex="1">
          <mxGeometry x="70" width="140" height="40" as="geometry">
            <mxRectangle width="140" height="40" as="alternateBounds" />
          </mxGeometry>
        </mxCell>
        <mxCell id="OfWz-LO3dDgRt9f-FgG2-56" value="Rise 0" style="shape=partialRectangle;html=1;whiteSpace=wrap;connectable=0;overflow=hidden;fillColor=none;top=0;left=0;bottom=0;right=0;pointerEvents=1;rounded=1;movable=0;resizable=0;rotatable=0;deletable=0;editable=0;locked=1;labelBackgroundColor=none;" parent="OfWz-LO3dDgRt9f-FgG2-48" vertex="1">
          <mxGeometry x="210" width="50" height="40" as="geometry">
            <mxRectangle width="50" height="40" as="alternateBounds" />
          </mxGeometry>
        </mxCell>
        <mxCell id="OfWz-LO3dDgRt9f-FgG2-51" value="Load PC to Address Bus" style="shape=partialRectangle;html=1;whiteSpace=wrap;connectable=0;overflow=hidden;fillColor=none;top=0;left=0;bottom=0;right=0;pointerEvents=1;rounded=1;movable=0;resizable=0;rotatable=0;deletable=0;editable=0;locked=1;labelBackgroundColor=none;" parent="OfWz-LO3dDgRt9f-FgG2-48" vertex="1">
          <mxGeometry x="260" width="280" height="40" as="geometry">
            <mxRectangle width="280" height="40" as="alternateBounds" />
          </mxGeometry>
        </mxCell>
        <mxCell id="OfWz-LO3dDgRt9f-FgG2-126" style="shape=tableRow;horizontal=0;startSize=0;swimlaneHead=0;swimlaneBody=0;top=0;left=0;bottom=0;right=0;collapsible=0;dropTarget=0;fillColor=none;points=[[0,0.5],[1,0.5]];portConstraint=eastwest;rounded=1;movable=0;resizable=0;rotatable=0;deletable=0;editable=0;locked=1;connectable=0;labelBackgroundColor=none;" parent="OfWz-LO3dDgRt9f-FgG2-43" vertex="1">
          <mxGeometry y="80" width="540" height="40" as="geometry" />
        </mxCell>
        <mxCell id="OfWz-LO3dDgRt9f-FgG2-127" value="001" style="shape=partialRectangle;html=1;whiteSpace=wrap;connectable=0;overflow=hidden;fillColor=none;top=0;left=0;bottom=0;right=0;pointerEvents=1;rounded=1;movable=0;resizable=0;rotatable=0;deletable=0;editable=0;locked=1;labelBackgroundColor=none;" parent="OfWz-LO3dDgRt9f-FgG2-126" vertex="1">
          <mxGeometry width="70" height="40" as="geometry">
            <mxRectangle width="70" height="40" as="alternateBounds" />
          </mxGeometry>
        </mxCell>
        <mxCell id="OfWz-LO3dDgRt9f-FgG2-128" style="shape=partialRectangle;html=1;whiteSpace=wrap;connectable=0;overflow=hidden;fillColor=none;top=0;left=0;bottom=0;right=0;pointerEvents=1;rounded=1;movable=0;resizable=0;rotatable=0;deletable=0;editable=0;locked=1;labelBackgroundColor=none;" parent="OfWz-LO3dDgRt9f-FgG2-126" vertex="1">
          <mxGeometry x="70" width="140" height="40" as="geometry">
            <mxRectangle width="140" height="40" as="alternateBounds" />
          </mxGeometry>
        </mxCell>
        <mxCell id="OfWz-LO3dDgRt9f-FgG2-129" value="Fall 0" style="shape=partialRectangle;html=1;whiteSpace=wrap;connectable=0;overflow=hidden;fillColor=none;top=0;left=0;bottom=0;right=0;pointerEvents=1;rounded=1;movable=0;resizable=0;rotatable=0;deletable=0;editable=0;locked=1;labelBackgroundColor=none;" parent="OfWz-LO3dDgRt9f-FgG2-126" vertex="1">
          <mxGeometry x="210" width="50" height="40" as="geometry">
            <mxRectangle width="50" height="40" as="alternateBounds" />
          </mxGeometry>
        </mxCell>
        <mxCell id="OfWz-LO3dDgRt9f-FgG2-130" value="Read dBus to Instruction Register" style="shape=partialRectangle;html=1;whiteSpace=wrap;connectable=0;overflow=hidden;fillColor=none;top=0;left=0;bottom=0;right=0;pointerEvents=1;rounded=1;movable=0;resizable=0;rotatable=0;deletable=0;editable=0;locked=1;labelBackgroundColor=none;" parent="OfWz-LO3dDgRt9f-FgG2-126" vertex="1">
          <mxGeometry x="260" width="280" height="40" as="geometry">
            <mxRectangle width="280" height="40" as="alternateBounds" />
          </mxGeometry>
        </mxCell>
        <mxCell id="OfWz-LO3dDgRt9f-FgG2-112" style="shape=tableRow;horizontal=0;startSize=0;swimlaneHead=0;swimlaneBody=0;top=0;left=0;bottom=0;right=0;collapsible=0;dropTarget=0;fillColor=none;points=[[0,0.5],[1,0.5]];portConstraint=eastwest;rounded=1;movable=0;resizable=0;rotatable=0;deletable=0;editable=0;locked=1;connectable=0;labelBackgroundColor=none;" parent="OfWz-LO3dDgRt9f-FgG2-43" vertex="1">
          <mxGeometry y="120" width="540" height="40" as="geometry" />
        </mxCell>
        <mxCell id="OfWz-LO3dDgRt9f-FgG2-113" value="010" style="shape=partialRectangle;html=1;whiteSpace=wrap;connectable=0;overflow=hidden;fillColor=none;top=0;left=0;bottom=0;right=0;pointerEvents=1;rounded=1;movable=0;resizable=0;rotatable=0;deletable=0;editable=0;locked=1;labelBackgroundColor=none;" parent="OfWz-LO3dDgRt9f-FgG2-112" vertex="1">
          <mxGeometry width="70" height="40" as="geometry">
            <mxRectangle width="70" height="40" as="alternateBounds" />
          </mxGeometry>
        </mxCell>
        <mxCell id="OfWz-LO3dDgRt9f-FgG2-114" value="ALU Operate" style="shape=partialRectangle;html=1;whiteSpace=wrap;connectable=0;overflow=hidden;fillColor=none;top=0;left=0;bottom=0;right=0;pointerEvents=1;rounded=1;movable=0;resizable=0;rotatable=0;deletable=0;editable=0;locked=1;labelBackgroundColor=none;" parent="OfWz-LO3dDgRt9f-FgG2-112" vertex="1">
          <mxGeometry x="70" width="140" height="40" as="geometry">
            <mxRectangle width="140" height="40" as="alternateBounds" />
          </mxGeometry>
        </mxCell>
        <mxCell id="OfWz-LO3dDgRt9f-FgG2-115" value="Rise 1" style="shape=partialRectangle;html=1;whiteSpace=wrap;connectable=0;overflow=hidden;fillColor=none;top=0;left=0;bottom=0;right=0;pointerEvents=1;rounded=1;movable=0;resizable=0;rotatable=0;deletable=0;editable=0;locked=1;labelBackgroundColor=none;" parent="OfWz-LO3dDgRt9f-FgG2-112" vertex="1">
          <mxGeometry x="210" width="50" height="40" as="geometry">
            <mxRectangle width="50" height="40" as="alternateBounds" />
          </mxGeometry>
        </mxCell>
        <mxCell id="OfWz-LO3dDgRt9f-FgG2-116" value="Enable Arithmetic Logic Unit result" style="shape=partialRectangle;html=1;whiteSpace=wrap;connectable=0;overflow=hidden;fillColor=none;top=0;left=0;bottom=0;right=0;pointerEvents=1;rounded=1;movable=0;resizable=0;rotatable=0;deletable=0;editable=0;locked=1;labelBackgroundColor=none;" parent="OfWz-LO3dDgRt9f-FgG2-112" vertex="1">
          <mxGeometry x="260" width="280" height="40" as="geometry">
            <mxRectangle width="280" height="40" as="alternateBounds" />
          </mxGeometry>
        </mxCell>
        <mxCell id="OfWz-LO3dDgRt9f-FgG2-105" style="shape=tableRow;horizontal=0;startSize=0;swimlaneHead=0;swimlaneBody=0;top=0;left=0;bottom=0;right=0;collapsible=0;dropTarget=0;fillColor=none;points=[[0,0.5],[1,0.5]];portConstraint=eastwest;rounded=1;movable=0;resizable=0;rotatable=0;deletable=0;editable=0;locked=1;connectable=0;labelBackgroundColor=none;" parent="OfWz-LO3dDgRt9f-FgG2-43" vertex="1">
          <mxGeometry y="160" width="540" height="40" as="geometry" />
        </mxCell>
        <mxCell id="OfWz-LO3dDgRt9f-FgG2-106" value="011" style="shape=partialRectangle;html=1;whiteSpace=wrap;connectable=0;overflow=hidden;fillColor=none;top=0;left=0;bottom=0;right=0;pointerEvents=1;rounded=1;movable=0;resizable=0;rotatable=0;deletable=0;editable=0;locked=1;labelBackgroundColor=none;" parent="OfWz-LO3dDgRt9f-FgG2-105" vertex="1">
          <mxGeometry width="70" height="40" as="geometry">
            <mxRectangle width="70" height="40" as="alternateBounds" />
          </mxGeometry>
        </mxCell>
        <mxCell id="OfWz-LO3dDgRt9f-FgG2-107" value="Store to Register" style="shape=partialRectangle;html=1;whiteSpace=wrap;connectable=0;overflow=hidden;fillColor=none;top=0;left=0;bottom=0;right=0;pointerEvents=1;rounded=1;movable=0;resizable=0;rotatable=0;deletable=0;editable=0;locked=1;labelBackgroundColor=none;" parent="OfWz-LO3dDgRt9f-FgG2-105" vertex="1">
          <mxGeometry x="70" width="140" height="40" as="geometry">
            <mxRectangle width="140" height="40" as="alternateBounds" />
          </mxGeometry>
        </mxCell>
        <mxCell id="OfWz-LO3dDgRt9f-FgG2-108" value="Fall 1" style="shape=partialRectangle;html=1;whiteSpace=wrap;connectable=0;overflow=hidden;fillColor=none;top=0;left=0;bottom=0;right=0;pointerEvents=1;rounded=1;movable=0;resizable=0;rotatable=0;deletable=0;editable=0;locked=1;labelBackgroundColor=none;" parent="OfWz-LO3dDgRt9f-FgG2-105" vertex="1">
          <mxGeometry x="210" width="50" height="40" as="geometry">
            <mxRectangle width="50" height="40" as="alternateBounds" />
          </mxGeometry>
        </mxCell>
        <mxCell id="OfWz-LO3dDgRt9f-FgG2-109" value="Read Data Bus to General Register" style="shape=partialRectangle;html=1;whiteSpace=wrap;connectable=0;overflow=hidden;fillColor=none;top=0;left=0;bottom=0;right=0;pointerEvents=1;rounded=1;movable=0;resizable=0;rotatable=0;deletable=0;editable=0;locked=1;labelBackgroundColor=none;" parent="OfWz-LO3dDgRt9f-FgG2-105" vertex="1">
          <mxGeometry x="260" width="280" height="40" as="geometry">
            <mxRectangle width="280" height="40" as="alternateBounds" />
          </mxGeometry>
        </mxCell>
        <mxCell id="OfWz-LO3dDgRt9f-FgG2-98" style="shape=tableRow;horizontal=0;startSize=0;swimlaneHead=0;swimlaneBody=0;top=0;left=0;bottom=0;right=0;collapsible=0;dropTarget=0;fillColor=none;points=[[0,0.5],[1,0.5]];portConstraint=eastwest;rounded=1;movable=0;resizable=0;rotatable=0;deletable=0;editable=0;locked=1;connectable=0;labelBackgroundColor=none;" parent="OfWz-LO3dDgRt9f-FgG2-43" vertex="1">
          <mxGeometry y="200" width="540" height="40" as="geometry" />
        </mxCell>
        <mxCell id="OfWz-LO3dDgRt9f-FgG2-99" value="100" style="shape=partialRectangle;html=1;whiteSpace=wrap;connectable=0;overflow=hidden;fillColor=none;top=0;left=0;bottom=0;right=0;pointerEvents=1;rounded=1;movable=0;resizable=0;rotatable=0;deletable=0;editable=0;locked=1;labelBackgroundColor=none;" parent="OfWz-LO3dDgRt9f-FgG2-98" vertex="1">
          <mxGeometry width="70" height="40" as="geometry">
            <mxRectangle width="70" height="40" as="alternateBounds" />
          </mxGeometry>
        </mxCell>
        <mxCell id="OfWz-LO3dDgRt9f-FgG2-100" value="PC Next" style="shape=partialRectangle;html=1;whiteSpace=wrap;connectable=0;overflow=hidden;fillColor=none;top=0;left=0;bottom=0;right=0;pointerEvents=1;rounded=1;movable=0;resizable=0;rotatable=0;deletable=0;editable=0;locked=1;labelBackgroundColor=none;" parent="OfWz-LO3dDgRt9f-FgG2-98" vertex="1">
          <mxGeometry x="70" width="140" height="40" as="geometry">
            <mxRectangle width="140" height="40" as="alternateBounds" />
          </mxGeometry>
        </mxCell>
        <mxCell id="OfWz-LO3dDgRt9f-FgG2-101" value="Rise 2" style="shape=partialRectangle;html=1;whiteSpace=wrap;connectable=0;overflow=hidden;fillColor=none;top=0;left=0;bottom=0;right=0;pointerEvents=1;rounded=1;movable=0;resizable=0;rotatable=0;deletable=0;editable=0;locked=1;labelBackgroundColor=none;" parent="OfWz-LO3dDgRt9f-FgG2-98" vertex="1">
          <mxGeometry x="210" width="50" height="40" as="geometry">
            <mxRectangle width="50" height="40" as="alternateBounds" />
          </mxGeometry>
        </mxCell>
        <mxCell id="OfWz-LO3dDgRt9f-FgG2-102" value="PC Load Next Instruction Address" style="shape=partialRectangle;html=1;whiteSpace=wrap;connectable=0;overflow=hidden;fillColor=none;top=0;left=0;bottom=0;right=0;pointerEvents=1;rounded=1;movable=0;resizable=0;rotatable=0;deletable=0;editable=0;locked=1;labelBackgroundColor=none;" parent="OfWz-LO3dDgRt9f-FgG2-98" vertex="1">
          <mxGeometry x="260" width="280" height="40" as="geometry">
            <mxRectangle width="280" height="40" as="alternateBounds" />
          </mxGeometry>
        </mxCell>
        <mxCell id="hyGkmQSomK8qtLZX06fx-25" style="shape=tableRow;horizontal=0;startSize=0;swimlaneHead=0;swimlaneBody=0;top=0;left=0;bottom=0;right=0;collapsible=0;dropTarget=0;fillColor=none;points=[[0,0.5],[1,0.5]];portConstraint=eastwest;rounded=1;movable=0;resizable=0;rotatable=0;deletable=0;editable=0;locked=1;connectable=0;labelBackgroundColor=none;" parent="OfWz-LO3dDgRt9f-FgG2-43" vertex="1">
          <mxGeometry y="240" width="540" height="40" as="geometry" />
        </mxCell>
        <mxCell id="hyGkmQSomK8qtLZX06fx-26" value="010" style="shape=partialRectangle;html=1;whiteSpace=wrap;connectable=0;overflow=hidden;fillColor=none;top=0;left=0;bottom=0;right=0;pointerEvents=1;rounded=1;movable=0;resizable=0;rotatable=0;deletable=0;editable=0;locked=1;labelBackgroundColor=none;" parent="hyGkmQSomK8qtLZX06fx-25" vertex="1">
          <mxGeometry width="70" height="40" as="geometry">
            <mxRectangle width="70" height="40" as="alternateBounds" />
          </mxGeometry>
        </mxCell>
        <mxCell id="hyGkmQSomK8qtLZX06fx-27" value="Immediate Num to dBus" style="shape=partialRectangle;html=1;whiteSpace=wrap;connectable=0;overflow=hidden;fillColor=none;top=0;left=0;bottom=0;right=0;pointerEvents=1;rounded=1;movable=0;resizable=0;rotatable=0;deletable=0;editable=0;locked=1;labelBackgroundColor=none;" parent="hyGkmQSomK8qtLZX06fx-25" vertex="1">
          <mxGeometry x="70" width="140" height="40" as="geometry">
            <mxRectangle width="140" height="40" as="alternateBounds" />
          </mxGeometry>
        </mxCell>
        <mxCell id="hyGkmQSomK8qtLZX06fx-28" value="Rise 1" style="shape=partialRectangle;html=1;whiteSpace=wrap;connectable=0;overflow=hidden;fillColor=none;top=0;left=0;bottom=0;right=0;pointerEvents=1;rounded=1;movable=0;resizable=0;rotatable=0;deletable=0;editable=0;locked=1;labelBackgroundColor=none;" parent="hyGkmQSomK8qtLZX06fx-25" vertex="1">
          <mxGeometry x="210" width="50" height="40" as="geometry">
            <mxRectangle width="50" height="40" as="alternateBounds" />
          </mxGeometry>
        </mxCell>
        <mxCell id="hyGkmQSomK8qtLZX06fx-29" value="Load Immediate Number to Data Bus" style="shape=partialRectangle;html=1;whiteSpace=wrap;connectable=0;overflow=hidden;fillColor=none;top=0;left=0;bottom=0;right=0;pointerEvents=1;rounded=1;movable=0;resizable=0;rotatable=0;deletable=0;editable=0;locked=1;labelBackgroundColor=none;" parent="hyGkmQSomK8qtLZX06fx-25" vertex="1">
          <mxGeometry x="260" width="280" height="40" as="geometry">
            <mxRectangle width="280" height="40" as="alternateBounds" />
          </mxGeometry>
        </mxCell>
        <mxCell id="OfWz-LO3dDgRt9f-FgG2-91" style="shape=tableRow;horizontal=0;startSize=0;swimlaneHead=0;swimlaneBody=0;top=0;left=0;bottom=0;right=0;collapsible=0;dropTarget=0;fillColor=none;points=[[0,0.5],[1,0.5]];portConstraint=eastwest;rounded=1;movable=0;resizable=0;rotatable=0;deletable=0;editable=0;locked=1;connectable=0;labelBackgroundColor=none;" parent="OfWz-LO3dDgRt9f-FgG2-43" vertex="1">
          <mxGeometry y="280" width="540" height="40" as="geometry" />
        </mxCell>
        <mxCell id="OfWz-LO3dDgRt9f-FgG2-92" value="011" style="shape=partialRectangle;html=1;whiteSpace=wrap;connectable=0;overflow=hidden;fillColor=none;top=0;left=0;bottom=0;right=0;pointerEvents=1;rounded=1;movable=0;resizable=0;rotatable=0;deletable=0;editable=0;locked=1;labelBackgroundColor=none;" parent="OfWz-LO3dDgRt9f-FgG2-91" vertex="1">
          <mxGeometry width="70" height="40" as="geometry">
            <mxRectangle width="70" height="40" as="alternateBounds" />
          </mxGeometry>
        </mxCell>
        <mxCell id="OfWz-LO3dDgRt9f-FgG2-93" value="External Read" style="shape=partialRectangle;html=1;whiteSpace=wrap;connectable=0;overflow=hidden;fillColor=none;top=0;left=0;bottom=0;right=0;pointerEvents=1;rounded=1;movable=0;resizable=0;rotatable=0;deletable=0;editable=0;locked=1;labelBackgroundColor=none;" parent="OfWz-LO3dDgRt9f-FgG2-91" vertex="1">
          <mxGeometry x="70" width="140" height="40" as="geometry">
            <mxRectangle width="140" height="40" as="alternateBounds" />
          </mxGeometry>
        </mxCell>
        <mxCell id="OfWz-LO3dDgRt9f-FgG2-94" value="Fall 1" style="shape=partialRectangle;html=1;whiteSpace=wrap;connectable=0;overflow=hidden;fillColor=none;top=0;left=0;bottom=0;right=0;pointerEvents=1;rounded=1;movable=0;resizable=0;rotatable=0;deletable=0;editable=0;locked=1;labelBackgroundColor=none;" parent="OfWz-LO3dDgRt9f-FgG2-91" vertex="1">
          <mxGeometry x="210" width="50" height="40" as="geometry">
            <mxRectangle width="50" height="40" as="alternateBounds" />
          </mxGeometry>
        </mxCell>
        <mxCell id="OfWz-LO3dDgRt9f-FgG2-95" value="Enable External Read" style="shape=partialRectangle;html=1;whiteSpace=wrap;connectable=0;overflow=hidden;fillColor=none;top=0;left=0;bottom=0;right=0;pointerEvents=1;rounded=1;movable=0;resizable=0;rotatable=0;deletable=0;editable=0;locked=1;labelBackgroundColor=none;" parent="OfWz-LO3dDgRt9f-FgG2-91" vertex="1">
          <mxGeometry x="260" width="280" height="40" as="geometry">
            <mxRectangle width="280" height="40" as="alternateBounds" />
          </mxGeometry>
        </mxCell>
        <mxCell id="OfWz-LO3dDgRt9f-FgG2-84" style="shape=tableRow;horizontal=0;startSize=0;swimlaneHead=0;swimlaneBody=0;top=0;left=0;bottom=0;right=0;collapsible=0;dropTarget=0;fillColor=none;points=[[0,0.5],[1,0.5]];portConstraint=eastwest;rounded=1;movable=0;resizable=0;rotatable=0;deletable=0;editable=0;locked=1;connectable=0;labelBackgroundColor=none;" parent="OfWz-LO3dDgRt9f-FgG2-43" vertex="1">
          <mxGeometry y="320" width="540" height="40" as="geometry" />
        </mxCell>
        <mxCell id="OfWz-LO3dDgRt9f-FgG2-85" value="010" style="shape=partialRectangle;html=1;whiteSpace=wrap;connectable=0;overflow=hidden;fillColor=none;top=0;left=0;bottom=0;right=0;pointerEvents=1;rounded=1;movable=0;resizable=0;rotatable=0;deletable=0;editable=0;locked=1;labelBackgroundColor=none;" parent="OfWz-LO3dDgRt9f-FgG2-84" vertex="1">
          <mxGeometry width="70" height="40" as="geometry">
            <mxRectangle width="70" height="40" as="alternateBounds" />
          </mxGeometry>
        </mxCell>
        <mxCell id="OfWz-LO3dDgRt9f-FgG2-86" value="Register to dBus" style="shape=partialRectangle;html=1;whiteSpace=wrap;connectable=0;overflow=hidden;fillColor=none;top=0;left=0;bottom=0;right=0;pointerEvents=1;rounded=1;movable=0;resizable=0;rotatable=0;deletable=0;editable=0;locked=1;labelBackgroundColor=none;" parent="OfWz-LO3dDgRt9f-FgG2-84" vertex="1">
          <mxGeometry x="70" width="140" height="40" as="geometry">
            <mxRectangle width="140" height="40" as="alternateBounds" />
          </mxGeometry>
        </mxCell>
        <mxCell id="OfWz-LO3dDgRt9f-FgG2-87" value="Rise 1" style="shape=partialRectangle;html=1;whiteSpace=wrap;connectable=0;overflow=hidden;fillColor=none;top=0;left=0;bottom=0;right=0;pointerEvents=1;rounded=1;movable=0;resizable=0;rotatable=0;deletable=0;editable=0;locked=1;labelBackgroundColor=none;" parent="OfWz-LO3dDgRt9f-FgG2-84" vertex="1">
          <mxGeometry x="210" width="50" height="40" as="geometry">
            <mxRectangle width="50" height="40" as="alternateBounds" />
          </mxGeometry>
        </mxCell>
        <mxCell id="OfWz-LO3dDgRt9f-FgG2-88" value="Load rs2 to Data Bus" style="shape=partialRectangle;html=1;whiteSpace=wrap;connectable=0;overflow=hidden;fillColor=none;top=0;left=0;bottom=0;right=0;pointerEvents=1;rounded=1;movable=0;resizable=0;rotatable=0;deletable=0;editable=0;locked=1;labelBackgroundColor=none;" parent="OfWz-LO3dDgRt9f-FgG2-84" vertex="1">
          <mxGeometry x="260" width="280" height="40" as="geometry">
            <mxRectangle width="280" height="40" as="alternateBounds" />
          </mxGeometry>
        </mxCell>
        <mxCell id="OfWz-LO3dDgRt9f-FgG2-77" style="shape=tableRow;horizontal=0;startSize=0;swimlaneHead=0;swimlaneBody=0;top=0;left=0;bottom=0;right=0;collapsible=0;dropTarget=0;fillColor=none;points=[[0,0.5],[1,0.5]];portConstraint=eastwest;rounded=1;movable=0;resizable=0;rotatable=0;deletable=0;editable=0;locked=1;connectable=0;labelBackgroundColor=none;" parent="OfWz-LO3dDgRt9f-FgG2-43" vertex="1">
          <mxGeometry y="360" width="540" height="40" as="geometry" />
        </mxCell>
        <mxCell id="OfWz-LO3dDgRt9f-FgG2-78" value="011" style="shape=partialRectangle;html=1;whiteSpace=wrap;connectable=0;overflow=hidden;fillColor=none;top=0;left=0;bottom=0;right=0;pointerEvents=1;rounded=1;movable=0;resizable=0;rotatable=0;deletable=0;editable=0;locked=1;labelBackgroundColor=none;" parent="OfWz-LO3dDgRt9f-FgG2-77" vertex="1">
          <mxGeometry width="70" height="40" as="geometry">
            <mxRectangle width="70" height="40" as="alternateBounds" />
          </mxGeometry>
        </mxCell>
        <mxCell id="OfWz-LO3dDgRt9f-FgG2-79" value="External Write" style="shape=partialRectangle;html=1;whiteSpace=wrap;connectable=0;overflow=hidden;fillColor=none;top=0;left=0;bottom=0;right=0;pointerEvents=1;rounded=1;movable=0;resizable=0;rotatable=0;deletable=0;editable=0;locked=1;labelBackgroundColor=none;" parent="OfWz-LO3dDgRt9f-FgG2-77" vertex="1">
          <mxGeometry x="70" width="140" height="40" as="geometry">
            <mxRectangle width="140" height="40" as="alternateBounds" />
          </mxGeometry>
        </mxCell>
        <mxCell id="OfWz-LO3dDgRt9f-FgG2-80" value="Fall 1" style="shape=partialRectangle;html=1;whiteSpace=wrap;connectable=0;overflow=hidden;fillColor=none;top=0;left=0;bottom=0;right=0;pointerEvents=1;rounded=1;movable=0;resizable=0;rotatable=0;deletable=0;editable=0;locked=1;labelBackgroundColor=none;" parent="OfWz-LO3dDgRt9f-FgG2-77" vertex="1">
          <mxGeometry x="210" width="50" height="40" as="geometry">
            <mxRectangle width="50" height="40" as="alternateBounds" />
          </mxGeometry>
        </mxCell>
        <mxCell id="OfWz-LO3dDgRt9f-FgG2-81" value="Enable External Write" style="shape=partialRectangle;html=1;whiteSpace=wrap;connectable=0;overflow=hidden;fillColor=none;top=0;left=0;bottom=0;right=0;pointerEvents=1;rounded=1;movable=0;resizable=0;rotatable=0;deletable=0;editable=0;locked=1;labelBackgroundColor=none;" parent="OfWz-LO3dDgRt9f-FgG2-77" vertex="1">
          <mxGeometry x="260" width="280" height="40" as="geometry">
            <mxRectangle width="280" height="40" as="alternateBounds" />
          </mxGeometry>
        </mxCell>
        <mxCell id="OfWz-LO3dDgRt9f-FgG2-70" style="shape=tableRow;horizontal=0;startSize=0;swimlaneHead=0;swimlaneBody=0;top=0;left=0;bottom=0;right=0;collapsible=0;dropTarget=0;fillColor=none;points=[[0,0.5],[1,0.5]];portConstraint=eastwest;rounded=1;movable=0;resizable=0;rotatable=0;deletable=0;editable=0;locked=1;connectable=0;labelBackgroundColor=none;" parent="OfWz-LO3dDgRt9f-FgG2-43" vertex="1">
          <mxGeometry y="400" width="540" height="40" as="geometry" />
        </mxCell>
        <mxCell id="OfWz-LO3dDgRt9f-FgG2-71" value="010" style="shape=partialRectangle;html=1;whiteSpace=wrap;connectable=0;overflow=hidden;fillColor=none;top=0;left=0;bottom=0;right=0;pointerEvents=1;rounded=1;movable=0;resizable=0;rotatable=0;deletable=0;editable=0;locked=1;labelBackgroundColor=none;" parent="OfWz-LO3dDgRt9f-FgG2-70" vertex="1">
          <mxGeometry width="70" height="40" as="geometry">
            <mxRectangle width="70" height="40" as="alternateBounds" />
          </mxGeometry>
        </mxCell>
        <mxCell id="OfWz-LO3dDgRt9f-FgG2-72" value="RAS Pop to Temp" style="shape=partialRectangle;html=1;whiteSpace=wrap;connectable=0;overflow=hidden;fillColor=none;top=0;left=0;bottom=0;right=0;pointerEvents=1;rounded=1;movable=0;resizable=0;rotatable=0;deletable=0;editable=0;locked=1;labelBackgroundColor=none;" parent="OfWz-LO3dDgRt9f-FgG2-70" vertex="1">
          <mxGeometry x="70" width="140" height="40" as="geometry">
            <mxRectangle width="140" height="40" as="alternateBounds" />
          </mxGeometry>
        </mxCell>
        <mxCell id="OfWz-LO3dDgRt9f-FgG2-73" value="Rise 1" style="shape=partialRectangle;html=1;whiteSpace=wrap;connectable=0;overflow=hidden;fillColor=none;top=0;left=0;bottom=0;right=0;pointerEvents=1;rounded=1;movable=0;resizable=0;rotatable=0;deletable=0;editable=0;locked=1;labelBackgroundColor=none;" parent="OfWz-LO3dDgRt9f-FgG2-70" vertex="1">
          <mxGeometry x="210" width="50" height="40" as="geometry">
            <mxRectangle width="50" height="40" as="alternateBounds" />
          </mxGeometry>
        </mxCell>
        <mxCell id="OfWz-LO3dDgRt9f-FgG2-74" value="RAS pop Address to inner output buffer" style="shape=partialRectangle;html=1;whiteSpace=wrap;connectable=0;overflow=hidden;fillColor=none;top=0;left=0;bottom=0;right=0;pointerEvents=1;rounded=1;movable=0;resizable=0;rotatable=0;deletable=0;editable=0;locked=1;labelBackgroundColor=none;" parent="OfWz-LO3dDgRt9f-FgG2-70" vertex="1">
          <mxGeometry x="260" width="280" height="40" as="geometry">
            <mxRectangle width="280" height="40" as="alternateBounds" />
          </mxGeometry>
        </mxCell>
        <mxCell id="OfWz-LO3dDgRt9f-FgG2-63" style="shape=tableRow;horizontal=0;startSize=0;swimlaneHead=0;swimlaneBody=0;top=0;left=0;bottom=0;right=0;collapsible=0;dropTarget=0;fillColor=none;points=[[0,0.5],[1,0.5]];portConstraint=eastwest;rounded=1;movable=0;resizable=0;rotatable=0;deletable=0;editable=0;locked=1;connectable=0;labelBackgroundColor=none;" parent="OfWz-LO3dDgRt9f-FgG2-43" vertex="1">
          <mxGeometry y="440" width="540" height="40" as="geometry" />
        </mxCell>
        <mxCell id="OfWz-LO3dDgRt9f-FgG2-64" value="011" style="shape=partialRectangle;html=1;whiteSpace=wrap;connectable=0;overflow=hidden;fillColor=none;top=0;left=0;bottom=0;right=0;pointerEvents=1;rounded=1;movable=0;resizable=0;rotatable=0;deletable=0;editable=0;locked=1;labelBackgroundColor=none;" parent="OfWz-LO3dDgRt9f-FgG2-63" vertex="1">
          <mxGeometry width="70" height="40" as="geometry">
            <mxRectangle width="70" height="40" as="alternateBounds" />
          </mxGeometry>
        </mxCell>
        <mxCell id="OfWz-LO3dDgRt9f-FgG2-65" value="RAS Push PC+4" style="shape=partialRectangle;html=1;whiteSpace=wrap;connectable=0;overflow=hidden;fillColor=none;top=0;left=0;bottom=0;right=0;pointerEvents=1;rounded=1;movable=0;resizable=0;rotatable=0;deletable=0;editable=0;locked=1;labelBackgroundColor=none;" parent="OfWz-LO3dDgRt9f-FgG2-63" vertex="1">
          <mxGeometry x="70" width="140" height="40" as="geometry">
            <mxRectangle width="140" height="40" as="alternateBounds" />
          </mxGeometry>
        </mxCell>
        <mxCell id="OfWz-LO3dDgRt9f-FgG2-66" value="Fall 1" style="shape=partialRectangle;html=1;whiteSpace=wrap;connectable=0;overflow=hidden;fillColor=none;top=0;left=0;bottom=0;right=0;pointerEvents=1;rounded=1;movable=0;resizable=0;rotatable=0;deletable=0;editable=0;locked=1;labelBackgroundColor=none;" parent="OfWz-LO3dDgRt9f-FgG2-63" vertex="1">
          <mxGeometry x="210" width="50" height="40" as="geometry">
            <mxRectangle width="50" height="40" as="alternateBounds" />
          </mxGeometry>
        </mxCell>
        <mxCell id="OfWz-LO3dDgRt9f-FgG2-67" value="RAS Push PC+4" style="shape=partialRectangle;html=1;whiteSpace=wrap;connectable=0;overflow=hidden;fillColor=none;top=0;left=0;bottom=0;right=0;pointerEvents=1;rounded=1;movable=0;resizable=0;rotatable=0;deletable=0;editable=0;locked=1;labelBackgroundColor=none;" parent="OfWz-LO3dDgRt9f-FgG2-63" vertex="1">
          <mxGeometry x="260" width="280" height="40" as="geometry">
            <mxRectangle width="280" height="40" as="alternateBounds" />
          </mxGeometry>
        </mxCell>
        <mxCell id="OfWz-LO3dDgRt9f-FgG2-119" style="shape=tableRow;horizontal=0;startSize=0;swimlaneHead=0;swimlaneBody=0;top=0;left=0;bottom=0;right=0;collapsible=0;dropTarget=0;fillColor=none;points=[[0,0.5],[1,0.5]];portConstraint=eastwest;rounded=1;movable=0;resizable=0;rotatable=0;deletable=0;editable=0;locked=1;connectable=0;labelBackgroundColor=none;" parent="OfWz-LO3dDgRt9f-FgG2-43" vertex="1">
          <mxGeometry y="480" width="540" height="40" as="geometry" />
        </mxCell>
        <mxCell id="OfWz-LO3dDgRt9f-FgG2-120" value="101" style="shape=partialRectangle;html=1;whiteSpace=wrap;connectable=0;overflow=hidden;fillColor=none;top=0;left=0;bottom=0;right=0;pointerEvents=1;rounded=1;movable=0;resizable=0;rotatable=0;deletable=0;editable=0;locked=1;labelBackgroundColor=none;" parent="OfWz-LO3dDgRt9f-FgG2-119" vertex="1">
          <mxGeometry width="70" height="40" as="geometry">
            <mxRectangle width="70" height="40" as="alternateBounds" />
          </mxGeometry>
        </mxCell>
        <mxCell id="OfWz-LO3dDgRt9f-FgG2-121" value="Reg store pop temp" style="shape=partialRectangle;html=1;whiteSpace=wrap;connectable=0;overflow=hidden;fillColor=none;top=0;left=0;bottom=0;right=0;pointerEvents=1;rounded=1;movable=0;resizable=0;rotatable=0;deletable=0;editable=0;locked=1;labelBackgroundColor=none;" parent="OfWz-LO3dDgRt9f-FgG2-119" vertex="1">
          <mxGeometry x="70" width="140" height="40" as="geometry">
            <mxRectangle width="140" height="40" as="alternateBounds" />
          </mxGeometry>
        </mxCell>
        <mxCell id="OfWz-LO3dDgRt9f-FgG2-122" value="Fall 2" style="shape=partialRectangle;html=1;whiteSpace=wrap;connectable=0;overflow=hidden;fillColor=none;top=0;left=0;bottom=0;right=0;pointerEvents=1;rounded=1;movable=0;resizable=0;rotatable=0;deletable=0;editable=0;locked=1;labelBackgroundColor=none;" parent="OfWz-LO3dDgRt9f-FgG2-119" vertex="1">
          <mxGeometry x="210" width="50" height="40" as="geometry">
            <mxRectangle width="50" height="40" as="alternateBounds" />
          </mxGeometry>
        </mxCell>
        <mxCell id="OfWz-LO3dDgRt9f-FgG2-123" value="Register store Address in RAS inner output buffer" style="shape=partialRectangle;html=1;whiteSpace=wrap;connectable=0;overflow=hidden;fillColor=none;top=0;left=0;bottom=0;right=0;pointerEvents=1;rounded=1;movable=0;resizable=0;rotatable=0;deletable=0;editable=0;locked=1;labelBackgroundColor=none;" parent="OfWz-LO3dDgRt9f-FgG2-119" vertex="1">
          <mxGeometry x="260" width="280" height="40" as="geometry">
            <mxRectangle width="280" height="40" as="alternateBounds" />
          </mxGeometry>
        </mxCell>
        <mxCell id="hyGkmQSomK8qtLZX06fx-1" value="Instruction Decoder" style="swimlane;fontStyle=0;childLayout=stackLayout;horizontal=1;startSize=30;horizontalStack=0;resizeParent=1;resizeParentMax=0;resizeLast=0;collapsible=1;marginBottom=0;whiteSpace=wrap;html=1;rounded=1;movable=0;resizable=0;rotatable=0;deletable=0;editable=0;locked=1;connectable=0;labelBackgroundColor=none;" parent="1" vertex="1">
          <mxGeometry x="-530" y="-280" width="140" height="90" as="geometry" />
        </mxCell>
        <mxCell id="hyGkmQSomK8qtLZX06fx-2" value="Instruction" style="text;strokeColor=none;fillColor=none;align=left;verticalAlign=middle;spacingLeft=4;spacingRight=4;overflow=hidden;points=[[0,0.5],[1,0.5]];portConstraint=eastwest;rotatable=0;whiteSpace=wrap;html=1;rounded=1;movable=0;resizable=0;deletable=0;editable=0;locked=1;connectable=0;labelBackgroundColor=none;" parent="hyGkmQSomK8qtLZX06fx-1" vertex="1">
          <mxGeometry y="30" width="140" height="30" as="geometry" />
        </mxCell>
        <mxCell id="hyGkmQSomK8qtLZX06fx-3" value="Mode_Signal" style="text;strokeColor=none;fillColor=none;align=right;verticalAlign=middle;spacingLeft=4;spacingRight=4;overflow=hidden;points=[[0,0.5],[1,0.5]];portConstraint=eastwest;rotatable=0;whiteSpace=wrap;html=1;rounded=1;movable=0;resizable=0;deletable=0;editable=0;locked=1;connectable=0;labelBackgroundColor=none;" parent="hyGkmQSomK8qtLZX06fx-1" vertex="1">
          <mxGeometry y="60" width="140" height="30" as="geometry" />
        </mxCell>
        <mxCell id="hyGkmQSomK8qtLZX06fx-6" value="" style="shape=flexArrow;endArrow=classic;html=1;rounded=1;exitX=1;exitY=0.5;exitDx=0;exitDy=0;entryX=0;entryY=0.5;entryDx=0;entryDy=0;movable=0;resizable=0;rotatable=0;deletable=0;editable=0;locked=1;connectable=0;labelBackgroundColor=none;fontColor=default;" parent="1" source="hyGkmQSomK8qtLZX06fx-3" target="OfWz-LO3dDgRt9f-FgG2-1" edge="1">
          <mxGeometry width="50" height="50" relative="1" as="geometry">
            <mxPoint x="-360" y="-220" as="sourcePoint" />
            <mxPoint x="-310" y="-270" as="targetPoint" />
            <Array as="points">
              <mxPoint x="-340" y="-205" />
              <mxPoint x="-340" y="-395" />
            </Array>
          </mxGeometry>
        </mxCell>
        <mxCell id="hyGkmQSomK8qtLZX06fx-13" style="edgeStyle=orthogonalEdgeStyle;rounded=1;orthogonalLoop=1;jettySize=auto;html=1;entryX=0;entryY=0.5;entryDx=0;entryDy=0;movable=0;resizable=0;rotatable=0;deletable=0;editable=0;locked=1;connectable=0;exitX=0.796;exitY=0.331;exitDx=0;exitDy=0;exitPerimeter=0;labelBackgroundColor=none;fontColor=default;" parent="1" source="KgeHwVZJBMbFdhlrKOKl-260" target="hyGkmQSomK8qtLZX06fx-10" edge="1">
          <mxGeometry relative="1" as="geometry">
            <mxPoint x="-860" y="-5" as="targetPoint" />
            <mxPoint x="-1040" y="890" as="sourcePoint" />
            <Array as="points">
              <mxPoint x="-1039" y="15" />
            </Array>
          </mxGeometry>
        </mxCell>
        <mxCell id="hyGkmQSomK8qtLZX06fx-14" value="[1]" style="edgeLabel;html=1;align=center;verticalAlign=middle;resizable=0;points=[];rounded=1;movable=0;rotatable=0;deletable=0;editable=0;locked=1;connectable=0;labelBackgroundColor=none;" parent="hyGkmQSomK8qtLZX06fx-13" vertex="1" connectable="0">
          <mxGeometry x="-0.9676" y="1" relative="1" as="geometry">
            <mxPoint as="offset" />
          </mxGeometry>
        </mxCell>
        <mxCell id="hyGkmQSomK8qtLZX06fx-17" style="edgeStyle=orthogonalEdgeStyle;rounded=1;orthogonalLoop=1;jettySize=auto;html=1;exitX=1;exitY=0.5;exitDx=0;exitDy=0;entryX=0.801;entryY=0.63;entryDx=0;entryDy=0;entryPerimeter=0;movable=0;resizable=0;rotatable=0;deletable=0;editable=0;locked=1;connectable=0;labelBackgroundColor=none;fontColor=default;" parent="1" source="hyGkmQSomK8qtLZX06fx-16" target="KgeHwVZJBMbFdhlrKOKl-24" edge="1">
          <mxGeometry relative="1" as="geometry">
            <Array as="points">
              <mxPoint x="900" y="665" />
            </Array>
          </mxGeometry>
        </mxCell>
        <mxCell id="hyGkmQSomK8qtLZX06fx-19" style="edgeStyle=orthogonalEdgeStyle;rounded=1;orthogonalLoop=1;jettySize=auto;html=1;exitX=1;exitY=0.5;exitDx=0;exitDy=0;entryX=0;entryY=0.5;entryDx=0;entryDy=0;movable=0;resizable=0;rotatable=0;deletable=0;editable=0;locked=1;connectable=0;labelBackgroundColor=none;fontColor=default;" parent="1" source="hyGkmQSomK8qtLZX06fx-18" target="KgeHwVZJBMbFdhlrKOKl-67" edge="1">
          <mxGeometry relative="1" as="geometry">
            <Array as="points">
              <mxPoint x="490" y="-365" />
              <mxPoint x="490" y="635" />
            </Array>
          </mxGeometry>
        </mxCell>
        <mxCell id="KgeHwVZJBMbFdhlrKOKl-206" value="" style="group;movable=0;resizable=0;rotatable=0;deletable=0;editable=0;locked=1;connectable=0;rounded=1;labelBackgroundColor=none;" parent="1" vertex="1" connectable="0">
          <mxGeometry x="-365" y="-770" width="2120" height="72.00000000000011" as="geometry" />
        </mxCell>
        <mxCell id="KgeHwVZJBMbFdhlrKOKl-19" value="" style="verticalLabelPosition=bottom;shadow=0;dashed=0;align=center;html=1;verticalAlign=top;shape=mxgraph.electrical.transmission.straightBus;rotation=-90;rounded=1;labelBackgroundColor=none;movable=0;resizable=0;rotatable=0;deletable=0;editable=0;locked=1;connectable=0;" parent="KgeHwVZJBMbFdhlrKOKl-206" vertex="1">
          <mxGeometry x="1045" y="-1003" width="30" height="2120" as="geometry" />
        </mxCell>
        <mxCell id="KgeHwVZJBMbFdhlrKOKl-205" value="&lt;font style=&quot;font-size: 25px;&quot;&gt;Internal Address Bus&lt;/font&gt;" style="text;html=1;align=center;verticalAlign=middle;resizable=0;points=[];autosize=1;strokeColor=none;fillColor=none;movable=0;rotatable=0;deletable=0;editable=0;locked=1;connectable=0;rounded=1;labelBackgroundColor=none;" parent="KgeHwVZJBMbFdhlrKOKl-206" vertex="1">
          <mxGeometry x="915" width="250" height="40" as="geometry" />
        </mxCell>
        <mxCell id="hyGkmQSomK8qtLZX06fx-24" style="edgeStyle=orthogonalEdgeStyle;rounded=1;orthogonalLoop=1;jettySize=auto;html=1;exitX=1;exitY=0.5;exitDx=0;exitDy=0;entryX=0.5;entryY=1;entryDx=0;entryDy=0;movable=0;resizable=0;rotatable=0;deletable=0;editable=0;locked=1;connectable=0;labelBackgroundColor=none;fontColor=default;" parent="1" source="hyGkmQSomK8qtLZX06fx-20" edge="1">
          <mxGeometry relative="1" as="geometry">
            <mxPoint x="-2790" y="-209.25000000000023" as="targetPoint" />
          </mxGeometry>
        </mxCell>
        <mxCell id="hyGkmQSomK8qtLZX06fx-20" value="Immediate Num to dBus" style="whiteSpace=wrap;html=1;rounded=1;movable=0;resizable=0;rotatable=0;deletable=0;editable=0;locked=1;connectable=0;labelBackgroundColor=none;" parent="1" vertex="1">
          <mxGeometry x="-3000" y="-189.25" width="150" height="60" as="geometry" />
        </mxCell>
        <mxCell id="hyGkmQSomK8qtLZX06fx-33" style="edgeStyle=orthogonalEdgeStyle;shape=connector;rounded=1;orthogonalLoop=1;jettySize=auto;html=1;exitX=1;exitY=0.5;exitDx=0;exitDy=0;entryX=0;entryY=0.5;entryDx=0;entryDy=0;labelBackgroundColor=none;align=center;verticalAlign=middle;fontFamily=Helvetica;fontSize=11;fontColor=default;endArrow=classic;movable=0;resizable=0;rotatable=0;deletable=0;editable=0;locked=1;connectable=0;" parent="1" source="hyGkmQSomK8qtLZX06fx-30" target="KgeHwVZJBMbFdhlrKOKl-31" edge="1">
          <mxGeometry relative="1" as="geometry">
            <Array as="points">
              <mxPoint x="990" y="-185" />
              <mxPoint x="990" y="290" />
            </Array>
          </mxGeometry>
        </mxCell>
        <mxCell id="hyGkmQSomK8qtLZX06fx-32" style="edgeStyle=orthogonalEdgeStyle;rounded=1;orthogonalLoop=1;jettySize=auto;html=1;exitX=1;exitY=0.5;exitDx=0;exitDy=0;fontColor=default;entryX=0;entryY=0.5;entryDx=0;entryDy=0;movable=0;resizable=0;rotatable=0;deletable=0;editable=0;locked=1;connectable=0;labelBackgroundColor=none;" parent="1" source="hyGkmQSomK8qtLZX06fx-31" target="KgeHwVZJBMbFdhlrKOKl-30" edge="1">
          <mxGeometry relative="1" as="geometry">
            <mxPoint x="1020" y="70" as="targetPoint" />
            <Array as="points">
              <mxPoint x="1020" y="-215" />
              <mxPoint x="1020" y="260" />
            </Array>
          </mxGeometry>
        </mxCell>
        <mxCell id="hyGkmQSomK8qtLZX06fx-34" value="MUX" style="shape=trapezoid;perimeter=trapezoidPerimeter;whiteSpace=wrap;html=1;fixedSize=1;direction=south;points=[[0.12,0.5,0,0,0],[0.33,1,0,0,0],[0.5,0,0,0,0],[0.66,1,0,0,0],[0.88,0.5,0,0,0]];movable=0;resizable=0;rotatable=0;deletable=0;editable=0;locked=1;connectable=0;noLabel=0;fixDash=0;snapToPoint=0;rounded=1;labelBackgroundColor=none;" parent="1" vertex="1">
          <mxGeometry x="420" y="480" width="40" height="80" as="geometry" />
        </mxCell>
        <mxCell id="hyGkmQSomK8qtLZX06fx-35" style="edgeStyle=orthogonalEdgeStyle;rounded=1;orthogonalLoop=1;jettySize=auto;html=1;exitX=0.5;exitY=0;exitDx=0;exitDy=0;exitPerimeter=0;entryX=0.66;entryY=1;entryDx=0;entryDy=0;entryPerimeter=0;fontColor=default;labelBackgroundColor=none;movable=0;resizable=0;rotatable=0;deletable=0;editable=0;locked=1;connectable=0;" parent="1" source="hyGkmQSomK8qtLZX06fx-34" target="KgeHwVZJBMbFdhlrKOKl-176" edge="1">
          <mxGeometry relative="1" as="geometry" />
        </mxCell>
        <mxCell id="hyGkmQSomK8qtLZX06fx-36" value="1" style="edgeLabel;html=1;align=center;verticalAlign=middle;resizable=0;points=[];fontSize=11;fontFamily=Helvetica;labelBackgroundColor=none;rounded=1;movable=0;rotatable=0;deletable=0;editable=0;locked=1;connectable=0;" parent="hyGkmQSomK8qtLZX06fx-35" vertex="1" connectable="0">
          <mxGeometry x="0.8581" y="1" relative="1" as="geometry">
            <mxPoint as="offset" />
          </mxGeometry>
        </mxCell>
        <mxCell id="hyGkmQSomK8qtLZX06fx-37" style="edgeStyle=orthogonalEdgeStyle;shape=connector;rounded=1;orthogonalLoop=1;jettySize=auto;html=1;exitX=1;exitY=0.5;exitDx=0;exitDy=0;entryX=0.66;entryY=1;entryDx=0;entryDy=0;entryPerimeter=0;labelBackgroundColor=none;align=center;verticalAlign=middle;fontFamily=Helvetica;fontSize=11;fontColor=default;endArrow=classic;movable=0;resizable=0;rotatable=0;deletable=0;editable=0;locked=1;connectable=0;" parent="1" source="KgeHwVZJBMbFdhlrKOKl-171" target="hyGkmQSomK8qtLZX06fx-34" edge="1">
          <mxGeometry relative="1" as="geometry">
            <Array as="points">
              <mxPoint x="470" y="295" />
              <mxPoint x="470" y="330" />
              <mxPoint x="270" y="330" />
              <mxPoint x="270" y="533" />
            </Array>
          </mxGeometry>
        </mxCell>
        <mxCell id="hyGkmQSomK8qtLZX06fx-38" value="1" style="edgeLabel;html=1;align=center;verticalAlign=middle;resizable=0;points=[];fontSize=11;fontFamily=Helvetica;labelBackgroundColor=none;rounded=1;movable=0;rotatable=0;deletable=0;editable=0;locked=1;connectable=0;" parent="hyGkmQSomK8qtLZX06fx-37" vertex="1" connectable="0">
          <mxGeometry x="0.9502" y="-1" relative="1" as="geometry">
            <mxPoint as="offset" />
          </mxGeometry>
        </mxCell>
        <mxCell id="hyGkmQSomK8qtLZX06fx-40" style="edgeStyle=orthogonalEdgeStyle;rounded=1;orthogonalLoop=1;jettySize=auto;html=1;exitX=0.5;exitY=0;exitDx=0;exitDy=0;entryX=0.33;entryY=1;entryDx=0;entryDy=0;entryPerimeter=0;movable=0;resizable=0;rotatable=0;deletable=0;editable=0;locked=1;connectable=0;labelBackgroundColor=none;fontColor=default;" parent="1" source="i2NthTAIH1iRgAQdDC14-28" target="hyGkmQSomK8qtLZX06fx-34" edge="1">
          <mxGeometry relative="1" as="geometry">
            <Array as="points">
              <mxPoint x="180" y="300" />
              <mxPoint x="230" y="300" />
              <mxPoint x="230" y="506" />
            </Array>
          </mxGeometry>
        </mxCell>
        <mxCell id="hyGkmQSomK8qtLZX06fx-41" value="0" style="edgeLabel;html=1;align=center;verticalAlign=middle;resizable=0;points=[];rounded=1;movable=0;rotatable=0;deletable=0;editable=0;locked=1;connectable=0;labelBackgroundColor=none;" parent="hyGkmQSomK8qtLZX06fx-40" vertex="1" connectable="0">
          <mxGeometry x="0.9238" relative="1" as="geometry">
            <mxPoint as="offset" />
          </mxGeometry>
        </mxCell>
        <mxCell id="hyGkmQSomK8qtLZX06fx-44" style="edgeStyle=orthogonalEdgeStyle;rounded=1;orthogonalLoop=1;jettySize=auto;html=1;exitX=1;exitY=0.5;exitDx=0;exitDy=0;entryX=0.88;entryY=0.5;entryDx=0;entryDy=0;entryPerimeter=0;movable=0;resizable=0;rotatable=0;deletable=0;editable=0;locked=1;connectable=0;labelBackgroundColor=none;fontColor=default;" parent="1" source="hyGkmQSomK8qtLZX06fx-43" target="KgeHwVZJBMbFdhlrKOKl-176" edge="1">
          <mxGeometry relative="1" as="geometry">
            <mxPoint x="410" y="70.00000000000023" as="targetPoint" />
            <Array as="points">
              <mxPoint x="480" y="25" />
              <mxPoint x="480" y="530" />
              <mxPoint x="620" y="530" />
            </Array>
          </mxGeometry>
        </mxCell>
        <mxCell id="hyGkmQSomK8qtLZX06fx-45" value="Store to Register" style="ellipse;whiteSpace=wrap;html=1;rounded=1;movable=0;resizable=0;rotatable=0;deletable=0;editable=0;locked=1;connectable=0;labelBackgroundColor=none;" parent="1" vertex="1">
          <mxGeometry x="-2850" y="-266.75" width="120" height="55" as="geometry" />
        </mxCell>
        <mxCell id="hyGkmQSomK8qtLZX06fx-48" style="edgeStyle=orthogonalEdgeStyle;rounded=1;orthogonalLoop=1;jettySize=auto;html=1;exitX=1;exitY=0.5;exitDx=0;exitDy=0;entryX=0.88;entryY=0.5;entryDx=0;entryDy=0;entryPerimeter=0;fontColor=default;labelBackgroundColor=none;movable=0;resizable=0;rotatable=0;deletable=0;editable=0;locked=1;connectable=0;" parent="1" source="hyGkmQSomK8qtLZX06fx-47" target="KgeHwVZJBMbFdhlrKOKl-175" edge="1">
          <mxGeometry relative="1" as="geometry">
            <Array as="points">
              <mxPoint x="500" y="55" />
              <mxPoint x="500" y="400" />
              <mxPoint x="620" y="400" />
            </Array>
          </mxGeometry>
        </mxCell>
        <mxCell id="hyGkmQSomK8qtLZX06fx-49" style="edgeStyle=orthogonalEdgeStyle;rounded=1;orthogonalLoop=1;jettySize=auto;html=1;exitX=1;exitY=0.5;exitDx=0;exitDy=0;entryX=0.88;entryY=0.5;entryDx=0;entryDy=0;entryPerimeter=0;fontColor=default;labelBackgroundColor=none;movable=0;resizable=0;rotatable=0;deletable=0;editable=0;locked=1;connectable=0;" parent="1" source="hyGkmQSomK8qtLZX06fx-47" target="hyGkmQSomK8qtLZX06fx-34" edge="1">
          <mxGeometry relative="1" as="geometry">
            <Array as="points">
              <mxPoint x="220" y="55" />
              <mxPoint x="220" y="590" />
              <mxPoint x="440" y="590" />
            </Array>
          </mxGeometry>
        </mxCell>
        <mxCell id="hyGkmQSomK8qtLZX06fx-51" style="edgeStyle=orthogonalEdgeStyle;rounded=1;orthogonalLoop=1;jettySize=auto;html=1;exitX=1;exitY=0.5;exitDx=0;exitDy=0;movable=0;resizable=0;rotatable=0;deletable=0;editable=0;locked=1;connectable=0;" parent="1" source="hyGkmQSomK8qtLZX06fx-50" target="KgeHwVZJBMbFdhlrKOKl-83" edge="1">
          <mxGeometry relative="1" as="geometry" />
        </mxCell>
        <mxCell id="wvbiDA6VCalBJLXo1PWG-1" style="edgeStyle=orthogonalEdgeStyle;rounded=1;orthogonalLoop=1;jettySize=auto;html=1;exitX=1;exitY=0.5;exitDx=0;exitDy=0;entryX=0;entryY=0.5;entryDx=0;entryDy=0;movable=0;resizable=0;rotatable=0;deletable=0;editable=0;locked=1;connectable=0;" edge="1" parent="1" source="hyGkmQSomK8qtLZX06fx-50" target="i2NthTAIH1iRgAQdDC14-19">
          <mxGeometry relative="1" as="geometry">
            <mxPoint x="-340" y="-90" as="targetPoint" />
            <Array as="points">
              <mxPoint x="-320" y="-522" />
              <mxPoint x="-320" y="200" />
              <mxPoint x="260" y="200" />
              <mxPoint x="260" y="175" />
            </Array>
          </mxGeometry>
        </mxCell>
        <mxCell id="hyGkmQSomK8qtLZX06fx-50" value="Clock Doubler" style="rounded=1;whiteSpace=wrap;html=1;movable=0;resizable=0;rotatable=0;deletable=0;editable=0;locked=1;connectable=0;" parent="1" vertex="1">
          <mxGeometry x="-470" y="-539.75" width="105" height="36" as="geometry" />
        </mxCell>
        <mxCell id="wvbiDA6VCalBJLXo1PWG-4" style="edgeStyle=orthogonalEdgeStyle;rounded=1;orthogonalLoop=1;jettySize=auto;html=1;entryX=0;entryY=0.5;entryDx=0;entryDy=0;movable=0;resizable=0;rotatable=0;deletable=0;editable=0;locked=1;connectable=0;exitX=0.829;exitY=0.246;exitDx=0;exitDy=0;exitPerimeter=0;labelBackgroundColor=none;fontColor=default;" edge="1" parent="1" source="KgeHwVZJBMbFdhlrKOKl-260" target="wvbiDA6VCalBJLXo1PWG-3">
          <mxGeometry relative="1" as="geometry">
            <mxPoint x="-1211" y="-10" as="targetPoint" />
            <mxPoint x="-1380" y="881" as="sourcePoint" />
            <Array as="points">
              <mxPoint x="-1380" y="15" />
            </Array>
          </mxGeometry>
        </mxCell>
        <mxCell id="wvbiDA6VCalBJLXo1PWG-5" value="[1]" style="edgeLabel;html=1;align=center;verticalAlign=middle;resizable=0;points=[];rounded=1;movable=0;rotatable=0;deletable=0;editable=0;locked=1;connectable=0;labelBackgroundColor=none;" vertex="1" connectable="0" parent="wvbiDA6VCalBJLXo1PWG-4">
          <mxGeometry x="-0.9676" y="1" relative="1" as="geometry">
            <mxPoint as="offset" />
          </mxGeometry>
        </mxCell>
        <mxCell id="wvbiDA6VCalBJLXo1PWG-6" style="edgeStyle=orthogonalEdgeStyle;rounded=1;orthogonalLoop=1;jettySize=auto;html=1;entryX=0;entryY=0.5;entryDx=0;entryDy=0;movable=0;resizable=0;rotatable=0;deletable=0;editable=0;locked=1;connectable=0;labelBackgroundColor=none;fontColor=default;exitX=0.794;exitY=0.256;exitDx=0;exitDy=0;exitPerimeter=0;" edge="1" parent="1" source="KgeHwVZJBMbFdhlrKOKl-260" target="wvbiDA6VCalBJLXo1PWG-2">
          <mxGeometry relative="1" as="geometry">
            <mxPoint x="-1300" y="80" as="targetPoint" />
            <mxPoint x="-1280" y="850" as="sourcePoint" />
            <Array as="points">
              <mxPoint x="-1340" y="850" />
              <mxPoint x="-1340" y="850" />
              <mxPoint x="-1340" y="45" />
            </Array>
          </mxGeometry>
        </mxCell>
        <mxCell id="wvbiDA6VCalBJLXo1PWG-7" value="[4:3]" style="edgeLabel;html=1;align=center;verticalAlign=middle;resizable=0;points=[];rounded=1;movable=0;rotatable=0;deletable=0;editable=0;locked=1;connectable=0;labelBackgroundColor=none;" vertex="1" connectable="0" parent="wvbiDA6VCalBJLXo1PWG-6">
          <mxGeometry x="-0.9393" y="-2" relative="1" as="geometry">
            <mxPoint y="12" as="offset" />
          </mxGeometry>
        </mxCell>
      </root>
    </mxGraphModel>
  </diagram>
</mxfile>
